%TF.GenerationSoftware,KiCad,Pcbnew,9.0.1*%
%TF.CreationDate,2025-06-10T13:28:14+03:00*%
%TF.ProjectId,diploma,6469706c-6f6d-4612-9e6b-696361645f70,rev?*%
%TF.SameCoordinates,Original*%
%TF.FileFunction,Soldermask,Top*%
%TF.FilePolarity,Negative*%
%FSLAX46Y46*%
G04 Gerber Fmt 4.6, Leading zero omitted, Abs format (unit mm)*
G04 Created by KiCad (PCBNEW 9.0.1) date 2025-06-10 13:28:14*
%MOMM*%
%LPD*%
G01*
G04 APERTURE LIST*
G04 Aperture macros list*
%AMRoundRect*
0 Rectangle with rounded corners*
0 $1 Rounding radius*
0 $2 $3 $4 $5 $6 $7 $8 $9 X,Y pos of 4 corners*
0 Add a 4 corners polygon primitive as box body*
4,1,4,$2,$3,$4,$5,$6,$7,$8,$9,$2,$3,0*
0 Add four circle primitives for the rounded corners*
1,1,$1+$1,$2,$3*
1,1,$1+$1,$4,$5*
1,1,$1+$1,$6,$7*
1,1,$1+$1,$8,$9*
0 Add four rect primitives between the rounded corners*
20,1,$1+$1,$2,$3,$4,$5,0*
20,1,$1+$1,$4,$5,$6,$7,0*
20,1,$1+$1,$6,$7,$8,$9,0*
20,1,$1+$1,$8,$9,$2,$3,0*%
G04 Aperture macros list end*
%ADD10C,0.375000*%
%ADD11C,0.010000*%
%ADD12RoundRect,0.250000X0.400000X0.700000X-0.400000X0.700000X-0.400000X-0.700000X0.400000X-0.700000X0*%
%ADD13RoundRect,0.250000X0.750000X0.700000X-0.750000X0.700000X-0.750000X-0.700000X0.750000X-0.700000X0*%
%ADD14R,1.900000X2.400000*%
%ADD15C,1.600000*%
%ADD16O,1.600000X1.600000*%
%ADD17O,1.354000X0.904000*%
%ADD18O,1.254000X1.854000*%
%ADD19O,1.254000X2.254000*%
%ADD20O,1.254000X1.849000*%
%ADD21R,2.200000X2.200000*%
%ADD22O,2.200000X2.200000*%
%ADD23RoundRect,0.150000X0.150000X-0.825000X0.150000X0.825000X-0.150000X0.825000X-0.150000X-0.825000X0*%
%ADD24R,3.300000X2.410000*%
%ADD25RoundRect,0.075000X0.662500X0.075000X-0.662500X0.075000X-0.662500X-0.075000X0.662500X-0.075000X0*%
%ADD26RoundRect,0.075000X0.075000X0.662500X-0.075000X0.662500X-0.075000X-0.662500X0.075000X-0.662500X0*%
%ADD27R,1.600000X1.600000*%
%ADD28C,2.000000*%
%ADD29C,3.200000*%
%ADD30R,3.500000X3.500000*%
%ADD31C,3.500000*%
%ADD32RoundRect,0.150000X-0.150000X0.512500X-0.150000X-0.512500X0.150000X-0.512500X0.150000X0.512500X0*%
%ADD33R,1.700000X1.700000*%
%ADD34C,1.700000*%
%ADD35C,1.500000*%
%ADD36R,1.500000X1.500000*%
%ADD37RoundRect,0.250000X0.650000X-1.000000X0.650000X1.000000X-0.650000X1.000000X-0.650000X-1.000000X0*%
%ADD38RoundRect,0.150000X0.150000X-0.512500X0.150000X0.512500X-0.150000X0.512500X-0.150000X-0.512500X0*%
%ADD39R,1.000000X1.500000*%
%ADD40C,1.982000*%
%ADD41RoundRect,0.102000X-0.889000X-0.889000X0.889000X-0.889000X0.889000X0.889000X-0.889000X0.889000X0*%
%ADD42C,2.600000*%
%ADD43RoundRect,0.102000X0.554000X0.554000X-0.554000X0.554000X-0.554000X-0.554000X0.554000X-0.554000X0*%
%ADD44C,1.312000*%
G04 APERTURE END LIST*
D10*
%TO.C,P1*%
X123718250Y-139000000D02*
G75*
G02*
X123343250Y-139000000I-187500J0D01*
G01*
X123343250Y-139000000D02*
G75*
G02*
X123718250Y-139000000I187500J0D01*
G01*
X124518250Y-139000000D02*
G75*
G02*
X124143250Y-139000000I-187500J0D01*
G01*
X124143250Y-139000000D02*
G75*
G02*
X124518250Y-139000000I187500J0D01*
G01*
X124918250Y-138100000D02*
G75*
G02*
X124543250Y-138100000I-187500J0D01*
G01*
X124543250Y-138100000D02*
G75*
G02*
X124918250Y-138100000I187500J0D01*
G01*
X125368250Y-139000000D02*
G75*
G02*
X124993250Y-139000000I-187500J0D01*
G01*
X124993250Y-139000000D02*
G75*
G02*
X125368250Y-139000000I187500J0D01*
G01*
X125818250Y-138100000D02*
G75*
G02*
X125443250Y-138100000I-187500J0D01*
G01*
X125443250Y-138100000D02*
G75*
G02*
X125818250Y-138100000I187500J0D01*
G01*
X126618250Y-138100000D02*
G75*
G02*
X126243250Y-138100000I-187500J0D01*
G01*
X126243250Y-138100000D02*
G75*
G02*
X126618250Y-138100000I187500J0D01*
G01*
X127068250Y-139000000D02*
G75*
G02*
X126693250Y-139000000I-187500J0D01*
G01*
X126693250Y-139000000D02*
G75*
G02*
X127068250Y-139000000I187500J0D01*
G01*
X127518250Y-138100000D02*
G75*
G02*
X127143250Y-138100000I-187500J0D01*
G01*
X127143250Y-138100000D02*
G75*
G02*
X127518250Y-138100000I187500J0D01*
G01*
X127918250Y-139000000D02*
G75*
G02*
X127543250Y-139000000I-187500J0D01*
G01*
X127543250Y-139000000D02*
G75*
G02*
X127918250Y-139000000I187500J0D01*
G01*
X128718250Y-139000000D02*
G75*
G02*
X128343250Y-139000000I-187500J0D01*
G01*
X128343250Y-139000000D02*
G75*
G02*
X128718250Y-139000000I187500J0D01*
G01*
D11*
X123505750Y-137310000D02*
X123055750Y-137310000D01*
X123055750Y-136610000D01*
X123505750Y-136610000D01*
X123505750Y-137310000D01*
G36*
X123505750Y-137310000D02*
G01*
X123055750Y-137310000D01*
X123055750Y-136610000D01*
X123505750Y-136610000D01*
X123505750Y-137310000D01*
G37*
X124005750Y-137310000D02*
X123555750Y-137310000D01*
X123555750Y-136610000D01*
X124005750Y-136610000D01*
X124005750Y-137310000D01*
G36*
X124005750Y-137310000D02*
G01*
X123555750Y-137310000D01*
X123555750Y-136610000D01*
X124005750Y-136610000D01*
X124005750Y-137310000D01*
G37*
X124505750Y-137310000D02*
X124055750Y-137310000D01*
X124055750Y-136610000D01*
X124505750Y-136610000D01*
X124505750Y-137310000D01*
G36*
X124505750Y-137310000D02*
G01*
X124055750Y-137310000D01*
X124055750Y-136610000D01*
X124505750Y-136610000D01*
X124505750Y-137310000D01*
G37*
X125005750Y-137310000D02*
X124555750Y-137310000D01*
X124555750Y-136610000D01*
X125005750Y-136610000D01*
X125005750Y-137310000D01*
G36*
X125005750Y-137310000D02*
G01*
X124555750Y-137310000D01*
X124555750Y-136610000D01*
X125005750Y-136610000D01*
X125005750Y-137310000D01*
G37*
X125505750Y-137310000D02*
X125055750Y-137310000D01*
X125055750Y-136610000D01*
X125505750Y-136610000D01*
X125505750Y-137310000D01*
G36*
X125505750Y-137310000D02*
G01*
X125055750Y-137310000D01*
X125055750Y-136610000D01*
X125505750Y-136610000D01*
X125505750Y-137310000D01*
G37*
X126005750Y-137310000D02*
X125555750Y-137310000D01*
X125555750Y-136610000D01*
X126005750Y-136610000D01*
X126005750Y-137310000D01*
G36*
X126005750Y-137310000D02*
G01*
X125555750Y-137310000D01*
X125555750Y-136610000D01*
X126005750Y-136610000D01*
X126005750Y-137310000D01*
G37*
X126505750Y-137310000D02*
X126055750Y-137310000D01*
X126055750Y-136610000D01*
X126505750Y-136610000D01*
X126505750Y-137310000D01*
G36*
X126505750Y-137310000D02*
G01*
X126055750Y-137310000D01*
X126055750Y-136610000D01*
X126505750Y-136610000D01*
X126505750Y-137310000D01*
G37*
X127005750Y-137310000D02*
X126555750Y-137310000D01*
X126555750Y-136610000D01*
X127005750Y-136610000D01*
X127005750Y-137310000D01*
G36*
X127005750Y-137310000D02*
G01*
X126555750Y-137310000D01*
X126555750Y-136610000D01*
X127005750Y-136610000D01*
X127005750Y-137310000D01*
G37*
X127505750Y-137310000D02*
X127055750Y-137310000D01*
X127055750Y-136610000D01*
X127505750Y-136610000D01*
X127505750Y-137310000D01*
G36*
X127505750Y-137310000D02*
G01*
X127055750Y-137310000D01*
X127055750Y-136610000D01*
X127505750Y-136610000D01*
X127505750Y-137310000D01*
G37*
X128005750Y-137310000D02*
X127555750Y-137310000D01*
X127555750Y-136610000D01*
X128005750Y-136610000D01*
X128005750Y-137310000D01*
G36*
X128005750Y-137310000D02*
G01*
X127555750Y-137310000D01*
X127555750Y-136610000D01*
X128005750Y-136610000D01*
X128005750Y-137310000D01*
G37*
X128505750Y-137310000D02*
X128055750Y-137310000D01*
X128055750Y-136610000D01*
X128505750Y-136610000D01*
X128505750Y-137310000D01*
G36*
X128505750Y-137310000D02*
G01*
X128055750Y-137310000D01*
X128055750Y-136610000D01*
X128505750Y-136610000D01*
X128505750Y-137310000D01*
G37*
X129005750Y-137310000D02*
X128555750Y-137310000D01*
X128555750Y-136610000D01*
X129005750Y-136610000D01*
X129005750Y-137310000D01*
G36*
X129005750Y-137310000D02*
G01*
X128555750Y-137310000D01*
X128555750Y-136610000D01*
X129005750Y-136610000D01*
X129005750Y-137310000D01*
G37*
%TO.C,JP1*%
G36*
X202200000Y-67250000D02*
G01*
X203800000Y-67250000D01*
X203800000Y-68750000D01*
X202200000Y-68750000D01*
X202200000Y-67250000D01*
G37*
%TO.C,JP2*%
G36*
X208900000Y-67250000D02*
G01*
X210500000Y-67250000D01*
X210500000Y-68750000D01*
X208900000Y-68750000D01*
X208900000Y-67250000D01*
G37*
%TD*%
D12*
%TO.C,RV1*%
X141850000Y-92050000D03*
D13*
X143000000Y-86950000D03*
D12*
X144150000Y-92050000D03*
%TD*%
D14*
%TO.C,Y2*%
X190500000Y-83500000D03*
X186400000Y-83500000D03*
%TD*%
D15*
%TO.C,R7*%
X131500000Y-92000000D03*
D16*
X139120000Y-92000000D03*
%TD*%
D15*
%TO.C,R15*%
X203000000Y-70690000D03*
D16*
X203000000Y-78310000D03*
%TD*%
D17*
%TO.C,P1*%
X129230750Y-138100000D03*
X122830750Y-138100000D03*
D18*
X121565750Y-136560000D03*
D19*
X119955750Y-138900000D03*
X119955750Y-142760000D03*
D20*
X130495750Y-136560000D03*
D19*
X132105750Y-138900000D03*
X132105750Y-142760000D03*
%TD*%
D15*
%TO.C,R5*%
X134690000Y-101000000D03*
D16*
X142310000Y-101000000D03*
%TD*%
D21*
%TO.C,D5*%
X169200000Y-97500000D03*
D22*
X159040000Y-97500000D03*
%TD*%
D15*
%TO.C,R10*%
X169450000Y-74270000D03*
D16*
X169450000Y-66650000D03*
%TD*%
D23*
%TO.C,U1*%
X124795000Y-118175000D03*
X126065000Y-118175000D03*
X127335000Y-118175000D03*
X128605000Y-118175000D03*
X128605000Y-113225000D03*
X127335000Y-113225000D03*
X126065000Y-113225000D03*
X124795000Y-113225000D03*
D24*
X126700000Y-115700000D03*
%TD*%
D21*
%TO.C,D4*%
X169080000Y-101000000D03*
D22*
X158920000Y-101000000D03*
%TD*%
D25*
%TO.C,U5*%
X182500000Y-76439400D03*
X182500000Y-75939400D03*
X182500000Y-75439400D03*
X182500000Y-74939400D03*
X182500000Y-74439400D03*
X182500000Y-73939400D03*
X182500000Y-73439400D03*
X182500000Y-72939400D03*
X182500000Y-72439400D03*
X182500000Y-71939400D03*
X182500000Y-71439400D03*
X182500000Y-70939400D03*
D26*
X181087500Y-69526900D03*
X180587500Y-69526900D03*
X180087500Y-69526900D03*
X179587500Y-69526900D03*
X179087500Y-69526900D03*
X178587500Y-69526900D03*
X178087500Y-69526900D03*
X177587500Y-69526900D03*
X177087500Y-69526900D03*
X176587500Y-69526900D03*
X176087500Y-69526900D03*
X175587500Y-69526900D03*
D25*
X174175000Y-70939400D03*
X174175000Y-71439400D03*
X174175000Y-71939400D03*
X174175000Y-72439400D03*
X174175000Y-72939400D03*
X174175000Y-73439400D03*
X174175000Y-73939400D03*
X174175000Y-74439400D03*
X174175000Y-74939400D03*
X174175000Y-75439400D03*
X174175000Y-75939400D03*
X174175000Y-76439400D03*
D26*
X175587500Y-77851900D03*
X176087500Y-77851900D03*
X176587500Y-77851900D03*
X177087500Y-77851900D03*
X177587500Y-77851900D03*
X178087500Y-77851900D03*
X178587500Y-77851900D03*
X179087500Y-77851900D03*
X179587500Y-77851900D03*
X180087500Y-77851900D03*
X180587500Y-77851900D03*
X181087500Y-77851900D03*
%TD*%
D27*
%TO.C,C6*%
X134317621Y-86500000D03*
D15*
X136817621Y-86500000D03*
%TD*%
D28*
%TO.C,SW1*%
X128000000Y-52500000D03*
X121500000Y-52500000D03*
X128000000Y-48000000D03*
X121500000Y-48000000D03*
%TD*%
D15*
%TO.C,R4*%
X142310000Y-97500000D03*
D16*
X134690000Y-97500000D03*
%TD*%
D29*
%TO.C,BT1*%
X145145000Y-113000000D03*
X200755000Y-113000000D03*
D30*
X136500000Y-113000000D03*
D31*
X208500000Y-113000000D03*
%TD*%
D15*
%TO.C,C13*%
X200470151Y-88690000D03*
X200470151Y-83690000D03*
%TD*%
D23*
%TO.C,Q1*%
X126595000Y-105975000D03*
X127865000Y-105975000D03*
X129135000Y-105975000D03*
X130405000Y-105975000D03*
X130405000Y-101025000D03*
X129135000Y-101025000D03*
X127865000Y-101025000D03*
X126595000Y-101025000D03*
%TD*%
D27*
%TO.C,C14*%
X163500000Y-82794888D03*
D15*
X163500000Y-85294888D03*
%TD*%
%TO.C,C10*%
X120900000Y-56464400D03*
X125900000Y-56464400D03*
%TD*%
%TO.C,C20*%
X200225151Y-98500000D03*
X200225151Y-93500000D03*
%TD*%
D27*
%TO.C,C4*%
X119500000Y-111705113D03*
D15*
X119500000Y-109205113D03*
%TD*%
D32*
%TO.C,U2*%
X121450000Y-115500000D03*
X120500000Y-115500000D03*
X119550000Y-115500000D03*
X119550000Y-117775000D03*
X120500000Y-117775000D03*
X121450000Y-117775000D03*
%TD*%
D33*
%TO.C,J2*%
X169525000Y-77750000D03*
D34*
X169525000Y-80290000D03*
%TD*%
D15*
%TO.C,R8*%
X195470151Y-90000000D03*
D16*
X195470151Y-82380000D03*
%TD*%
D35*
%TO.C,Y1*%
X174050000Y-88000000D03*
X178930000Y-88000000D03*
%TD*%
D15*
%TO.C,C11*%
X196500000Y-69000000D03*
X196500000Y-74000000D03*
%TD*%
%TO.C,R3*%
X131310000Y-110000000D03*
D16*
X123690000Y-110000000D03*
%TD*%
D27*
%TO.C,C9*%
X121900000Y-60964400D03*
D15*
X124400000Y-60964400D03*
%TD*%
%TO.C,C1*%
X128000000Y-133500000D03*
X128000000Y-128500000D03*
%TD*%
%TO.C,R11*%
X125000000Y-134120000D03*
D16*
X125000000Y-126500000D03*
%TD*%
D15*
%TO.C,C16*%
X187200000Y-80000000D03*
X189700000Y-80000000D03*
%TD*%
%TO.C,C19*%
X184110600Y-89440000D03*
X184110600Y-86940000D03*
%TD*%
%TO.C,C17*%
X189700000Y-87000000D03*
X187200000Y-87000000D03*
%TD*%
D36*
%TO.C,U6*%
X189000000Y-74000000D03*
D35*
X189000000Y-71460000D03*
X189000000Y-68920000D03*
X189000000Y-66380000D03*
%TD*%
D29*
%TO.C,BT2*%
X145000000Y-134000000D03*
X200610000Y-134000000D03*
D30*
X136355000Y-134000000D03*
D31*
X208355000Y-134000000D03*
%TD*%
D37*
%TO.C,D3*%
X127000000Y-93500000D03*
X127000000Y-89500000D03*
%TD*%
D15*
%TO.C,C5*%
X122500000Y-106500000D03*
X122500000Y-101500000D03*
%TD*%
%TO.C,R1*%
X131000000Y-133810000D03*
D16*
X131000000Y-126190000D03*
%TD*%
D38*
%TO.C,U3*%
X127050000Y-85637500D03*
X128000000Y-85637500D03*
X128950000Y-85637500D03*
X128950000Y-83362500D03*
X128000000Y-83362500D03*
X127050000Y-83362500D03*
%TD*%
D39*
%TO.C,JP1*%
X201700000Y-68000000D03*
X203000000Y-68000000D03*
X204300000Y-68000000D03*
%TD*%
D37*
%TO.C,D6*%
X117500000Y-132000000D03*
X117500000Y-128000000D03*
%TD*%
D15*
%TO.C,R2*%
X124190000Y-122500000D03*
D16*
X131810000Y-122500000D03*
%TD*%
D15*
%TO.C,C12*%
X135950000Y-65270000D03*
X135950000Y-60270000D03*
%TD*%
D40*
%TO.C,U7*%
X139450000Y-58770000D03*
X139450000Y-61310000D03*
X168939400Y-53690000D03*
X139450000Y-56230000D03*
X168939400Y-61310000D03*
X168939400Y-56230000D03*
X168939400Y-58770000D03*
D41*
X139450000Y-63850000D03*
D40*
X168939400Y-63850000D03*
%TD*%
D21*
%TO.C,D2*%
X145420000Y-101000000D03*
D22*
X155580000Y-101000000D03*
%TD*%
D15*
%TO.C,R9*%
X128640000Y-56270000D03*
D16*
X136260000Y-56270000D03*
%TD*%
D42*
%TO.C,L1*%
X121500000Y-84000000D03*
X121500000Y-87500000D03*
%TD*%
D43*
%TO.C,J1*%
X178989000Y-82500000D03*
D44*
X177744000Y-82500000D03*
X176500000Y-82500000D03*
X175255000Y-82500000D03*
%TD*%
D15*
%TO.C,R14*%
X181310000Y-101000000D03*
D16*
X173690000Y-101000000D03*
%TD*%
D39*
%TO.C,JP2*%
X208400000Y-68000000D03*
X209700000Y-68000000D03*
X211000000Y-68000000D03*
%TD*%
D38*
%TO.C,U4*%
X121500000Y-67775000D03*
X122450000Y-67775000D03*
X123400000Y-67775000D03*
X123400000Y-65500000D03*
X121500000Y-65500000D03*
%TD*%
D15*
%TO.C,C15*%
X158500000Y-81250000D03*
X158500000Y-86250000D03*
%TD*%
D28*
%TO.C,SW3*%
X211975151Y-98250000D03*
X205475151Y-98250000D03*
X211975151Y-93750000D03*
X205475151Y-93750000D03*
%TD*%
D27*
%TO.C,C2*%
X120000000Y-125000000D03*
D15*
X120000000Y-122500000D03*
%TD*%
D28*
%TO.C,SW2*%
X212000000Y-88676626D03*
X205500000Y-88676626D03*
X212000000Y-84176626D03*
X205500000Y-84176626D03*
%TD*%
D15*
%TO.C,C18*%
X169110600Y-86940000D03*
X169110600Y-89440000D03*
%TD*%
D27*
%TO.C,C8*%
X123400000Y-72964400D03*
D15*
X120900000Y-72964400D03*
%TD*%
D21*
%TO.C,D1*%
X145420000Y-97500000D03*
D22*
X155580000Y-97500000D03*
%TD*%
D15*
%TO.C,R12*%
X210000000Y-70500000D03*
D16*
X210000000Y-78120000D03*
%TD*%
D15*
%TO.C,R16*%
X195225151Y-92380000D03*
D16*
X195225151Y-100000000D03*
%TD*%
D15*
%TO.C,R13*%
X181310000Y-97500000D03*
D16*
X173690000Y-97500000D03*
%TD*%
D15*
%TO.C,C7*%
X124400000Y-78964400D03*
X119400000Y-78964400D03*
%TD*%
M02*
