%TF.GenerationSoftware,KiCad,Pcbnew,9.0.1*%
%TF.CreationDate,2025-06-10T13:28:14+03:00*%
%TF.ProjectId,diploma,6469706c-6f6d-4612-9e6b-696361645f70,rev?*%
%TF.SameCoordinates,Original*%
%TF.FileFunction,Copper,L2,Bot*%
%TF.FilePolarity,Positive*%
%FSLAX46Y46*%
G04 Gerber Fmt 4.6, Leading zero omitted, Abs format (unit mm)*
G04 Created by KiCad (PCBNEW 9.0.1) date 2025-06-10 13:28:14*
%MOMM*%
%LPD*%
G01*
G04 APERTURE LIST*
%TA.AperFunction,ComponentPad*%
%ADD10C,1.600000*%
%TD*%
%TA.AperFunction,ComponentPad*%
%ADD11O,1.600000X1.600000*%
%TD*%
%TA.AperFunction,ComponentPad*%
%ADD12O,1.150000X0.700000*%
%TD*%
%TA.AperFunction,ComponentPad*%
%ADD13C,0.650000*%
%TD*%
%TA.AperFunction,ComponentPad*%
%ADD14O,1.050000X1.650000*%
%TD*%
%TA.AperFunction,ComponentPad*%
%ADD15O,1.050000X2.050000*%
%TD*%
%TA.AperFunction,ComponentPad*%
%ADD16O,1.050000X1.645000*%
%TD*%
%TA.AperFunction,ComponentPad*%
%ADD17R,2.200000X2.200000*%
%TD*%
%TA.AperFunction,ComponentPad*%
%ADD18O,2.200000X2.200000*%
%TD*%
%TA.AperFunction,HeatsinkPad*%
%ADD19C,0.500000*%
%TD*%
%TA.AperFunction,HeatsinkPad*%
%ADD20R,2.900000X1.900000*%
%TD*%
%TA.AperFunction,ComponentPad*%
%ADD21R,1.600000X1.600000*%
%TD*%
%TA.AperFunction,ComponentPad*%
%ADD22C,2.000000*%
%TD*%
%TA.AperFunction,ComponentPad*%
%ADD23R,3.500000X3.500000*%
%TD*%
%TA.AperFunction,ComponentPad*%
%ADD24C,3.500000*%
%TD*%
%TA.AperFunction,ComponentPad*%
%ADD25R,1.700000X1.700000*%
%TD*%
%TA.AperFunction,ComponentPad*%
%ADD26C,1.700000*%
%TD*%
%TA.AperFunction,ComponentPad*%
%ADD27C,1.500000*%
%TD*%
%TA.AperFunction,ComponentPad*%
%ADD28R,1.500000X1.500000*%
%TD*%
%TA.AperFunction,ComponentPad*%
%ADD29C,1.778000*%
%TD*%
%TA.AperFunction,ComponentPad*%
%ADD30R,1.778000X1.778000*%
%TD*%
%TA.AperFunction,ComponentPad*%
%ADD31C,2.600000*%
%TD*%
%TA.AperFunction,ComponentPad*%
%ADD32R,1.108000X1.108000*%
%TD*%
%TA.AperFunction,ComponentPad*%
%ADD33C,1.108000*%
%TD*%
%TA.AperFunction,ViaPad*%
%ADD34C,0.800000*%
%TD*%
%TA.AperFunction,Conductor*%
%ADD35C,0.150000*%
%TD*%
G04 APERTURE END LIST*
D10*
%TO.P,R7,1*%
%TO.N,+5V*%
X131500000Y-92000000D03*
D11*
%TO.P,R7,2*%
%TO.N,Net-(R7-Pad2)*%
X139120000Y-92000000D03*
%TD*%
D10*
%TO.P,R15,1*%
%TO.N,Net-(JP1-C)*%
X203000000Y-70690000D03*
D11*
%TO.P,R15,2*%
%TO.N,Net-(U5-BOOT0)*%
X203000000Y-78310000D03*
%TD*%
D12*
%TO.P,P1,B1,GND_B*%
%TO.N,N/C*%
X129230750Y-138100000D03*
D13*
%TO.P,P1,B2,SSTXP2*%
%TO.N,unconnected-(P1-SSTXP2-PadB2)*%
X128530750Y-139000000D03*
%TO.P,P1,B3,SSTXN2*%
%TO.N,unconnected-(P1-SSTXN2-PadB3)*%
X127730750Y-139000000D03*
%TO.P,P1,B4,VBUS_B*%
%TO.N,N/C*%
X127330750Y-138100000D03*
%TO.P,P1,B5,CC2*%
X126880750Y-139000000D03*
%TO.P,P1,B6,DP2*%
%TO.N,unconnected-(P1-DP2-PadB6)*%
X126430750Y-138100000D03*
%TO.P,P1,B7,DN2*%
%TO.N,unconnected-(P1-DN2-PadB7)*%
X125630750Y-138100000D03*
%TO.P,P1,B8,SBU2*%
%TO.N,unconnected-(P1-SBU2-PadB8)*%
X125180750Y-139000000D03*
%TO.P,P1,B9,VBUS_B*%
%TO.N,N/C*%
X124730750Y-138100000D03*
%TO.P,P1,B10,SSRXN1*%
%TO.N,unconnected-(P1-SSRXN1-PadB10)*%
X124330750Y-139000000D03*
%TO.P,P1,B11,SSRNP1*%
%TO.N,unconnected-(P1-SSRNP1-PadB11)*%
X123530750Y-139000000D03*
D12*
%TO.P,P1,B12,GND_B*%
%TO.N,N/C*%
X122830750Y-138100000D03*
D14*
%TO.P,P1,SH1,SHIELD*%
%TO.N,Net-(C1-Pad1)*%
X121565750Y-136560000D03*
D15*
%TO.P,P1,SH2,SHIELD*%
X119955750Y-138900000D03*
%TO.P,P1,SH3,SHIELD*%
X119955750Y-142760000D03*
D16*
%TO.P,P1,SH4,SHIELD*%
X130495750Y-136560000D03*
D15*
%TO.P,P1,SH5,SHIELD*%
X132105750Y-138900000D03*
%TO.P,P1,SH6,SHIELD*%
X132105750Y-142760000D03*
%TD*%
D10*
%TO.P,R5,1*%
%TO.N,Net-(U1-~{STDBY})*%
X134690000Y-101000000D03*
D11*
%TO.P,R5,2*%
%TO.N,Net-(D2-K)*%
X142310000Y-101000000D03*
%TD*%
D17*
%TO.P,D5,1,K*%
%TO.N,Net-(D5-K)*%
X169200000Y-97500000D03*
D18*
%TO.P,D5,2,A*%
%TO.N,+3.3V*%
X159040000Y-97500000D03*
%TD*%
D10*
%TO.P,R10,1*%
%TO.N,GND*%
X169450000Y-74270000D03*
D11*
%TO.P,R10,2*%
%TO.N,Net-(R10-Pad2)*%
X169450000Y-66650000D03*
%TD*%
D19*
%TO.P,U1,9,EPAD*%
%TO.N,GND*%
X125500000Y-116400000D03*
X126700000Y-116400000D03*
X127900000Y-116400000D03*
D20*
X126700000Y-115700000D03*
D19*
X125500000Y-115000000D03*
X126700000Y-115000000D03*
X127900000Y-115000000D03*
%TD*%
D17*
%TO.P,D4,1,K*%
%TO.N,Net-(D4-K)*%
X169080000Y-101000000D03*
D18*
%TO.P,D4,2,A*%
%TO.N,+3.3V*%
X158920000Y-101000000D03*
%TD*%
D21*
%TO.P,C6,1*%
%TO.N,+5V*%
X134317621Y-86500000D03*
D10*
%TO.P,C6,2*%
%TO.N,GND*%
X136817621Y-86500000D03*
%TD*%
D22*
%TO.P,SW1,1,A*%
%TO.N,Net-(D1-A)*%
X128000000Y-52500000D03*
X121500000Y-52500000D03*
%TO.P,SW1,2,B*%
%TO.N,Net-(SW1A-B)*%
X128000000Y-48000000D03*
X121500000Y-48000000D03*
%TD*%
D10*
%TO.P,R4,1*%
%TO.N,Net-(D1-K)*%
X142310000Y-97500000D03*
D11*
%TO.P,R4,2*%
%TO.N,Net-(U1-~{CHRG})*%
X134690000Y-97500000D03*
%TD*%
D23*
%TO.P,BT1,1*%
%TO.N,Net-(D1-A)*%
X136500000Y-113000000D03*
D24*
%TO.P,BT1,2*%
%TO.N,Net-(U2-GND)*%
X208500000Y-113000000D03*
%TD*%
D10*
%TO.P,C13,1*%
%TO.N,Net-(C13-Pad1)*%
X200470151Y-88690000D03*
%TO.P,C13,2*%
%TO.N,GND*%
X200470151Y-83690000D03*
%TD*%
D21*
%TO.P,C14,1*%
%TO.N,+3.3V*%
X163500000Y-82794888D03*
D10*
%TO.P,C14,2*%
%TO.N,GND*%
X163500000Y-85294888D03*
%TD*%
%TO.P,C10,1*%
%TO.N,+3.3V*%
X120900000Y-56464400D03*
%TO.P,C10,2*%
%TO.N,GND*%
X125900000Y-56464400D03*
%TD*%
%TO.P,C20,1*%
%TO.N,Net-(U5-NRST)*%
X200225151Y-98500000D03*
%TO.P,C20,2*%
%TO.N,GND*%
X200225151Y-93500000D03*
%TD*%
D21*
%TO.P,C4,1*%
%TO.N,Net-(D1-A)*%
X119500000Y-111705113D03*
D10*
%TO.P,C4,2*%
%TO.N,Net-(C4-Pad2)*%
X119500000Y-109205113D03*
%TD*%
D25*
%TO.P,J2,1,Pin_1*%
%TO.N,Net-(J2-Pin_1)*%
X169525000Y-77750000D03*
D26*
%TO.P,J2,2,Pin_2*%
%TO.N,Net-(J2-Pin_2)*%
X169525000Y-80290000D03*
%TD*%
D10*
%TO.P,R8,1*%
%TO.N,Net-(C13-Pad1)*%
X195470151Y-90000000D03*
D11*
%TO.P,R8,2*%
%TO.N,GND*%
X195470151Y-82380000D03*
%TD*%
D27*
%TO.P,Y1,1,1*%
%TO.N,Net-(U5-PD1)*%
X174050000Y-88000000D03*
%TO.P,Y1,2,2*%
%TO.N,Net-(U5-PD0)*%
X178930000Y-88000000D03*
%TD*%
D10*
%TO.P,C11,1*%
%TO.N,GND*%
X196500000Y-69000000D03*
%TO.P,C11,2*%
%TO.N,+5V*%
X196500000Y-74000000D03*
%TD*%
%TO.P,R3,1*%
%TO.N,Net-(D1-A)*%
X131310000Y-110000000D03*
D11*
%TO.P,R3,2*%
%TO.N,Net-(U1-CE)*%
X123690000Y-110000000D03*
%TD*%
D21*
%TO.P,C9,1*%
%TO.N,+3.3V*%
X121900000Y-60964400D03*
D10*
%TO.P,C9,2*%
%TO.N,GND*%
X124400000Y-60964400D03*
%TD*%
%TO.P,C1,1*%
%TO.N,Net-(C1-Pad1)*%
X128000000Y-133500000D03*
%TO.P,C1,2*%
%TO.N,GND*%
X128000000Y-128500000D03*
%TD*%
%TO.P,R11,1*%
%TO.N,Net-(P1-CC1)*%
X125000000Y-134120000D03*
D11*
%TO.P,R11,2*%
%TO.N,GND*%
X125000000Y-126500000D03*
%TD*%
D10*
%TO.P,C16,1*%
%TO.N,GND*%
X187200000Y-80000000D03*
%TO.P,C16,2*%
%TO.N,Net-(U5-PC15)*%
X189700000Y-80000000D03*
%TD*%
%TO.P,C19,1*%
%TO.N,Net-(U5-PD0)*%
X184110600Y-89440000D03*
%TO.P,C19,2*%
%TO.N,GND*%
X184110600Y-86940000D03*
%TD*%
%TO.P,C17,1*%
%TO.N,GND*%
X189700000Y-87000000D03*
%TO.P,C17,2*%
%TO.N,Net-(U5-PC14)*%
X187200000Y-87000000D03*
%TD*%
D28*
%TO.P,U6,1,VDD*%
%TO.N,+5V*%
X189000000Y-74000000D03*
D27*
%TO.P,U6,2,SDA*%
%TO.N,Net-(U5-PA1)*%
X189000000Y-71460000D03*
%TO.P,U6,3,GND*%
%TO.N,GND*%
X189000000Y-68920000D03*
%TO.P,U6,4,GND*%
X189000000Y-66380000D03*
%TD*%
D23*
%TO.P,BT2,1*%
%TO.N,Net-(D1-A)*%
X136355000Y-134000000D03*
D24*
%TO.P,BT2,2*%
%TO.N,Net-(U2-GND)*%
X208355000Y-134000000D03*
%TD*%
D10*
%TO.P,C5,1*%
%TO.N,Net-(D1-A)*%
X122500000Y-106500000D03*
%TO.P,C5,2*%
%TO.N,Net-(C4-Pad2)*%
X122500000Y-101500000D03*
%TD*%
%TO.P,R1,1*%
%TO.N,Net-(C1-Pad1)*%
X131000000Y-133810000D03*
D11*
%TO.P,R1,2*%
%TO.N,GND*%
X131000000Y-126190000D03*
%TD*%
D10*
%TO.P,R2,1*%
%TO.N,Net-(U1-PROG)*%
X124190000Y-122500000D03*
D11*
%TO.P,R2,2*%
%TO.N,GND*%
X131810000Y-122500000D03*
%TD*%
D10*
%TO.P,C12,1*%
%TO.N,+5V*%
X135950000Y-65270000D03*
%TO.P,C12,2*%
%TO.N,GND*%
X135950000Y-60270000D03*
%TD*%
D29*
%TO.P,U7,AOT*%
%TO.N,N/C*%
X139450000Y-58770000D03*
%TO.P,U7,GND,GND*%
%TO.N,GND*%
X139450000Y-61310000D03*
%TO.P,U7,HD,HD*%
%TO.N,Net-(C13-Pad1)*%
X168939400Y-53690000D03*
%TO.P,U7,PWM,PWM*%
%TO.N,Net-(R9-Pad2)*%
X139450000Y-56230000D03*
%TO.P,U7,RX,RX*%
%TO.N,Net-(U5-PA10)*%
X168939400Y-61310000D03*
%TO.P,U7,SR*%
%TO.N,N/C*%
X168939400Y-56230000D03*
%TO.P,U7,TX,TX*%
%TO.N,Net-(U5-PA9)*%
X168939400Y-58770000D03*
D30*
%TO.P,U7,VIN,VIN*%
%TO.N,+5V*%
X139450000Y-63850000D03*
D29*
%TO.P,U7,VO,VO*%
%TO.N,Net-(R10-Pad2)*%
X168939400Y-63850000D03*
%TD*%
D17*
%TO.P,D2,1,K*%
%TO.N,Net-(D2-K)*%
X145420000Y-101000000D03*
D18*
%TO.P,D2,2,A*%
%TO.N,Net-(D1-A)*%
X155580000Y-101000000D03*
%TD*%
D10*
%TO.P,R9,1*%
%TO.N,GND*%
X128640000Y-56270000D03*
D11*
%TO.P,R9,2*%
%TO.N,Net-(R9-Pad2)*%
X136260000Y-56270000D03*
%TD*%
D31*
%TO.P,L1,1,1*%
%TO.N,Net-(SW1A-B)*%
X121500000Y-84000000D03*
%TO.P,L1,2,2*%
%TO.N,Net-(D3-A)*%
X121500000Y-87500000D03*
%TD*%
D32*
%TO.P,J1,1,Pin_1*%
%TO.N,Net-(J1-Pin_1)*%
X178989000Y-82500000D03*
D33*
%TO.P,J1,2,Pin_2*%
%TO.N,Net-(J1-Pin_2)*%
X177744000Y-82500000D03*
%TO.P,J1,3,Pin_3*%
%TO.N,+3.3V*%
X176500000Y-82500000D03*
%TO.P,J1,4,Pin_4*%
%TO.N,GND*%
X175255000Y-82500000D03*
%TD*%
D10*
%TO.P,R14,1*%
%TO.N,GND*%
X181310000Y-101000000D03*
D11*
%TO.P,R14,2*%
%TO.N,Net-(D4-K)*%
X173690000Y-101000000D03*
%TD*%
D10*
%TO.P,C15,1*%
%TO.N,+3.3V*%
X158500000Y-81250000D03*
%TO.P,C15,2*%
%TO.N,GND*%
X158500000Y-86250000D03*
%TD*%
D22*
%TO.P,SW3,1,1*%
%TO.N,Net-(U5-NRST)*%
X211975151Y-98250000D03*
X205475151Y-98250000D03*
%TO.P,SW3,2,2*%
%TO.N,GND*%
X211975151Y-93750000D03*
X205475151Y-93750000D03*
%TD*%
D21*
%TO.P,C2,1*%
%TO.N,Net-(D1-A)*%
X120000000Y-125000000D03*
D10*
%TO.P,C2,2*%
%TO.N,GND*%
X120000000Y-122500000D03*
%TD*%
D22*
%TO.P,SW2,1,1*%
%TO.N,Net-(C13-Pad1)*%
X212000000Y-88676626D03*
X205500000Y-88676626D03*
%TO.P,SW2,2,2*%
%TO.N,GND*%
X212000000Y-84176626D03*
X205500000Y-84176626D03*
%TD*%
D10*
%TO.P,C18,1*%
%TO.N,Net-(U5-PD1)*%
X169110600Y-86940000D03*
%TO.P,C18,2*%
%TO.N,GND*%
X169110600Y-89440000D03*
%TD*%
D21*
%TO.P,C8,1*%
%TO.N,+5V*%
X123400000Y-72964400D03*
D10*
%TO.P,C8,2*%
%TO.N,GND*%
X120900000Y-72964400D03*
%TD*%
D17*
%TO.P,D1,1,K*%
%TO.N,Net-(D1-K)*%
X145420000Y-97500000D03*
D18*
%TO.P,D1,2,A*%
%TO.N,Net-(D1-A)*%
X155580000Y-97500000D03*
%TD*%
D10*
%TO.P,R12,1*%
%TO.N,Net-(JP2-C)*%
X210000000Y-70500000D03*
D11*
%TO.P,R12,2*%
%TO.N,Net-(U5-PB2)*%
X210000000Y-78120000D03*
%TD*%
D10*
%TO.P,R16,1*%
%TO.N,GND*%
X195225151Y-92380000D03*
D11*
%TO.P,R16,2*%
%TO.N,Net-(U5-NRST)*%
X195225151Y-100000000D03*
%TD*%
D10*
%TO.P,R13,1*%
%TO.N,Net-(U5-PC13)*%
X181310000Y-97500000D03*
D11*
%TO.P,R13,2*%
%TO.N,Net-(D5-K)*%
X173690000Y-97500000D03*
%TD*%
D10*
%TO.P,C7,1*%
%TO.N,+5V*%
X124400000Y-78964400D03*
%TO.P,C7,2*%
%TO.N,GND*%
X119400000Y-78964400D03*
%TD*%
D34*
%TO.N,+5V*%
X128500000Y-79000000D03*
X123400000Y-69500000D03*
X121500000Y-69500000D03*
%TO.N,+3.3V*%
X180500000Y-72000000D03*
X177500000Y-76000000D03*
X134000000Y-66000000D03*
X206500000Y-68000000D03*
X178750000Y-74250000D03*
X172000000Y-77326900D03*
X132500000Y-64500000D03*
%TO.N,GND*%
X172000000Y-76000000D03*
X125000000Y-104000000D03*
X177500000Y-74500000D03*
X121500000Y-134500000D03*
X133500000Y-67000000D03*
X166500000Y-75500000D03*
X178500000Y-72939400D03*
X152500000Y-83000000D03*
X155000000Y-89000000D03*
X125500000Y-83000000D03*
%TO.N,Net-(D1-A)*%
X128500000Y-120500000D03*
X119500000Y-120500000D03*
%TO.N,Net-(U2-GND)*%
X121000000Y-119500000D03*
%TO.N,Net-(U5-PD1)*%
X185500000Y-73500000D03*
%TO.N,Net-(U5-PD0)*%
X185000000Y-76500000D03*
X183500000Y-78500000D03*
%TO.N,Net-(SW1A-B)*%
X129500000Y-81500000D03*
X116000000Y-80000000D03*
%TO.N,Net-(U2-OD)*%
X130405000Y-107500000D03*
X122500000Y-113500000D03*
%TO.N,Net-(U5-PB2)*%
X204000000Y-101000000D03*
X183000000Y-83000000D03*
X179000000Y-67500000D03*
%TO.N,Net-(U5-PC13)*%
X182750000Y-79750000D03*
X183000000Y-77500000D03*
%TO.N,Net-(U5-BOOT0)*%
X184000000Y-82500000D03*
X203000000Y-101000000D03*
X179500000Y-79500000D03*
%TD*%
D35*
%TO.N,+5V*%
X134317621Y-86500000D02*
X134317621Y-84817621D01*
X134317621Y-84817621D02*
X128500000Y-79000000D01*
X121500000Y-69500000D02*
X123400000Y-69500000D01*
%TO.N,+3.3V*%
X134000000Y-66000000D02*
X144500000Y-76500000D01*
X206500000Y-68000000D02*
X185000000Y-46500000D01*
X120900000Y-56464400D02*
X123464400Y-56464400D01*
X132000000Y-54500000D02*
X121500000Y-54500000D01*
X178750000Y-74250000D02*
X178750000Y-73750000D01*
X178750000Y-74250000D02*
X178750000Y-74750000D01*
X149250000Y-81250000D02*
X158500000Y-81250000D01*
X131500000Y-64500000D02*
X132500000Y-64500000D01*
X178750000Y-74750000D02*
X177500000Y-76000000D01*
X134500000Y-52000000D02*
X132000000Y-54500000D01*
X144500000Y-76500000D02*
X149250000Y-81250000D01*
X127000000Y-60000000D02*
X131500000Y-64500000D01*
X134500000Y-47000000D02*
X134500000Y-52000000D01*
X120900000Y-55100000D02*
X120900000Y-56464400D01*
X172000000Y-77326900D02*
X171173100Y-76500000D01*
X135000000Y-46500000D02*
X134500000Y-47000000D01*
X178750000Y-73750000D02*
X180500000Y-72000000D01*
X171173100Y-76500000D02*
X144500000Y-76500000D01*
X123464400Y-56464400D02*
X127000000Y-60000000D01*
X185000000Y-46500000D02*
X135000000Y-46500000D01*
X121500000Y-54500000D02*
X120900000Y-55100000D01*
%TO.N,GND*%
X133932200Y-64432200D02*
X134432200Y-63932200D01*
X188500000Y-78500000D02*
X192500000Y-78500000D01*
X186000000Y-88829400D02*
X186000000Y-91500000D01*
X128640000Y-58140000D02*
X129500000Y-59000000D01*
X178500000Y-72939400D02*
X178500000Y-73500000D01*
X131000000Y-132000000D02*
X132000000Y-131000000D01*
X172000000Y-76000000D02*
X167000000Y-76000000D01*
X132000000Y-127190000D02*
X131000000Y-126190000D01*
X169450000Y-74270000D02*
X143499016Y-74270000D01*
X134432200Y-63932200D02*
X135950000Y-62414400D01*
X159000000Y-93000000D02*
X158500000Y-92500000D01*
X192120000Y-92380000D02*
X191500000Y-93000000D01*
X189700000Y-88300000D02*
X186000000Y-92000000D01*
X186000000Y-92000000D02*
X158000000Y-92000000D01*
X178500000Y-73500000D02*
X177500000Y-74500000D01*
X189700000Y-87000000D02*
X189700000Y-88300000D01*
X158500000Y-92500000D02*
X158000000Y-92000000D01*
X186000000Y-91500000D02*
X157500000Y-91500000D01*
X119400000Y-78964400D02*
X133932200Y-64432200D01*
X157500000Y-91500000D02*
X155440000Y-89440000D01*
X181500000Y-47000000D02*
X135000000Y-47000000D01*
X195470151Y-82380000D02*
X196500000Y-83409849D01*
X135950000Y-62414400D02*
X135950000Y-60270000D01*
X192500000Y-78500000D02*
X192500000Y-91500000D01*
X191500000Y-92500000D02*
X158500000Y-92500000D01*
X124000000Y-132000000D02*
X125000000Y-132000000D01*
X155000000Y-89000000D02*
X155440000Y-89440000D01*
X125000000Y-126500000D02*
X125000000Y-132000000D01*
X196500000Y-93500000D02*
X159500000Y-93500000D01*
X152750000Y-86250000D02*
X158500000Y-86250000D01*
X195225151Y-92380000D02*
X192120000Y-92380000D01*
X133500000Y-67000000D02*
X150750000Y-84250000D01*
X191500000Y-93000000D02*
X159000000Y-93000000D01*
X150750000Y-84250000D02*
X152750000Y-86250000D01*
X196500000Y-69000000D02*
X196500000Y-62000000D01*
X143499016Y-74270000D02*
X133932200Y-64703184D01*
X125000000Y-132000000D02*
X131000000Y-132000000D01*
X121500000Y-134500000D02*
X124000000Y-132000000D01*
X196500000Y-83409849D02*
X196500000Y-93500000D01*
X159500000Y-93500000D02*
X159000000Y-93000000D01*
X152500000Y-83000000D02*
X151250000Y-84250000D01*
X155440000Y-89440000D02*
X169110600Y-89440000D01*
X125500000Y-83000000D02*
X125500000Y-103500000D01*
X135000000Y-47000000D02*
X135000000Y-53500000D01*
X192500000Y-91500000D02*
X191500000Y-92500000D01*
X167000000Y-76000000D02*
X166500000Y-75500000D01*
X184110600Y-86940000D02*
X186000000Y-88829400D01*
X188500000Y-78700000D02*
X188500000Y-78500000D01*
X125500000Y-103500000D02*
X125000000Y-104000000D01*
X135000000Y-53500000D02*
X129500000Y-59000000D01*
X132000000Y-131000000D02*
X132000000Y-127190000D01*
X196500000Y-62000000D02*
X181500000Y-47000000D01*
X128640000Y-56270000D02*
X128640000Y-58140000D01*
X187200000Y-80000000D02*
X188500000Y-78700000D01*
X151250000Y-84250000D02*
X150750000Y-84250000D01*
X133932200Y-64703184D02*
X133932200Y-64432200D01*
X129500000Y-59000000D02*
X134432200Y-63932200D01*
X158000000Y-92000000D02*
X157500000Y-91500000D01*
%TO.N,Net-(D1-A)*%
X119500000Y-120500000D02*
X128500000Y-120500000D01*
%TO.N,Net-(U2-GND)*%
X123026000Y-123526000D02*
X121500000Y-122000000D01*
X118500000Y-121000000D02*
X118626000Y-121126000D01*
X121000000Y-119500000D02*
X118500000Y-119500000D01*
X118500000Y-119500000D02*
X118500000Y-121000000D01*
X132234984Y-123526000D02*
X132260984Y-123500000D01*
X197855000Y-123500000D02*
X208355000Y-134000000D01*
X125000000Y-123500000D02*
X131359016Y-123500000D01*
X132260984Y-123500000D02*
X197855000Y-123500000D01*
X124974000Y-123526000D02*
X125000000Y-123500000D01*
X121126000Y-121126000D02*
X121500000Y-121500000D01*
X131359016Y-123500000D02*
X131385016Y-123526000D01*
X123026000Y-123526000D02*
X124974000Y-123526000D01*
X118626000Y-121126000D02*
X121126000Y-121126000D01*
X121500000Y-122000000D02*
X121500000Y-121500000D01*
X131385016Y-123526000D02*
X132234984Y-123526000D01*
%TO.N,Net-(C13-Pad1)*%
X193000000Y-78500000D02*
X192000000Y-77500000D01*
X172500000Y-57250600D02*
X168939400Y-53690000D01*
X172500000Y-66500000D02*
X172500000Y-57250600D01*
X192000000Y-77500000D02*
X186500000Y-77500000D01*
X193000000Y-87529849D02*
X193000000Y-78500000D01*
X186500000Y-73000000D02*
X180000000Y-66500000D01*
X186500000Y-77500000D02*
X186500000Y-73000000D01*
X195470151Y-90000000D02*
X193000000Y-87529849D01*
X180000000Y-66500000D02*
X172500000Y-66500000D01*
%TO.N,Net-(U5-PD1)*%
X186000000Y-82000000D02*
X181500000Y-86500000D01*
X175550000Y-86500000D02*
X174050000Y-88000000D01*
X186000000Y-76000000D02*
X186000000Y-82000000D01*
X185500000Y-75500000D02*
X186000000Y-76000000D01*
X181500000Y-86500000D02*
X175550000Y-86500000D01*
X185500000Y-73500000D02*
X185500000Y-75500000D01*
%TO.N,Net-(U5-PD0)*%
X183500000Y-78500000D02*
X183500000Y-78000000D01*
X183500000Y-78000000D02*
X185000000Y-76500000D01*
%TO.N,Net-(SW1A-B)*%
X117000000Y-81000000D02*
X116000000Y-80000000D01*
X129500000Y-81500000D02*
X129000000Y-81000000D01*
X129000000Y-81000000D02*
X117000000Y-81000000D01*
%TO.N,Net-(U2-OD)*%
X130405000Y-107500000D02*
X129905000Y-108000000D01*
X128000000Y-108000000D02*
X122500000Y-113500000D01*
X129905000Y-108000000D02*
X128000000Y-108000000D01*
%TO.N,Net-(U5-PB2)*%
X203500000Y-80000000D02*
X203500000Y-100500000D01*
X210000000Y-78120000D02*
X205380000Y-78120000D01*
X182000000Y-69500000D02*
X180500000Y-68000000D01*
X183000000Y-83000000D02*
X183000000Y-81000000D01*
X183000000Y-81000000D02*
X182500000Y-80500000D01*
X180000000Y-67500000D02*
X179000000Y-67500000D01*
X205380000Y-78120000D02*
X203500000Y-80000000D01*
X182000000Y-80000000D02*
X182000000Y-69500000D01*
X203500000Y-100500000D02*
X204000000Y-101000000D01*
X182500000Y-80500000D02*
X182000000Y-80000000D01*
X180500000Y-68000000D02*
X180000000Y-67500000D01*
%TO.N,Net-(U5-PC13)*%
X182474000Y-79474000D02*
X182474000Y-78026000D01*
X182750000Y-79750000D02*
X182474000Y-79474000D01*
X182474000Y-78026000D02*
X183000000Y-77500000D01*
%TO.N,Net-(U5-BOOT0)*%
X179500000Y-80500000D02*
X183000000Y-84000000D01*
X179500000Y-79500000D02*
X179500000Y-80500000D01*
X203000000Y-78310000D02*
X203000000Y-101000000D01*
X184000000Y-83000000D02*
X184000000Y-82500000D01*
X183000000Y-84000000D02*
X184000000Y-83000000D01*
%TO.N,Net-(C1-Pad1)*%
X121565750Y-136560000D02*
X122022484Y-136103266D01*
X122022484Y-136103266D02*
X125396734Y-136103266D01*
X125396734Y-136103266D02*
X128000000Y-133500000D01*
%TD*%
M02*
