%TF.GenerationSoftware,KiCad,Pcbnew,9.0.1*%
%TF.CreationDate,2025-06-10T13:28:14+03:00*%
%TF.ProjectId,diploma,6469706c-6f6d-4612-9e6b-696361645f70,rev?*%
%TF.SameCoordinates,Original*%
%TF.FileFunction,Paste,Top*%
%TF.FilePolarity,Positive*%
%FSLAX46Y46*%
G04 Gerber Fmt 4.6, Leading zero omitted, Abs format (unit mm)*
G04 Created by KiCad (PCBNEW 9.0.1) date 2025-06-10 13:28:14*
%MOMM*%
%LPD*%
G01*
G04 APERTURE LIST*
G04 Aperture macros list*
%AMRoundRect*
0 Rectangle with rounded corners*
0 $1 Rounding radius*
0 $2 $3 $4 $5 $6 $7 $8 $9 X,Y pos of 4 corners*
0 Add a 4 corners polygon primitive as box body*
4,1,4,$2,$3,$4,$5,$6,$7,$8,$9,$2,$3,0*
0 Add four circle primitives for the rounded corners*
1,1,$1+$1,$2,$3*
1,1,$1+$1,$4,$5*
1,1,$1+$1,$6,$7*
1,1,$1+$1,$8,$9*
0 Add four rect primitives between the rounded corners*
20,1,$1+$1,$2,$3,$4,$5,0*
20,1,$1+$1,$4,$5,$6,$7,0*
20,1,$1+$1,$6,$7,$8,$9,0*
20,1,$1+$1,$8,$9,$2,$3,0*%
G04 Aperture macros list end*
%ADD10RoundRect,0.250000X0.400000X0.700000X-0.400000X0.700000X-0.400000X-0.700000X0.400000X-0.700000X0*%
%ADD11RoundRect,0.250000X0.750000X0.700000X-0.750000X0.700000X-0.750000X-0.700000X0.750000X-0.700000X0*%
%ADD12R,1.900000X2.400000*%
%ADD13R,0.350000X0.600000*%
%ADD14RoundRect,0.250000X0.440000X-0.255000X0.440000X0.255000X-0.440000X0.255000X-0.440000X-0.255000X0*%
%ADD15RoundRect,0.150000X0.150000X-0.825000X0.150000X0.825000X-0.150000X0.825000X-0.150000X-0.825000X0*%
%ADD16RoundRect,0.075000X0.662500X0.075000X-0.662500X0.075000X-0.662500X-0.075000X0.662500X-0.075000X0*%
%ADD17RoundRect,0.075000X0.075000X0.662500X-0.075000X0.662500X-0.075000X-0.662500X0.075000X-0.662500X0*%
%ADD18RoundRect,0.150000X-0.150000X0.512500X-0.150000X-0.512500X0.150000X-0.512500X0.150000X0.512500X0*%
%ADD19RoundRect,0.250000X0.650000X-1.000000X0.650000X1.000000X-0.650000X1.000000X-0.650000X-1.000000X0*%
%ADD20RoundRect,0.150000X0.150000X-0.512500X0.150000X0.512500X-0.150000X0.512500X-0.150000X-0.512500X0*%
G04 APERTURE END LIST*
D10*
%TO.C,RV1*%
X141850000Y-92050000D03*
D11*
X143000000Y-86950000D03*
D10*
X144150000Y-92050000D03*
%TD*%
D12*
%TO.C,Y2*%
X190500000Y-83500000D03*
X186400000Y-83500000D03*
%TD*%
D13*
%TO.C,P1*%
X123280750Y-136960000D03*
X123780750Y-136960000D03*
X124280750Y-136960000D03*
X124780750Y-136960000D03*
X125280750Y-136960000D03*
X125780750Y-136960000D03*
X126280750Y-136960000D03*
X126780750Y-136960000D03*
X127280750Y-136960000D03*
X127780750Y-136960000D03*
X128280750Y-136960000D03*
X128780750Y-136960000D03*
%TD*%
D14*
%TO.C,U1*%
X125875000Y-116300000D03*
X127525000Y-116300000D03*
X125875000Y-115100000D03*
X127525000Y-115100000D03*
D15*
X124795000Y-118175000D03*
X126065000Y-118175000D03*
X127335000Y-118175000D03*
X128605000Y-118175000D03*
X128605000Y-113225000D03*
X127335000Y-113225000D03*
X126065000Y-113225000D03*
X124795000Y-113225000D03*
%TD*%
D16*
%TO.C,U5*%
X182500000Y-76439400D03*
X182500000Y-75939400D03*
X182500000Y-75439400D03*
X182500000Y-74939400D03*
X182500000Y-74439400D03*
X182500000Y-73939400D03*
X182500000Y-73439400D03*
X182500000Y-72939400D03*
X182500000Y-72439400D03*
X182500000Y-71939400D03*
X182500000Y-71439400D03*
X182500000Y-70939400D03*
D17*
X181087500Y-69526900D03*
X180587500Y-69526900D03*
X180087500Y-69526900D03*
X179587500Y-69526900D03*
X179087500Y-69526900D03*
X178587500Y-69526900D03*
X178087500Y-69526900D03*
X177587500Y-69526900D03*
X177087500Y-69526900D03*
X176587500Y-69526900D03*
X176087500Y-69526900D03*
X175587500Y-69526900D03*
D16*
X174175000Y-70939400D03*
X174175000Y-71439400D03*
X174175000Y-71939400D03*
X174175000Y-72439400D03*
X174175000Y-72939400D03*
X174175000Y-73439400D03*
X174175000Y-73939400D03*
X174175000Y-74439400D03*
X174175000Y-74939400D03*
X174175000Y-75439400D03*
X174175000Y-75939400D03*
X174175000Y-76439400D03*
D17*
X175587500Y-77851900D03*
X176087500Y-77851900D03*
X176587500Y-77851900D03*
X177087500Y-77851900D03*
X177587500Y-77851900D03*
X178087500Y-77851900D03*
X178587500Y-77851900D03*
X179087500Y-77851900D03*
X179587500Y-77851900D03*
X180087500Y-77851900D03*
X180587500Y-77851900D03*
X181087500Y-77851900D03*
%TD*%
D15*
%TO.C,Q1*%
X126595000Y-105975000D03*
X127865000Y-105975000D03*
X129135000Y-105975000D03*
X130405000Y-105975000D03*
X130405000Y-101025000D03*
X129135000Y-101025000D03*
X127865000Y-101025000D03*
X126595000Y-101025000D03*
%TD*%
D18*
%TO.C,U2*%
X121450000Y-115500000D03*
X120500000Y-115500000D03*
X119550000Y-115500000D03*
X119550000Y-117775000D03*
X120500000Y-117775000D03*
X121450000Y-117775000D03*
%TD*%
D19*
%TO.C,D3*%
X127000000Y-93500000D03*
X127000000Y-89500000D03*
%TD*%
D20*
%TO.C,U3*%
X127050000Y-85637500D03*
X128000000Y-85637500D03*
X128950000Y-85637500D03*
X128950000Y-83362500D03*
X128000000Y-83362500D03*
X127050000Y-83362500D03*
%TD*%
D19*
%TO.C,D6*%
X117500000Y-132000000D03*
X117500000Y-128000000D03*
%TD*%
D20*
%TO.C,U4*%
X121500000Y-67775000D03*
X122450000Y-67775000D03*
X123400000Y-67775000D03*
X123400000Y-65500000D03*
X121500000Y-65500000D03*
%TD*%
M02*
