%TF.GenerationSoftware,KiCad,Pcbnew,9.0.1*%
%TF.CreationDate,2025-06-10T13:28:14+03:00*%
%TF.ProjectId,diploma,6469706c-6f6d-4612-9e6b-696361645f70,rev?*%
%TF.SameCoordinates,Original*%
%TF.FileFunction,Copper,L1,Top*%
%TF.FilePolarity,Positive*%
%FSLAX46Y46*%
G04 Gerber Fmt 4.6, Leading zero omitted, Abs format (unit mm)*
G04 Created by KiCad (PCBNEW 9.0.1) date 2025-06-10 13:28:14*
%MOMM*%
%LPD*%
G01*
G04 APERTURE LIST*
G04 Aperture macros list*
%AMRoundRect*
0 Rectangle with rounded corners*
0 $1 Rounding radius*
0 $2 $3 $4 $5 $6 $7 $8 $9 X,Y pos of 4 corners*
0 Add a 4 corners polygon primitive as box body*
4,1,4,$2,$3,$4,$5,$6,$7,$8,$9,$2,$3,0*
0 Add four circle primitives for the rounded corners*
1,1,$1+$1,$2,$3*
1,1,$1+$1,$4,$5*
1,1,$1+$1,$6,$7*
1,1,$1+$1,$8,$9*
0 Add four rect primitives between the rounded corners*
20,1,$1+$1,$2,$3,$4,$5,0*
20,1,$1+$1,$4,$5,$6,$7,0*
20,1,$1+$1,$6,$7,$8,$9,0*
20,1,$1+$1,$8,$9,$2,$3,0*%
G04 Aperture macros list end*
%TA.AperFunction,EtchedComponent*%
%ADD10C,0.000000*%
%TD*%
%TA.AperFunction,SMDPad,CuDef*%
%ADD11RoundRect,0.250000X0.400000X0.700000X-0.400000X0.700000X-0.400000X-0.700000X0.400000X-0.700000X0*%
%TD*%
%TA.AperFunction,SMDPad,CuDef*%
%ADD12RoundRect,0.250000X0.750000X0.700000X-0.750000X0.700000X-0.750000X-0.700000X0.750000X-0.700000X0*%
%TD*%
%TA.AperFunction,SMDPad,CuDef*%
%ADD13R,1.900000X2.400000*%
%TD*%
%TA.AperFunction,ComponentPad*%
%ADD14C,1.600000*%
%TD*%
%TA.AperFunction,ComponentPad*%
%ADD15O,1.600000X1.600000*%
%TD*%
%TA.AperFunction,SMDPad,CuDef*%
%ADD16R,0.350000X0.600000*%
%TD*%
%TA.AperFunction,ComponentPad*%
%ADD17O,1.150000X0.700000*%
%TD*%
%TA.AperFunction,ComponentPad*%
%ADD18C,0.650000*%
%TD*%
%TA.AperFunction,ComponentPad*%
%ADD19O,1.050000X1.650000*%
%TD*%
%TA.AperFunction,ComponentPad*%
%ADD20O,1.050000X2.050000*%
%TD*%
%TA.AperFunction,ComponentPad*%
%ADD21O,1.050000X1.645000*%
%TD*%
%TA.AperFunction,ComponentPad*%
%ADD22R,2.200000X2.200000*%
%TD*%
%TA.AperFunction,ComponentPad*%
%ADD23O,2.200000X2.200000*%
%TD*%
%TA.AperFunction,SMDPad,CuDef*%
%ADD24RoundRect,0.150000X0.150000X-0.825000X0.150000X0.825000X-0.150000X0.825000X-0.150000X-0.825000X0*%
%TD*%
%TA.AperFunction,HeatsinkPad*%
%ADD25C,0.500000*%
%TD*%
%TA.AperFunction,HeatsinkPad*%
%ADD26R,3.300000X2.410000*%
%TD*%
%TA.AperFunction,SMDPad,CuDef*%
%ADD27RoundRect,0.075000X0.662500X0.075000X-0.662500X0.075000X-0.662500X-0.075000X0.662500X-0.075000X0*%
%TD*%
%TA.AperFunction,SMDPad,CuDef*%
%ADD28RoundRect,0.075000X0.075000X0.662500X-0.075000X0.662500X-0.075000X-0.662500X0.075000X-0.662500X0*%
%TD*%
%TA.AperFunction,ComponentPad*%
%ADD29R,1.600000X1.600000*%
%TD*%
%TA.AperFunction,ComponentPad*%
%ADD30C,2.000000*%
%TD*%
%TA.AperFunction,ComponentPad*%
%ADD31R,3.500000X3.500000*%
%TD*%
%TA.AperFunction,ComponentPad*%
%ADD32C,3.500000*%
%TD*%
%TA.AperFunction,SMDPad,CuDef*%
%ADD33RoundRect,0.150000X-0.150000X0.512500X-0.150000X-0.512500X0.150000X-0.512500X0.150000X0.512500X0*%
%TD*%
%TA.AperFunction,ComponentPad*%
%ADD34R,1.700000X1.700000*%
%TD*%
%TA.AperFunction,ComponentPad*%
%ADD35C,1.700000*%
%TD*%
%TA.AperFunction,ComponentPad*%
%ADD36C,1.500000*%
%TD*%
%TA.AperFunction,ComponentPad*%
%ADD37R,1.500000X1.500000*%
%TD*%
%TA.AperFunction,SMDPad,CuDef*%
%ADD38RoundRect,0.250000X0.650000X-1.000000X0.650000X1.000000X-0.650000X1.000000X-0.650000X-1.000000X0*%
%TD*%
%TA.AperFunction,SMDPad,CuDef*%
%ADD39RoundRect,0.150000X0.150000X-0.512500X0.150000X0.512500X-0.150000X0.512500X-0.150000X-0.512500X0*%
%TD*%
%TA.AperFunction,SMDPad,CuDef*%
%ADD40R,1.000000X1.500000*%
%TD*%
%TA.AperFunction,ComponentPad*%
%ADD41C,1.778000*%
%TD*%
%TA.AperFunction,ComponentPad*%
%ADD42R,1.778000X1.778000*%
%TD*%
%TA.AperFunction,ComponentPad*%
%ADD43C,2.600000*%
%TD*%
%TA.AperFunction,ComponentPad*%
%ADD44R,1.108000X1.108000*%
%TD*%
%TA.AperFunction,ComponentPad*%
%ADD45C,1.108000*%
%TD*%
%TA.AperFunction,ViaPad*%
%ADD46C,0.800000*%
%TD*%
%TA.AperFunction,Conductor*%
%ADD47C,0.150000*%
%TD*%
G04 APERTURE END LIST*
D10*
%TA.AperFunction,EtchedComponent*%
%TO.C,JP1*%
G36*
X202600000Y-68300000D02*
G01*
X202100000Y-68300000D01*
X202100000Y-67700000D01*
X202600000Y-67700000D01*
X202600000Y-68300000D01*
G37*
%TD.AperFunction*%
%TA.AperFunction,EtchedComponent*%
%TO.C,JP2*%
G36*
X209300000Y-68300000D02*
G01*
X208800000Y-68300000D01*
X208800000Y-67700000D01*
X209300000Y-67700000D01*
X209300000Y-68300000D01*
G37*
%TD.AperFunction*%
%TD*%
D11*
%TO.P,RV1,1,1*%
%TO.N,Net-(R7-Pad2)*%
X141850000Y-92050000D03*
D12*
%TO.P,RV1,2,2*%
%TO.N,Net-(U3-FB)*%
X143000000Y-86950000D03*
D11*
%TO.P,RV1,3,3*%
%TO.N,GND*%
X144150000Y-92050000D03*
%TD*%
D13*
%TO.P,Y2,1,1*%
%TO.N,Net-(U5-PC15)*%
X190500000Y-83500000D03*
%TO.P,Y2,2,2*%
%TO.N,Net-(U5-PC14)*%
X186400000Y-83500000D03*
%TD*%
D14*
%TO.P,R7,1*%
%TO.N,+5V*%
X131500000Y-92000000D03*
D15*
%TO.P,R7,2*%
%TO.N,Net-(R7-Pad2)*%
X139120000Y-92000000D03*
%TD*%
D14*
%TO.P,R15,1*%
%TO.N,Net-(JP1-C)*%
X203000000Y-70690000D03*
D15*
%TO.P,R15,2*%
%TO.N,Net-(U5-BOOT0)*%
X203000000Y-78310000D03*
%TD*%
D16*
%TO.P,P1,A1,GND_A*%
%TO.N,GND*%
X123280750Y-136960000D03*
%TO.P,P1,A2,SSTXP1*%
%TO.N,unconnected-(P1-SSTXP1-PadA2)*%
X123780750Y-136960000D03*
%TO.P,P1,A3,SSTXN1*%
%TO.N,unconnected-(P1-SSTXN1-PadA3)*%
X124280750Y-136960000D03*
%TO.P,P1,A4,VBUS_A*%
%TO.N,Net-(D1-A)*%
X124780750Y-136960000D03*
%TO.P,P1,A5,CC1*%
%TO.N,Net-(P1-CC1)*%
X125280750Y-136960000D03*
%TO.P,P1,A6,DP1*%
%TO.N,unconnected-(P1-DP1-PadA6)*%
X125780750Y-136960000D03*
%TO.P,P1,A7,DN1*%
%TO.N,unconnected-(P1-DN1-PadA7)*%
X126280750Y-136960000D03*
%TO.P,P1,A8,SBU1*%
%TO.N,unconnected-(P1-SBU1-PadA8)*%
X126780750Y-136960000D03*
%TO.P,P1,A9,VBUS_A*%
%TO.N,Net-(D1-A)*%
X127280750Y-136960000D03*
%TO.P,P1,A10,SSRXN2*%
%TO.N,unconnected-(P1-SSRXN2-PadA10)*%
X127780750Y-136960000D03*
%TO.P,P1,A11,SSRXP2*%
%TO.N,unconnected-(P1-SSRXP2-PadA11)*%
X128280750Y-136960000D03*
%TO.P,P1,A12,GND_A*%
%TO.N,GND*%
X128780750Y-136960000D03*
D17*
%TO.P,P1,B1,GND_B*%
%TO.N,N/C*%
X129230750Y-138100000D03*
D18*
%TO.P,P1,B2,SSTXP2*%
%TO.N,unconnected-(P1-SSTXP2-PadB2)*%
X128530750Y-139000000D03*
%TO.P,P1,B3,SSTXN2*%
%TO.N,unconnected-(P1-SSTXN2-PadB3)*%
X127730750Y-139000000D03*
%TO.P,P1,B4,VBUS_B*%
%TO.N,N/C*%
X127330750Y-138100000D03*
%TO.P,P1,B5,CC2*%
X126880750Y-139000000D03*
%TO.P,P1,B6,DP2*%
%TO.N,unconnected-(P1-DP2-PadB6)*%
X126430750Y-138100000D03*
%TO.P,P1,B7,DN2*%
%TO.N,unconnected-(P1-DN2-PadB7)*%
X125630750Y-138100000D03*
%TO.P,P1,B8,SBU2*%
%TO.N,unconnected-(P1-SBU2-PadB8)*%
X125180750Y-139000000D03*
%TO.P,P1,B9,VBUS_B*%
%TO.N,N/C*%
X124730750Y-138100000D03*
%TO.P,P1,B10,SSRXN1*%
%TO.N,unconnected-(P1-SSRXN1-PadB10)*%
X124330750Y-139000000D03*
%TO.P,P1,B11,SSRNP1*%
%TO.N,unconnected-(P1-SSRNP1-PadB11)*%
X123530750Y-139000000D03*
D17*
%TO.P,P1,B12,GND_B*%
%TO.N,N/C*%
X122830750Y-138100000D03*
D19*
%TO.P,P1,SH1,SHIELD*%
%TO.N,Net-(C1-Pad1)*%
X121565750Y-136560000D03*
D20*
%TO.P,P1,SH2,SHIELD*%
X119955750Y-138900000D03*
%TO.P,P1,SH3,SHIELD*%
X119955750Y-142760000D03*
D21*
%TO.P,P1,SH4,SHIELD*%
X130495750Y-136560000D03*
D20*
%TO.P,P1,SH5,SHIELD*%
X132105750Y-138900000D03*
%TO.P,P1,SH6,SHIELD*%
X132105750Y-142760000D03*
%TD*%
D14*
%TO.P,R5,1*%
%TO.N,Net-(U1-~{STDBY})*%
X134690000Y-101000000D03*
D15*
%TO.P,R5,2*%
%TO.N,Net-(D2-K)*%
X142310000Y-101000000D03*
%TD*%
D22*
%TO.P,D5,1,K*%
%TO.N,Net-(D5-K)*%
X169200000Y-97500000D03*
D23*
%TO.P,D5,2,A*%
%TO.N,+3.3V*%
X159040000Y-97500000D03*
%TD*%
D14*
%TO.P,R10,1*%
%TO.N,GND*%
X169450000Y-74270000D03*
D15*
%TO.P,R10,2*%
%TO.N,Net-(R10-Pad2)*%
X169450000Y-66650000D03*
%TD*%
D24*
%TO.P,U1,1,TEMP*%
%TO.N,GND*%
X124795000Y-118175000D03*
%TO.P,U1,2,PROG*%
%TO.N,Net-(U1-PROG)*%
X126065000Y-118175000D03*
%TO.P,U1,3,GND*%
%TO.N,GND*%
X127335000Y-118175000D03*
%TO.P,U1,4,V_{CC}*%
%TO.N,Net-(D1-A)*%
X128605000Y-118175000D03*
%TO.P,U1,5,BAT*%
X128605000Y-113225000D03*
%TO.P,U1,6,~{STDBY}*%
%TO.N,Net-(U1-~{STDBY})*%
X127335000Y-113225000D03*
%TO.P,U1,7,~{CHRG}*%
%TO.N,Net-(U1-~{CHRG})*%
X126065000Y-113225000D03*
%TO.P,U1,8,CE*%
%TO.N,Net-(U1-CE)*%
X124795000Y-113225000D03*
D25*
%TO.P,U1,9,EPAD*%
%TO.N,GND*%
X125500000Y-116400000D03*
X126700000Y-116400000D03*
X127900000Y-116400000D03*
D26*
X126700000Y-115700000D03*
D25*
X125500000Y-115000000D03*
X126700000Y-115000000D03*
X127900000Y-115000000D03*
%TD*%
D22*
%TO.P,D4,1,K*%
%TO.N,Net-(D4-K)*%
X169080000Y-101000000D03*
D23*
%TO.P,D4,2,A*%
%TO.N,+3.3V*%
X158920000Y-101000000D03*
%TD*%
D27*
%TO.P,U5,1,VBAT*%
%TO.N,unconnected-(U5-VBAT-Pad1)*%
X182500000Y-76439400D03*
%TO.P,U5,2,PC13*%
%TO.N,Net-(U5-PC13)*%
X182500000Y-75939400D03*
%TO.P,U5,3,PC14*%
%TO.N,Net-(U5-PC14)*%
X182500000Y-75439400D03*
%TO.P,U5,4,PC15*%
%TO.N,Net-(U5-PC15)*%
X182500000Y-74939400D03*
%TO.P,U5,5,PD0*%
%TO.N,Net-(U5-PD0)*%
X182500000Y-74439400D03*
%TO.P,U5,6,PD1*%
%TO.N,Net-(U5-PD1)*%
X182500000Y-73939400D03*
%TO.P,U5,7,NRST*%
%TO.N,Net-(U5-NRST)*%
X182500000Y-73439400D03*
%TO.P,U5,8,VSSA*%
%TO.N,GND*%
X182500000Y-72939400D03*
%TO.P,U5,9,VDDA*%
%TO.N,+3.3V*%
X182500000Y-72439400D03*
%TO.P,U5,10,PA0*%
%TO.N,unconnected-(U5-PA0-Pad10)*%
X182500000Y-71939400D03*
%TO.P,U5,11,PA1*%
%TO.N,Net-(U5-PA1)*%
X182500000Y-71439400D03*
%TO.P,U5,12,PA2*%
%TO.N,unconnected-(U5-PA2-Pad12)*%
X182500000Y-70939400D03*
D28*
%TO.P,U5,13,PA3*%
%TO.N,unconnected-(U5-PA3-Pad13)*%
X181087500Y-69526900D03*
%TO.P,U5,14,PA4*%
%TO.N,unconnected-(U5-PA4-Pad14)*%
X180587500Y-69526900D03*
%TO.P,U5,15,PA5*%
%TO.N,unconnected-(U5-PA5-Pad15)*%
X180087500Y-69526900D03*
%TO.P,U5,16,PA6*%
%TO.N,unconnected-(U5-PA6-Pad16)*%
X179587500Y-69526900D03*
%TO.P,U5,17,PA7*%
%TO.N,unconnected-(U5-PA7-Pad17)*%
X179087500Y-69526900D03*
%TO.P,U5,18,PB0*%
%TO.N,unconnected-(U5-PB0-Pad18)*%
X178587500Y-69526900D03*
%TO.P,U5,19,PB1*%
%TO.N,unconnected-(U5-PB1-Pad19)*%
X178087500Y-69526900D03*
%TO.P,U5,20,PB2*%
%TO.N,Net-(U5-PB2)*%
X177587500Y-69526900D03*
%TO.P,U5,21,PB10*%
%TO.N,unconnected-(U5-PB10-Pad21)*%
X177087500Y-69526900D03*
%TO.P,U5,22,PB11*%
%TO.N,unconnected-(U5-PB11-Pad22)*%
X176587500Y-69526900D03*
%TO.P,U5,23,VSS*%
%TO.N,GND*%
X176087500Y-69526900D03*
%TO.P,U5,24,VDD*%
%TO.N,+3.3V*%
X175587500Y-69526900D03*
D27*
%TO.P,U5,25,PB12*%
%TO.N,unconnected-(U5-PB12-Pad25)*%
X174175000Y-70939400D03*
%TO.P,U5,26,PB13*%
%TO.N,unconnected-(U5-PB13-Pad26)*%
X174175000Y-71439400D03*
%TO.P,U5,27,PB14*%
%TO.N,unconnected-(U5-PB14-Pad27)*%
X174175000Y-71939400D03*
%TO.P,U5,28,PB15*%
%TO.N,unconnected-(U5-PB15-Pad28)*%
X174175000Y-72439400D03*
%TO.P,U5,29,PA8*%
%TO.N,unconnected-(U5-PA8-Pad29)*%
X174175000Y-72939400D03*
%TO.P,U5,30,PA9*%
%TO.N,Net-(U5-PA9)*%
X174175000Y-73439400D03*
%TO.P,U5,31,PA10*%
%TO.N,Net-(U5-PA10)*%
X174175000Y-73939400D03*
%TO.P,U5,32,PA11*%
%TO.N,unconnected-(U5-PA11-Pad32)*%
X174175000Y-74439400D03*
%TO.P,U5,33,PA12*%
%TO.N,unconnected-(U5-PA12-Pad33)*%
X174175000Y-74939400D03*
%TO.P,U5,34,PA13*%
%TO.N,Net-(J2-Pin_1)*%
X174175000Y-75439400D03*
%TO.P,U5,35,VSS*%
%TO.N,GND*%
X174175000Y-75939400D03*
%TO.P,U5,36,VDD*%
%TO.N,+3.3V*%
X174175000Y-76439400D03*
D28*
%TO.P,U5,37,PA14*%
%TO.N,Net-(J2-Pin_2)*%
X175587500Y-77851900D03*
%TO.P,U5,38,PA15*%
%TO.N,unconnected-(U5-PA15-Pad38)*%
X176087500Y-77851900D03*
%TO.P,U5,39,PB3*%
%TO.N,unconnected-(U5-PB3-Pad39)*%
X176587500Y-77851900D03*
%TO.P,U5,40,PB4*%
%TO.N,unconnected-(U5-PB4-Pad40)*%
X177087500Y-77851900D03*
%TO.P,U5,41,PB5*%
%TO.N,unconnected-(U5-PB5-Pad41)*%
X177587500Y-77851900D03*
%TO.P,U5,42,PB6*%
%TO.N,Net-(J1-Pin_2)*%
X178087500Y-77851900D03*
%TO.P,U5,43,PB7*%
%TO.N,Net-(J1-Pin_1)*%
X178587500Y-77851900D03*
%TO.P,U5,44,BOOT0*%
%TO.N,Net-(U5-BOOT0)*%
X179087500Y-77851900D03*
%TO.P,U5,45,PB8*%
%TO.N,unconnected-(U5-PB8-Pad45)*%
X179587500Y-77851900D03*
%TO.P,U5,46,PB9*%
%TO.N,unconnected-(U5-PB9-Pad46)*%
X180087500Y-77851900D03*
%TO.P,U5,47,VSS*%
%TO.N,GND*%
X180587500Y-77851900D03*
%TO.P,U5,48,VDD*%
%TO.N,+3.3V*%
X181087500Y-77851900D03*
%TD*%
D29*
%TO.P,C6,1*%
%TO.N,+5V*%
X134317621Y-86500000D03*
D14*
%TO.P,C6,2*%
%TO.N,GND*%
X136817621Y-86500000D03*
%TD*%
D30*
%TO.P,SW1,1,A*%
%TO.N,Net-(D1-A)*%
X128000000Y-52500000D03*
X121500000Y-52500000D03*
%TO.P,SW1,2,B*%
%TO.N,Net-(SW1A-B)*%
X128000000Y-48000000D03*
X121500000Y-48000000D03*
%TD*%
D14*
%TO.P,R4,1*%
%TO.N,Net-(D1-K)*%
X142310000Y-97500000D03*
D15*
%TO.P,R4,2*%
%TO.N,Net-(U1-~{CHRG})*%
X134690000Y-97500000D03*
%TD*%
D31*
%TO.P,BT1,1*%
%TO.N,Net-(D1-A)*%
X136500000Y-113000000D03*
D32*
%TO.P,BT1,2*%
%TO.N,Net-(U2-GND)*%
X208500000Y-113000000D03*
%TD*%
D14*
%TO.P,C13,1*%
%TO.N,Net-(C13-Pad1)*%
X200470151Y-88690000D03*
%TO.P,C13,2*%
%TO.N,GND*%
X200470151Y-83690000D03*
%TD*%
D24*
%TO.P,Q1,1*%
%TO.N,unconnected-(Q1-Pad1)_1*%
X126595000Y-105975000D03*
%TO.P,Q1,2*%
%TO.N,GND*%
X127865000Y-105975000D03*
%TO.P,Q1,3*%
X129135000Y-105975000D03*
%TO.P,Q1,4*%
%TO.N,Net-(U2-OD)*%
X130405000Y-105975000D03*
%TO.P,Q1,5*%
%TO.N,Net-(U2-OC)*%
X130405000Y-101025000D03*
%TO.P,Q1,6*%
%TO.N,Net-(C4-Pad2)*%
X129135000Y-101025000D03*
%TO.P,Q1,7*%
X127865000Y-101025000D03*
%TO.P,Q1,8*%
%TO.N,unconnected-(Q1-Pad1)*%
X126595000Y-101025000D03*
%TD*%
D29*
%TO.P,C14,1*%
%TO.N,+3.3V*%
X163500000Y-82794888D03*
D14*
%TO.P,C14,2*%
%TO.N,GND*%
X163500000Y-85294888D03*
%TD*%
%TO.P,C10,1*%
%TO.N,+3.3V*%
X120900000Y-56464400D03*
%TO.P,C10,2*%
%TO.N,GND*%
X125900000Y-56464400D03*
%TD*%
%TO.P,C20,1*%
%TO.N,Net-(U5-NRST)*%
X200225151Y-98500000D03*
%TO.P,C20,2*%
%TO.N,GND*%
X200225151Y-93500000D03*
%TD*%
D29*
%TO.P,C4,1*%
%TO.N,Net-(D1-A)*%
X119500000Y-111705113D03*
D14*
%TO.P,C4,2*%
%TO.N,Net-(C4-Pad2)*%
X119500000Y-109205113D03*
%TD*%
D33*
%TO.P,U2,1,OD*%
%TO.N,Net-(U2-OD)*%
X121450000Y-115500000D03*
%TO.P,U2,2,CS*%
%TO.N,Net-(D1-A)*%
X120500000Y-115500000D03*
%TO.P,U2,3,OC*%
%TO.N,Net-(U2-OC)*%
X119550000Y-115500000D03*
%TO.P,U2,4,TD*%
%TO.N,unconnected-(U2-TD-Pad4)*%
X119550000Y-117775000D03*
%TO.P,U2,5,VCC*%
%TO.N,Net-(D1-A)*%
X120500000Y-117775000D03*
%TO.P,U2,6,GND*%
%TO.N,Net-(U2-GND)*%
X121450000Y-117775000D03*
%TD*%
D34*
%TO.P,J2,1,Pin_1*%
%TO.N,Net-(J2-Pin_1)*%
X169525000Y-77750000D03*
D35*
%TO.P,J2,2,Pin_2*%
%TO.N,Net-(J2-Pin_2)*%
X169525000Y-80290000D03*
%TD*%
D14*
%TO.P,R8,1*%
%TO.N,Net-(C13-Pad1)*%
X195470151Y-90000000D03*
D15*
%TO.P,R8,2*%
%TO.N,GND*%
X195470151Y-82380000D03*
%TD*%
D36*
%TO.P,Y1,1,1*%
%TO.N,Net-(U5-PD1)*%
X174050000Y-88000000D03*
%TO.P,Y1,2,2*%
%TO.N,Net-(U5-PD0)*%
X178930000Y-88000000D03*
%TD*%
D14*
%TO.P,C11,1*%
%TO.N,GND*%
X196500000Y-69000000D03*
%TO.P,C11,2*%
%TO.N,+5V*%
X196500000Y-74000000D03*
%TD*%
%TO.P,R3,1*%
%TO.N,Net-(D1-A)*%
X131310000Y-110000000D03*
D15*
%TO.P,R3,2*%
%TO.N,Net-(U1-CE)*%
X123690000Y-110000000D03*
%TD*%
D29*
%TO.P,C9,1*%
%TO.N,+3.3V*%
X121900000Y-60964400D03*
D14*
%TO.P,C9,2*%
%TO.N,GND*%
X124400000Y-60964400D03*
%TD*%
%TO.P,C1,1*%
%TO.N,Net-(C1-Pad1)*%
X128000000Y-133500000D03*
%TO.P,C1,2*%
%TO.N,GND*%
X128000000Y-128500000D03*
%TD*%
%TO.P,R11,1*%
%TO.N,Net-(P1-CC1)*%
X125000000Y-134120000D03*
D15*
%TO.P,R11,2*%
%TO.N,GND*%
X125000000Y-126500000D03*
%TD*%
D14*
%TO.P,C16,1*%
%TO.N,GND*%
X187200000Y-80000000D03*
%TO.P,C16,2*%
%TO.N,Net-(U5-PC15)*%
X189700000Y-80000000D03*
%TD*%
%TO.P,C19,1*%
%TO.N,Net-(U5-PD0)*%
X184110600Y-89440000D03*
%TO.P,C19,2*%
%TO.N,GND*%
X184110600Y-86940000D03*
%TD*%
%TO.P,C17,1*%
%TO.N,GND*%
X189700000Y-87000000D03*
%TO.P,C17,2*%
%TO.N,Net-(U5-PC14)*%
X187200000Y-87000000D03*
%TD*%
D37*
%TO.P,U6,1,VDD*%
%TO.N,+5V*%
X189000000Y-74000000D03*
D36*
%TO.P,U6,2,SDA*%
%TO.N,Net-(U5-PA1)*%
X189000000Y-71460000D03*
%TO.P,U6,3,GND*%
%TO.N,GND*%
X189000000Y-68920000D03*
%TO.P,U6,4,GND*%
X189000000Y-66380000D03*
%TD*%
D31*
%TO.P,BT2,1*%
%TO.N,Net-(D1-A)*%
X136355000Y-134000000D03*
D32*
%TO.P,BT2,2*%
%TO.N,Net-(U2-GND)*%
X208355000Y-134000000D03*
%TD*%
D38*
%TO.P,D3,1,K*%
%TO.N,+5V*%
X127000000Y-93500000D03*
%TO.P,D3,2,A*%
%TO.N,Net-(D3-A)*%
X127000000Y-89500000D03*
%TD*%
D14*
%TO.P,C5,1*%
%TO.N,Net-(D1-A)*%
X122500000Y-106500000D03*
%TO.P,C5,2*%
%TO.N,Net-(C4-Pad2)*%
X122500000Y-101500000D03*
%TD*%
%TO.P,R1,1*%
%TO.N,Net-(C1-Pad1)*%
X131000000Y-133810000D03*
D15*
%TO.P,R1,2*%
%TO.N,GND*%
X131000000Y-126190000D03*
%TD*%
D39*
%TO.P,U3,1,SW*%
%TO.N,Net-(D3-A)*%
X127050000Y-85637500D03*
%TO.P,U3,2,GND*%
%TO.N,GND*%
X128000000Y-85637500D03*
%TO.P,U3,3,FB*%
%TO.N,Net-(U3-FB)*%
X128950000Y-85637500D03*
%TO.P,U3,4,EN*%
%TO.N,Net-(SW1A-B)*%
X128950000Y-83362500D03*
%TO.P,U3,5,IN*%
X128000000Y-83362500D03*
%TO.P,U3,6,NC*%
%TO.N,unconnected-(U3-NC-Pad6)*%
X127050000Y-83362500D03*
%TD*%
D40*
%TO.P,JP1,1,A*%
%TO.N,GND*%
X201700000Y-68000000D03*
%TO.P,JP1,2,C*%
%TO.N,Net-(JP1-C)*%
X203000000Y-68000000D03*
%TO.P,JP1,3,B*%
%TO.N,+3.3V*%
X204300000Y-68000000D03*
%TD*%
D38*
%TO.P,D6,1,K*%
%TO.N,Net-(D1-A)*%
X117500000Y-132000000D03*
%TO.P,D6,2,A*%
%TO.N,GND*%
X117500000Y-128000000D03*
%TD*%
D14*
%TO.P,R2,1*%
%TO.N,Net-(U1-PROG)*%
X124190000Y-122500000D03*
D15*
%TO.P,R2,2*%
%TO.N,GND*%
X131810000Y-122500000D03*
%TD*%
D14*
%TO.P,C12,1*%
%TO.N,+5V*%
X135950000Y-65270000D03*
%TO.P,C12,2*%
%TO.N,GND*%
X135950000Y-60270000D03*
%TD*%
D41*
%TO.P,U7,AOT*%
%TO.N,N/C*%
X139450000Y-58770000D03*
%TO.P,U7,GND,GND*%
%TO.N,GND*%
X139450000Y-61310000D03*
%TO.P,U7,HD,HD*%
%TO.N,Net-(C13-Pad1)*%
X168939400Y-53690000D03*
%TO.P,U7,PWM,PWM*%
%TO.N,Net-(R9-Pad2)*%
X139450000Y-56230000D03*
%TO.P,U7,RX,RX*%
%TO.N,Net-(U5-PA10)*%
X168939400Y-61310000D03*
%TO.P,U7,SR*%
%TO.N,N/C*%
X168939400Y-56230000D03*
%TO.P,U7,TX,TX*%
%TO.N,Net-(U5-PA9)*%
X168939400Y-58770000D03*
D42*
%TO.P,U7,VIN,VIN*%
%TO.N,+5V*%
X139450000Y-63850000D03*
D41*
%TO.P,U7,VO,VO*%
%TO.N,Net-(R10-Pad2)*%
X168939400Y-63850000D03*
%TD*%
D22*
%TO.P,D2,1,K*%
%TO.N,Net-(D2-K)*%
X145420000Y-101000000D03*
D23*
%TO.P,D2,2,A*%
%TO.N,Net-(D1-A)*%
X155580000Y-101000000D03*
%TD*%
D14*
%TO.P,R9,1*%
%TO.N,GND*%
X128640000Y-56270000D03*
D15*
%TO.P,R9,2*%
%TO.N,Net-(R9-Pad2)*%
X136260000Y-56270000D03*
%TD*%
D43*
%TO.P,L1,1,1*%
%TO.N,Net-(SW1A-B)*%
X121500000Y-84000000D03*
%TO.P,L1,2,2*%
%TO.N,Net-(D3-A)*%
X121500000Y-87500000D03*
%TD*%
D44*
%TO.P,J1,1,Pin_1*%
%TO.N,Net-(J1-Pin_1)*%
X178989000Y-82500000D03*
D45*
%TO.P,J1,2,Pin_2*%
%TO.N,Net-(J1-Pin_2)*%
X177744000Y-82500000D03*
%TO.P,J1,3,Pin_3*%
%TO.N,+3.3V*%
X176500000Y-82500000D03*
%TO.P,J1,4,Pin_4*%
%TO.N,GND*%
X175255000Y-82500000D03*
%TD*%
D14*
%TO.P,R14,1*%
%TO.N,GND*%
X181310000Y-101000000D03*
D15*
%TO.P,R14,2*%
%TO.N,Net-(D4-K)*%
X173690000Y-101000000D03*
%TD*%
D40*
%TO.P,JP2,1,A*%
%TO.N,+3.3V*%
X208400000Y-68000000D03*
%TO.P,JP2,2,C*%
%TO.N,Net-(JP2-C)*%
X209700000Y-68000000D03*
%TO.P,JP2,3,B*%
%TO.N,GND*%
X211000000Y-68000000D03*
%TD*%
D39*
%TO.P,U4,1,VIN*%
%TO.N,+5V*%
X121500000Y-67775000D03*
%TO.P,U4,2,GND*%
%TO.N,GND*%
X122450000Y-67775000D03*
%TO.P,U4,3,EN*%
%TO.N,+5V*%
X123400000Y-67775000D03*
%TO.P,U4,4,NC*%
%TO.N,unconnected-(U4-NC-Pad4)*%
X123400000Y-65500000D03*
%TO.P,U4,5,VOUT*%
%TO.N,+3.3V*%
X121500000Y-65500000D03*
%TD*%
D14*
%TO.P,C15,1*%
%TO.N,+3.3V*%
X158500000Y-81250000D03*
%TO.P,C15,2*%
%TO.N,GND*%
X158500000Y-86250000D03*
%TD*%
D30*
%TO.P,SW3,1,1*%
%TO.N,Net-(U5-NRST)*%
X211975151Y-98250000D03*
X205475151Y-98250000D03*
%TO.P,SW3,2,2*%
%TO.N,GND*%
X211975151Y-93750000D03*
X205475151Y-93750000D03*
%TD*%
D29*
%TO.P,C2,1*%
%TO.N,Net-(D1-A)*%
X120000000Y-125000000D03*
D14*
%TO.P,C2,2*%
%TO.N,GND*%
X120000000Y-122500000D03*
%TD*%
D30*
%TO.P,SW2,1,1*%
%TO.N,Net-(C13-Pad1)*%
X212000000Y-88676626D03*
X205500000Y-88676626D03*
%TO.P,SW2,2,2*%
%TO.N,GND*%
X212000000Y-84176626D03*
X205500000Y-84176626D03*
%TD*%
D14*
%TO.P,C18,1*%
%TO.N,Net-(U5-PD1)*%
X169110600Y-86940000D03*
%TO.P,C18,2*%
%TO.N,GND*%
X169110600Y-89440000D03*
%TD*%
D29*
%TO.P,C8,1*%
%TO.N,+5V*%
X123400000Y-72964400D03*
D14*
%TO.P,C8,2*%
%TO.N,GND*%
X120900000Y-72964400D03*
%TD*%
D22*
%TO.P,D1,1,K*%
%TO.N,Net-(D1-K)*%
X145420000Y-97500000D03*
D23*
%TO.P,D1,2,A*%
%TO.N,Net-(D1-A)*%
X155580000Y-97500000D03*
%TD*%
D14*
%TO.P,R12,1*%
%TO.N,Net-(JP2-C)*%
X210000000Y-70500000D03*
D15*
%TO.P,R12,2*%
%TO.N,Net-(U5-PB2)*%
X210000000Y-78120000D03*
%TD*%
D14*
%TO.P,R16,1*%
%TO.N,GND*%
X195225151Y-92380000D03*
D15*
%TO.P,R16,2*%
%TO.N,Net-(U5-NRST)*%
X195225151Y-100000000D03*
%TD*%
D14*
%TO.P,R13,1*%
%TO.N,Net-(U5-PC13)*%
X181310000Y-97500000D03*
D15*
%TO.P,R13,2*%
%TO.N,Net-(D5-K)*%
X173690000Y-97500000D03*
%TD*%
D14*
%TO.P,C7,1*%
%TO.N,+5V*%
X124400000Y-78964400D03*
%TO.P,C7,2*%
%TO.N,GND*%
X119400000Y-78964400D03*
%TD*%
D46*
%TO.N,+5V*%
X128500000Y-79000000D03*
X123400000Y-69500000D03*
X121500000Y-69500000D03*
%TO.N,+3.3V*%
X180500000Y-72000000D03*
X177500000Y-76000000D03*
X134000000Y-66000000D03*
X206500000Y-68000000D03*
X178750000Y-74250000D03*
X172000000Y-77326900D03*
X132500000Y-64500000D03*
%TO.N,GND*%
X172000000Y-76000000D03*
X125000000Y-104000000D03*
X177500000Y-74500000D03*
X121500000Y-134500000D03*
X133500000Y-67000000D03*
X166500000Y-75500000D03*
X178500000Y-72939400D03*
X152500000Y-83000000D03*
X155000000Y-89000000D03*
X125500000Y-83000000D03*
%TO.N,Net-(D1-A)*%
X128500000Y-120500000D03*
X119500000Y-120500000D03*
%TO.N,Net-(U2-GND)*%
X121000000Y-119500000D03*
%TO.N,Net-(U5-PD1)*%
X185500000Y-73500000D03*
%TO.N,Net-(U5-PD0)*%
X185000000Y-76500000D03*
X183500000Y-78500000D03*
%TO.N,Net-(SW1A-B)*%
X129500000Y-81500000D03*
X116000000Y-80000000D03*
%TO.N,Net-(U2-OD)*%
X130405000Y-107500000D03*
X122500000Y-113500000D03*
%TO.N,Net-(U5-PB2)*%
X204000000Y-101000000D03*
X183000000Y-83000000D03*
X179000000Y-67500000D03*
%TO.N,Net-(U5-PC13)*%
X182750000Y-79750000D03*
X183000000Y-77500000D03*
%TO.N,Net-(U5-BOOT0)*%
X184000000Y-82500000D03*
X203000000Y-101000000D03*
X179500000Y-79500000D03*
%TD*%
D47*
%TO.N,Net-(D3-A)*%
X123500000Y-89500000D02*
X121500000Y-87500000D01*
X127000000Y-89500000D02*
X127000000Y-85687500D01*
X127000000Y-89500000D02*
X123500000Y-89500000D01*
X127000000Y-85687500D02*
X127050000Y-85637500D01*
%TO.N,+5V*%
X198500000Y-72000000D02*
X196500000Y-74000000D01*
X135950000Y-65270000D02*
X135950000Y-67414400D01*
X124400000Y-73964400D02*
X123400000Y-72964400D01*
X135932200Y-67432200D02*
X124400000Y-78964400D01*
X131500000Y-92000000D02*
X131500000Y-89317621D01*
X135950000Y-67414400D02*
X135932200Y-67432200D01*
X138030000Y-65270000D02*
X139450000Y-63850000D01*
X127964400Y-78964400D02*
X124400000Y-78964400D01*
X135950000Y-65270000D02*
X138030000Y-65270000D01*
X121500000Y-67775000D02*
X121500000Y-69500000D01*
X198500000Y-63000000D02*
X198500000Y-72000000D01*
X128500000Y-79000000D02*
X128000000Y-79000000D01*
X186000000Y-50500000D02*
X198500000Y-63000000D01*
X128000000Y-79000000D02*
X127964400Y-78964400D01*
X123400000Y-72964400D02*
X123400000Y-69500000D01*
X135932200Y-67432200D02*
X151567800Y-67432200D01*
X168500000Y-50500000D02*
X186000000Y-50500000D01*
X124400000Y-78964400D02*
X124400000Y-73964400D01*
X127000000Y-93500000D02*
X130000000Y-93500000D01*
X131500000Y-89317621D02*
X134317621Y-86500000D01*
X130000000Y-93500000D02*
X131500000Y-92000000D01*
X151567800Y-67432200D02*
X168500000Y-50500000D01*
X189000000Y-74000000D02*
X196500000Y-74000000D01*
X123400000Y-69500000D02*
X123400000Y-67775000D01*
%TO.N,+3.3V*%
X175587500Y-69526900D02*
X175587500Y-71087500D01*
X132500000Y-64500000D02*
X134000000Y-66000000D01*
X172705112Y-82794888D02*
X163500000Y-82794888D01*
X174175000Y-76439400D02*
X177060600Y-76439400D01*
X157250000Y-82500000D02*
X158500000Y-81250000D01*
X158920000Y-97620000D02*
X159040000Y-97500000D01*
X174000000Y-81500000D02*
X172705112Y-82794888D01*
X121900000Y-60964400D02*
X121900000Y-57464400D01*
X158920000Y-101000000D02*
X158920000Y-97620000D01*
X206500000Y-68000000D02*
X208400000Y-68000000D01*
X159040000Y-97500000D02*
X156500000Y-94960000D01*
X176000000Y-82000000D02*
X176000000Y-81500000D01*
X121900000Y-60964400D02*
X121900000Y-65100000D01*
X176500000Y-82500000D02*
X176000000Y-82000000D01*
X121900000Y-65100000D02*
X121500000Y-65500000D01*
X176000000Y-81500000D02*
X174000000Y-81500000D01*
X175587500Y-71087500D02*
X178750000Y-74250000D01*
X172000000Y-77326900D02*
X172326900Y-77000000D01*
X156500000Y-94960000D02*
X156500000Y-82500000D01*
X177060600Y-76439400D02*
X177500000Y-76000000D01*
X178750000Y-74250000D02*
X181087500Y-76587500D01*
X173614400Y-77000000D02*
X174175000Y-76439400D01*
X160044888Y-82794888D02*
X158500000Y-81250000D01*
X204300000Y-68000000D02*
X206500000Y-68000000D01*
X180939400Y-72439400D02*
X182500000Y-72439400D01*
X180500000Y-72000000D02*
X180939400Y-72439400D01*
X163500000Y-82794888D02*
X160044888Y-82794888D01*
X156500000Y-82500000D02*
X157250000Y-82500000D01*
X121900000Y-57464400D02*
X120900000Y-56464400D01*
X181087500Y-76587500D02*
X181087500Y-77851900D01*
X172326900Y-77000000D02*
X173614400Y-77000000D01*
%TO.N,Net-(JP1-C)*%
X203000000Y-70690000D02*
X203000000Y-68000000D01*
%TO.N,GND*%
X128000000Y-85637500D02*
X128000000Y-87000000D01*
X201700000Y-68000000D02*
X201700000Y-65300000D01*
X166500000Y-75500000D02*
X166500000Y-76000000D01*
X123280750Y-136280750D02*
X121500000Y-134500000D01*
X172000000Y-76000000D02*
X172500000Y-76000000D01*
X175255000Y-82500000D02*
X173755000Y-84000000D01*
X189000000Y-68920000D02*
X189000000Y-66380000D01*
X122450000Y-62914400D02*
X124400000Y-60964400D01*
X171500000Y-84000000D02*
X170205112Y-85294888D01*
X170205112Y-85294888D02*
X163500000Y-85294888D01*
X140000000Y-85000000D02*
X140000000Y-87900000D01*
X166500000Y-76000000D02*
X165000000Y-77500000D01*
X181310000Y-101000000D02*
X172310000Y-92000000D01*
X196780151Y-83690000D02*
X195470151Y-82380000D01*
X125000000Y-104000000D02*
X126864999Y-104000000D01*
X172310000Y-92000000D02*
X159000000Y-92000000D01*
X135950000Y-60270000D02*
X138410000Y-60270000D01*
X123000000Y-112000000D02*
X122500000Y-111500000D01*
X123000000Y-108630791D02*
X123000000Y-108000000D01*
X142974000Y-80474000D02*
X148500000Y-86000000D01*
X201700000Y-64700000D02*
X184000000Y-47000000D01*
X124400000Y-60964400D02*
X124400000Y-57964400D01*
X176087500Y-69526900D02*
X176087500Y-70587500D01*
X125900000Y-56464400D02*
X125900000Y-59400000D01*
X123000000Y-108000000D02*
X123500000Y-107500000D01*
X124795000Y-118175000D02*
X124795000Y-117605000D01*
X200470151Y-83690000D02*
X196780151Y-83690000D01*
X128000000Y-85637500D02*
X128000000Y-84500000D01*
X205500000Y-84176626D02*
X200956777Y-84176626D01*
X176060600Y-75939400D02*
X174175000Y-75939400D01*
X163500000Y-85294888D02*
X159455112Y-85294888D01*
X201700000Y-65300000D02*
X202000000Y-65000000D01*
X177973099Y-74500000D02*
X180587500Y-77114401D01*
X212000000Y-84176626D02*
X205500000Y-84176626D01*
X130000000Y-87500000D02*
X132500000Y-85000000D01*
X126974000Y-129526000D02*
X128000000Y-128500000D01*
X196420000Y-68920000D02*
X196500000Y-69000000D01*
X127750000Y-61250000D02*
X133500000Y-67000000D01*
X127335000Y-122000000D02*
X127335000Y-122525000D01*
X119400000Y-74464400D02*
X120900000Y-72964400D01*
X211000000Y-65000000D02*
X202000000Y-65000000D01*
X123500000Y-107500000D02*
X127314999Y-107500000D01*
X126700000Y-115700000D02*
X125700000Y-115700000D01*
X130310000Y-126190000D02*
X131000000Y-126190000D01*
X122500000Y-111500000D02*
X122500000Y-109130791D01*
X123280750Y-136960000D02*
X123280750Y-136280750D01*
X200000000Y-93500000D02*
X198880000Y-92380000D01*
X140800000Y-88700000D02*
X138600000Y-86500000D01*
X138000000Y-47000000D02*
X138000000Y-51000000D01*
X211000000Y-68000000D02*
X211000000Y-65000000D01*
X128000000Y-87000000D02*
X128500000Y-87500000D01*
X119400000Y-78964400D02*
X120909600Y-80474000D01*
X138410000Y-60270000D02*
X139450000Y-61310000D01*
X119400000Y-78964400D02*
X119400000Y-74464400D01*
X173755000Y-84000000D02*
X171500000Y-84000000D01*
X117500000Y-125000000D02*
X120000000Y-122500000D01*
X124795000Y-117605000D02*
X126700000Y-115700000D01*
X200225151Y-93500000D02*
X200000000Y-93500000D01*
X126864999Y-104000000D02*
X127865000Y-105000001D01*
X127865000Y-106949999D02*
X127865000Y-105975000D01*
X201700000Y-65300000D02*
X201700000Y-64700000D01*
X127314999Y-107500000D02*
X127865000Y-106949999D01*
X127335000Y-122525000D02*
X131000000Y-126190000D01*
X129135000Y-105975000D02*
X127865000Y-105975000D01*
X172500000Y-76000000D02*
X172560600Y-75939400D01*
X117500000Y-128000000D02*
X117500000Y-125000000D01*
X127900000Y-116400000D02*
X127335000Y-116965000D01*
X120900000Y-72964400D02*
X122450000Y-71414400D01*
X123000000Y-113000000D02*
X123000000Y-112000000D01*
X158500000Y-91500000D02*
X158500000Y-86250000D01*
X128000000Y-84500000D02*
X125500000Y-84500000D01*
X138600000Y-86500000D02*
X136817621Y-86500000D01*
X125700000Y-115700000D02*
X123000000Y-113000000D01*
X120909600Y-80474000D02*
X142974000Y-80474000D01*
X176087500Y-70587500D02*
X178439400Y-72939400D01*
X141300000Y-89200000D02*
X140800000Y-88700000D01*
X159455112Y-85294888D02*
X158500000Y-86250000D01*
X125500000Y-84500000D02*
X125500000Y-83000000D01*
X180587500Y-77114401D02*
X180587500Y-77851900D01*
X145800000Y-88700000D02*
X140800000Y-88700000D01*
X126974000Y-134474000D02*
X126974000Y-129526000D01*
X178439400Y-72939400D02*
X178500000Y-72939400D01*
X116000000Y-129500000D02*
X116000000Y-134500000D01*
X128780750Y-136280750D02*
X126974000Y-134474000D01*
X172560600Y-75939400D02*
X174175000Y-75939400D01*
X198880000Y-92380000D02*
X195225151Y-92380000D01*
X117500000Y-128000000D02*
X116000000Y-129500000D01*
X132500000Y-85000000D02*
X140000000Y-85000000D01*
X152500000Y-83000000D02*
X152500000Y-86500000D01*
X127000000Y-128500000D02*
X128000000Y-128500000D01*
X138000000Y-51000000D02*
X127750000Y-61250000D01*
X189000000Y-68920000D02*
X196420000Y-68920000D01*
X177500000Y-74500000D02*
X176060600Y-75939400D01*
X158000000Y-77500000D02*
X152500000Y-83000000D01*
X152500000Y-86500000D02*
X155000000Y-89000000D01*
X127865000Y-105000001D02*
X127865000Y-105975000D01*
X128000000Y-128500000D02*
X130310000Y-126190000D01*
X122450000Y-71414400D02*
X122450000Y-67775000D01*
X211975151Y-93750000D02*
X200475151Y-93750000D01*
X122500000Y-109130791D02*
X123000000Y-108630791D01*
X128500000Y-87500000D02*
X130000000Y-87500000D01*
X200475151Y-93750000D02*
X200225151Y-93500000D01*
X124400000Y-57964400D02*
X125900000Y-56464400D01*
X125000000Y-126500000D02*
X127000000Y-128500000D01*
X127335000Y-118175000D02*
X127335000Y-122000000D01*
X116000000Y-134500000D02*
X121500000Y-134500000D01*
X125900000Y-59400000D02*
X127750000Y-61250000D01*
X122450000Y-67775000D02*
X122450000Y-62914400D01*
X128780750Y-136960000D02*
X128780750Y-136280750D01*
X131810000Y-122500000D02*
X127835000Y-122500000D01*
X159000000Y-92000000D02*
X158500000Y-91500000D01*
X148500000Y-86000000D02*
X145800000Y-88700000D01*
X127335000Y-116965000D02*
X127335000Y-118175000D01*
X178500000Y-72939400D02*
X182500000Y-72939400D01*
X127835000Y-122500000D02*
X127335000Y-122000000D01*
X165000000Y-77500000D02*
X158000000Y-77500000D01*
X140000000Y-87900000D02*
X141300000Y-89200000D01*
X177500000Y-74500000D02*
X177973099Y-74500000D01*
X200956777Y-84176626D02*
X200470151Y-83690000D01*
X144150000Y-92050000D02*
X141300000Y-89200000D01*
X184000000Y-47000000D02*
X138000000Y-47000000D01*
%TO.N,Net-(JP2-C)*%
X210000000Y-68300000D02*
X209700000Y-68000000D01*
X210000000Y-70500000D02*
X210000000Y-68300000D01*
%TO.N,Net-(R10-Pad2)*%
X168939400Y-66139400D02*
X169450000Y-66650000D01*
X168939400Y-63850000D02*
X168939400Y-66139400D01*
%TO.N,Net-(D1-A)*%
X120000000Y-131729250D02*
X120270750Y-132000000D01*
X136275000Y-113225000D02*
X136500000Y-113000000D01*
X153580000Y-95500000D02*
X122199000Y-95500000D01*
X124780750Y-136960000D02*
X124780750Y-136510000D01*
X141000000Y-113000000D02*
X136500000Y-113000000D01*
X155580000Y-101000000D02*
X155580000Y-97500000D01*
X121500000Y-52500000D02*
X128000000Y-52500000D01*
X136355000Y-113145000D02*
X136500000Y-113000000D01*
X128500000Y-120500000D02*
X128605000Y-120395000D01*
X124780750Y-136510000D02*
X120270750Y-132000000D01*
X120500000Y-117775000D02*
X120500000Y-115500000D01*
X153000000Y-101000000D02*
X141000000Y-113000000D01*
X120000000Y-125000000D02*
X121500000Y-123500000D01*
X121602557Y-109602557D02*
X122500000Y-108705113D01*
X128605000Y-113225000D02*
X130000000Y-113225000D01*
X127280750Y-136533000D02*
X126500000Y-135752250D01*
X136355000Y-134000000D02*
X136355000Y-113145000D01*
X120500000Y-118623000D02*
X120500000Y-117775000D01*
X126500000Y-135752250D02*
X126500000Y-132500000D01*
X127280750Y-136960000D02*
X127280750Y-136533000D01*
X119500000Y-119623000D02*
X120500000Y-118623000D01*
X155580000Y-101000000D02*
X153000000Y-101000000D01*
X126500000Y-132500000D02*
X126000000Y-132000000D01*
X121500000Y-123500000D02*
X121500000Y-122000000D01*
X128605000Y-120395000D02*
X128605000Y-118175000D01*
X128605000Y-118175000D02*
X130000000Y-116780000D01*
X126000000Y-132000000D02*
X120270750Y-132000000D01*
X131000000Y-113225000D02*
X136275000Y-113225000D01*
X120500000Y-113500000D02*
X120500000Y-115500000D01*
X117199000Y-98199000D02*
X117000000Y-98000000D01*
X120000000Y-125000000D02*
X120000000Y-131729250D01*
X131310000Y-110000000D02*
X131310000Y-112915000D01*
X119500000Y-111705113D02*
X121602557Y-109602557D01*
X122500000Y-106500000D02*
X122500000Y-108705113D01*
X117000000Y-98000000D02*
X117000000Y-52500000D01*
X120000000Y-120500000D02*
X119500000Y-120500000D01*
X117000000Y-52500000D02*
X121500000Y-52500000D01*
X120270750Y-132000000D02*
X117500000Y-132000000D01*
X119500000Y-120500000D02*
X119500000Y-119623000D01*
X121602557Y-109602557D02*
X121602557Y-112397443D01*
X119500000Y-98199000D02*
X117199000Y-98199000D01*
X121500000Y-122000000D02*
X120000000Y-120500000D01*
X122199000Y-95500000D02*
X119500000Y-98199000D01*
X155580000Y-97500000D02*
X153580000Y-95500000D01*
X130000000Y-116780000D02*
X130000000Y-113225000D01*
X131310000Y-112915000D02*
X131000000Y-113225000D01*
X130000000Y-113225000D02*
X131000000Y-113225000D01*
X121602557Y-112397443D02*
X120500000Y-113500000D01*
%TO.N,Net-(U2-GND)*%
X208355000Y-134000000D02*
X208355000Y-113145000D01*
X121000000Y-119500000D02*
X121450000Y-119050000D01*
X208355000Y-113145000D02*
X208500000Y-113000000D01*
X121450000Y-119050000D02*
X121450000Y-117775000D01*
%TO.N,Net-(C4-Pad2)*%
X119500000Y-104500000D02*
X122500000Y-101500000D01*
X120000000Y-99000000D02*
X128000000Y-99000000D01*
X119500000Y-109205113D02*
X119500000Y-104500000D01*
X128500000Y-100390000D02*
X129135000Y-101025000D01*
X128500000Y-99500000D02*
X128500000Y-100390000D01*
X128000000Y-99000000D02*
X128500000Y-99500000D01*
X128500000Y-100390000D02*
X127865000Y-101025000D01*
X119500000Y-99500000D02*
X120000000Y-99000000D01*
X119500000Y-104500000D02*
X119500000Y-99500000D01*
%TO.N,Net-(J2-Pin_1)*%
X171387500Y-75000000D02*
X169525000Y-76862500D01*
X172500000Y-75000000D02*
X171387500Y-75000000D01*
X169525000Y-76862500D02*
X169525000Y-77750000D01*
X172939400Y-75439400D02*
X172500000Y-75000000D01*
X174175000Y-75439400D02*
X172939400Y-75439400D01*
%TO.N,Net-(C13-Pad1)*%
X195470151Y-90000000D02*
X199160151Y-90000000D01*
X199160151Y-90000000D02*
X200470151Y-88690000D01*
X200470151Y-88690000D02*
X211986626Y-88690000D01*
X211986626Y-88690000D02*
X212000000Y-88676626D01*
%TO.N,Net-(U5-PC15)*%
X192000000Y-78500000D02*
X184500000Y-78500000D01*
X184500000Y-76885298D02*
X184374000Y-76759298D01*
X184500000Y-75574322D02*
X183865078Y-74939400D01*
X184374000Y-76240702D02*
X184500000Y-76114702D01*
X183865078Y-74939400D02*
X182500000Y-74939400D01*
X192500000Y-79000000D02*
X192000000Y-78500000D01*
X189700000Y-80000000D02*
X189700000Y-82700000D01*
X184500000Y-76114702D02*
X184500000Y-75574322D01*
X190500000Y-83500000D02*
X192500000Y-81500000D01*
X184374000Y-76759298D02*
X184374000Y-76240702D01*
X192500000Y-81500000D02*
X192500000Y-79000000D01*
X189700000Y-82700000D02*
X190500000Y-83500000D01*
X184500000Y-78500000D02*
X184500000Y-76885298D01*
%TO.N,Net-(U5-PC14)*%
X184375322Y-78801000D02*
X184199000Y-78624678D01*
X184199000Y-75699000D02*
X183939400Y-75439400D01*
X184500000Y-80500000D02*
X184500000Y-78801000D01*
X184073000Y-76883976D02*
X184073000Y-76116024D01*
X186400000Y-82400000D02*
X184500000Y-80500000D01*
X184199000Y-77009976D02*
X184073000Y-76883976D01*
X183939400Y-75439400D02*
X182500000Y-75439400D01*
X184199000Y-78624678D02*
X184199000Y-77009976D01*
X184199000Y-75990024D02*
X184199000Y-75699000D01*
X184073000Y-76116024D02*
X184199000Y-75990024D01*
X187200000Y-87000000D02*
X187200000Y-84300000D01*
X186400000Y-83500000D02*
X186400000Y-82400000D01*
X187200000Y-84300000D02*
X186400000Y-83500000D01*
X184500000Y-78801000D02*
X184375322Y-78801000D01*
%TO.N,Net-(U5-PD1)*%
X172990000Y-86940000D02*
X174050000Y-88000000D01*
X185500000Y-73500000D02*
X184378800Y-73500000D01*
X183939400Y-73939400D02*
X182500000Y-73939400D01*
X169110600Y-86940000D02*
X172990000Y-86940000D01*
X184378800Y-73500000D02*
X183939400Y-73939400D01*
%TO.N,Net-(U5-PD0)*%
X184110600Y-89440000D02*
X180370000Y-89440000D01*
X181500000Y-85430000D02*
X178930000Y-88000000D01*
X180370000Y-89440000D02*
X178930000Y-88000000D01*
X181500000Y-80000000D02*
X181500000Y-85430000D01*
X185000000Y-76500000D02*
X185000000Y-75648644D01*
X183500000Y-78500000D02*
X183000000Y-78500000D01*
X183790756Y-74439400D02*
X182500000Y-74439400D01*
X183000000Y-78500000D02*
X181500000Y-80000000D01*
X185000000Y-75648644D02*
X183790756Y-74439400D01*
%TO.N,Net-(U5-NRST)*%
X192801000Y-97575849D02*
X192801000Y-78801000D01*
X184176899Y-72500000D02*
X183237499Y-73439400D01*
X183237499Y-73439400D02*
X182500000Y-73439400D01*
X195225151Y-100000000D02*
X192801000Y-97575849D01*
X200225151Y-98500000D02*
X196725151Y-98500000D01*
X186500000Y-78000000D02*
X186500000Y-73000000D01*
X211975151Y-98250000D02*
X200475151Y-98250000D01*
X192801000Y-78801000D02*
X192000000Y-78000000D01*
X196725151Y-98500000D02*
X195225151Y-100000000D01*
X186500000Y-73000000D02*
X186000000Y-72500000D01*
X192000000Y-78000000D02*
X186500000Y-78000000D01*
X186000000Y-72500000D02*
X184176899Y-72500000D01*
X200475151Y-98250000D02*
X200225151Y-98500000D01*
%TO.N,Net-(D1-K)*%
X142310000Y-97500000D02*
X145420000Y-97500000D01*
%TO.N,Net-(D2-K)*%
X142310000Y-101000000D02*
X145420000Y-101000000D01*
%TO.N,Net-(D4-K)*%
X173690000Y-101000000D02*
X169080000Y-101000000D01*
%TO.N,Net-(D5-K)*%
X169200000Y-97500000D02*
X173690000Y-97500000D01*
%TO.N,Net-(J1-Pin_1)*%
X178587500Y-82098500D02*
X178587500Y-77851900D01*
X178989000Y-82500000D02*
X178587500Y-82098500D01*
%TO.N,Net-(J1-Pin_2)*%
X178087500Y-77851900D02*
X178087500Y-82156500D01*
X178087500Y-82156500D02*
X177744000Y-82500000D01*
%TO.N,Net-(SW1A-B)*%
X121500000Y-84000000D02*
X124000000Y-81500000D01*
X124000000Y-81500000D02*
X127500000Y-81500000D01*
X121500000Y-48000000D02*
X128000000Y-48000000D01*
X128000000Y-82000000D02*
X128000000Y-82412500D01*
X129500000Y-81500000D02*
X128500000Y-81500000D01*
X128000000Y-82000000D02*
X128000000Y-83362500D01*
X127500000Y-81500000D02*
X128000000Y-82000000D01*
X119000000Y-50500000D02*
X119000000Y-52199000D01*
X116699000Y-80000000D02*
X116000000Y-80000000D01*
X128500000Y-81500000D02*
X128000000Y-82000000D01*
X116699000Y-52375322D02*
X116699000Y-80000000D01*
X121500000Y-48000000D02*
X119000000Y-50500000D01*
X128000000Y-82412500D02*
X128950000Y-83362500D01*
X119000000Y-52199000D02*
X116875322Y-52199000D01*
X116875322Y-52199000D02*
X116699000Y-52375322D01*
%TO.N,Net-(J2-Pin_2)*%
X171315000Y-78500000D02*
X174939400Y-78500000D01*
X174939400Y-78500000D02*
X175587500Y-77851900D01*
X169525000Y-80290000D02*
X171315000Y-78500000D01*
%TO.N,Net-(U2-OD)*%
X121450000Y-115500000D02*
X121450000Y-114550000D01*
X130405000Y-107500000D02*
X130405000Y-105975000D01*
X121450000Y-114550000D02*
X122500000Y-113500000D01*
%TO.N,Net-(P1-CC1)*%
X125000000Y-136000000D02*
X125000000Y-134120000D01*
X125280750Y-136280750D02*
X125000000Y-136000000D01*
X125280750Y-136960000D02*
X125280750Y-136280750D01*
%TO.N,Net-(U2-OC)*%
X130405000Y-98905000D02*
X130405000Y-101025000D01*
X119550000Y-115500000D02*
X118000000Y-113950000D01*
X119000000Y-98500000D02*
X130000000Y-98500000D01*
X130000000Y-98500000D02*
X130405000Y-98905000D01*
X118000000Y-99500000D02*
X119000000Y-98500000D01*
X118000000Y-113950000D02*
X118000000Y-99500000D01*
%TO.N,Net-(U1-PROG)*%
X124190000Y-122500000D02*
X126065000Y-120625000D01*
X126065000Y-120625000D02*
X126065000Y-118175000D01*
%TO.N,Net-(U1-CE)*%
X123690000Y-110000000D02*
X123690000Y-112120000D01*
X123690000Y-112120000D02*
X124795000Y-113225000D01*
%TO.N,Net-(U1-~{CHRG})*%
X134690000Y-97500000D02*
X132199000Y-99991000D01*
X132199000Y-99991000D02*
X132199000Y-106875322D01*
X126065000Y-111935000D02*
X126065000Y-113225000D01*
X132199000Y-106875322D02*
X128875322Y-110199000D01*
X127801000Y-110199000D02*
X126065000Y-111935000D01*
X128875322Y-110199000D02*
X127801000Y-110199000D01*
%TO.N,Net-(U1-~{STDBY})*%
X132500000Y-107000000D02*
X129000000Y-110500000D01*
X134690000Y-101000000D02*
X132500000Y-103190000D01*
X128000000Y-110500000D02*
X127335000Y-111165000D01*
X129000000Y-110500000D02*
X128000000Y-110500000D01*
X132500000Y-103190000D02*
X132500000Y-107000000D01*
X127335000Y-111165000D02*
X127335000Y-113225000D01*
%TO.N,Net-(R7-Pad2)*%
X141800000Y-92000000D02*
X141850000Y-92050000D01*
X139120000Y-92000000D02*
X141800000Y-92000000D01*
%TO.N,Net-(R9-Pad2)*%
X139410000Y-56270000D02*
X139450000Y-56230000D01*
X136260000Y-56270000D02*
X139410000Y-56270000D01*
%TO.N,Net-(U5-PB2)*%
X185699000Y-88624678D02*
X185699000Y-86199000D01*
X192000000Y-100925678D02*
X192000000Y-89500000D01*
X177587500Y-68789401D02*
X177587500Y-69526900D01*
X184500000Y-83500000D02*
X183500000Y-83500000D01*
X185699000Y-86199000D02*
X184500000Y-85000000D01*
X186574322Y-89500000D02*
X192000000Y-89500000D01*
X193574322Y-102500000D02*
X192000000Y-100925678D01*
X179000000Y-67500000D02*
X178876901Y-67500000D01*
X184500000Y-85000000D02*
X184500000Y-83500000D01*
X185699000Y-88624678D02*
X186574322Y-89500000D01*
X202500000Y-102500000D02*
X193574322Y-102500000D01*
X183500000Y-83500000D02*
X183000000Y-83000000D01*
X204000000Y-101000000D02*
X202500000Y-102500000D01*
X178876901Y-67500000D02*
X177587500Y-68789401D01*
%TO.N,Net-(U5-PC13)*%
X183439400Y-75939400D02*
X182500000Y-75939400D01*
X185398000Y-86323678D02*
X182000000Y-82925678D01*
X181310000Y-94190000D02*
X185500000Y-90000000D01*
X182000000Y-80500000D02*
X182750000Y-79750000D01*
X183699000Y-76801000D02*
X183699000Y-76199000D01*
X181310000Y-97500000D02*
X181310000Y-94190000D01*
X185398000Y-89898000D02*
X185398000Y-86323678D01*
X182000000Y-82925678D02*
X182000000Y-80500000D01*
X185500000Y-90000000D02*
X185398000Y-89898000D01*
X183699000Y-76199000D02*
X183439400Y-75939400D01*
X183000000Y-77500000D02*
X183699000Y-76801000D01*
%TO.N,Net-(U5-BOOT0)*%
X185000000Y-82500000D02*
X184000000Y-82500000D01*
X192500000Y-89000000D02*
X186500000Y-89000000D01*
X202000000Y-102000000D02*
X193500000Y-102000000D01*
X203000000Y-101000000D02*
X202000000Y-102000000D01*
X179087500Y-79087500D02*
X179087500Y-77851900D01*
X186000000Y-88500000D02*
X186000000Y-86000000D01*
X185000000Y-85000000D02*
X185000000Y-82500000D01*
X193500000Y-102000000D02*
X192500000Y-101000000D01*
X192500000Y-101000000D02*
X192500000Y-89000000D01*
X186000000Y-86000000D02*
X185000000Y-85000000D01*
X179500000Y-79500000D02*
X179087500Y-79087500D01*
X186500000Y-89000000D02*
X186000000Y-88500000D01*
%TO.N,Net-(U3-FB)*%
X143000000Y-86950000D02*
X140550000Y-84500000D01*
X130087500Y-84500000D02*
X128950000Y-85637500D01*
X140550000Y-84500000D02*
X130087500Y-84500000D01*
%TO.N,Net-(U5-PA10)*%
X172000000Y-64370600D02*
X172000000Y-73500000D01*
X168939400Y-61310000D02*
X172000000Y-64370600D01*
X172000000Y-73500000D02*
X172439400Y-73939400D01*
X172439400Y-73939400D02*
X174175000Y-73939400D01*
%TO.N,Net-(U5-PA9)*%
X172939400Y-73439400D02*
X172500000Y-73000000D01*
X174175000Y-73439400D02*
X172939400Y-73439400D01*
X172500000Y-73000000D02*
X172500000Y-62330600D01*
X172500000Y-62330600D02*
X168939400Y-58770000D01*
%TO.N,Net-(U5-PA1)*%
X182520600Y-71460000D02*
X182500000Y-71439400D01*
X189000000Y-71460000D02*
X182520600Y-71460000D01*
%TO.N,Net-(C1-Pad1)*%
X130495750Y-134314250D02*
X131000000Y-133810000D01*
X130495750Y-136560000D02*
X130495750Y-134314250D01*
X119955750Y-138170000D02*
X121565750Y-136560000D01*
X119955750Y-138900000D02*
X119955750Y-138170000D01*
X132105750Y-142760000D02*
X132105750Y-138900000D01*
X119955750Y-142760000D02*
X119955750Y-138900000D01*
X132105750Y-138900000D02*
X132105750Y-138170000D01*
X128310000Y-133810000D02*
X128000000Y-133500000D01*
X131000000Y-133810000D02*
X128310000Y-133810000D01*
X132105750Y-138170000D02*
X130495750Y-136560000D01*
%TD*%
M02*
