%TF.GenerationSoftware,KiCad,Pcbnew,9.0.1*%
%TF.CreationDate,2025-06-10T13:28:14+03:00*%
%TF.ProjectId,diploma,6469706c-6f6d-4612-9e6b-696361645f70,rev?*%
%TF.SameCoordinates,Original*%
%TF.FileFunction,Legend,Top*%
%TF.FilePolarity,Positive*%
%FSLAX46Y46*%
G04 Gerber Fmt 4.6, Leading zero omitted, Abs format (unit mm)*
G04 Created by KiCad (PCBNEW 9.0.1) date 2025-06-10 13:28:14*
%MOMM*%
%LPD*%
G01*
G04 APERTURE LIST*
%ADD10C,0.150000*%
%ADD11C,0.120000*%
%ADD12C,0.127000*%
%ADD13C,0.200000*%
G04 APERTURE END LIST*
D10*
X141404761Y-94454819D02*
X141071428Y-93978628D01*
X140833333Y-94454819D02*
X140833333Y-93454819D01*
X140833333Y-93454819D02*
X141214285Y-93454819D01*
X141214285Y-93454819D02*
X141309523Y-93502438D01*
X141309523Y-93502438D02*
X141357142Y-93550057D01*
X141357142Y-93550057D02*
X141404761Y-93645295D01*
X141404761Y-93645295D02*
X141404761Y-93788152D01*
X141404761Y-93788152D02*
X141357142Y-93883390D01*
X141357142Y-93883390D02*
X141309523Y-93931009D01*
X141309523Y-93931009D02*
X141214285Y-93978628D01*
X141214285Y-93978628D02*
X140833333Y-93978628D01*
X141690476Y-93454819D02*
X142023809Y-94454819D01*
X142023809Y-94454819D02*
X142357142Y-93454819D01*
X143214285Y-94454819D02*
X142642857Y-94454819D01*
X142928571Y-94454819D02*
X142928571Y-93454819D01*
X142928571Y-93454819D02*
X142833333Y-93597676D01*
X142833333Y-93597676D02*
X142738095Y-93692914D01*
X142738095Y-93692914D02*
X142642857Y-93740533D01*
X192478628Y-88976190D02*
X192954819Y-88976190D01*
X191954819Y-89309523D02*
X192478628Y-88976190D01*
X192478628Y-88976190D02*
X191954819Y-88642857D01*
X192050057Y-88357142D02*
X192002438Y-88309523D01*
X192002438Y-88309523D02*
X191954819Y-88214285D01*
X191954819Y-88214285D02*
X191954819Y-87976190D01*
X191954819Y-87976190D02*
X192002438Y-87880952D01*
X192002438Y-87880952D02*
X192050057Y-87833333D01*
X192050057Y-87833333D02*
X192145295Y-87785714D01*
X192145295Y-87785714D02*
X192240533Y-87785714D01*
X192240533Y-87785714D02*
X192383390Y-87833333D01*
X192383390Y-87833333D02*
X192954819Y-88404761D01*
X192954819Y-88404761D02*
X192954819Y-87785714D01*
X131333333Y-94954819D02*
X131000000Y-94478628D01*
X130761905Y-94954819D02*
X130761905Y-93954819D01*
X130761905Y-93954819D02*
X131142857Y-93954819D01*
X131142857Y-93954819D02*
X131238095Y-94002438D01*
X131238095Y-94002438D02*
X131285714Y-94050057D01*
X131285714Y-94050057D02*
X131333333Y-94145295D01*
X131333333Y-94145295D02*
X131333333Y-94288152D01*
X131333333Y-94288152D02*
X131285714Y-94383390D01*
X131285714Y-94383390D02*
X131238095Y-94431009D01*
X131238095Y-94431009D02*
X131142857Y-94478628D01*
X131142857Y-94478628D02*
X130761905Y-94478628D01*
X131666667Y-93954819D02*
X132333333Y-93954819D01*
X132333333Y-93954819D02*
X131904762Y-94954819D01*
X205824819Y-75142857D02*
X205348628Y-75476190D01*
X205824819Y-75714285D02*
X204824819Y-75714285D01*
X204824819Y-75714285D02*
X204824819Y-75333333D01*
X204824819Y-75333333D02*
X204872438Y-75238095D01*
X204872438Y-75238095D02*
X204920057Y-75190476D01*
X204920057Y-75190476D02*
X205015295Y-75142857D01*
X205015295Y-75142857D02*
X205158152Y-75142857D01*
X205158152Y-75142857D02*
X205253390Y-75190476D01*
X205253390Y-75190476D02*
X205301009Y-75238095D01*
X205301009Y-75238095D02*
X205348628Y-75333333D01*
X205348628Y-75333333D02*
X205348628Y-75714285D01*
X205824819Y-74190476D02*
X205824819Y-74761904D01*
X205824819Y-74476190D02*
X204824819Y-74476190D01*
X204824819Y-74476190D02*
X204967676Y-74571428D01*
X204967676Y-74571428D02*
X205062914Y-74666666D01*
X205062914Y-74666666D02*
X205110533Y-74761904D01*
X204824819Y-73285714D02*
X204824819Y-73761904D01*
X204824819Y-73761904D02*
X205301009Y-73809523D01*
X205301009Y-73809523D02*
X205253390Y-73761904D01*
X205253390Y-73761904D02*
X205205771Y-73666666D01*
X205205771Y-73666666D02*
X205205771Y-73428571D01*
X205205771Y-73428571D02*
X205253390Y-73333333D01*
X205253390Y-73333333D02*
X205301009Y-73285714D01*
X205301009Y-73285714D02*
X205396247Y-73238095D01*
X205396247Y-73238095D02*
X205634342Y-73238095D01*
X205634342Y-73238095D02*
X205729580Y-73285714D01*
X205729580Y-73285714D02*
X205777200Y-73333333D01*
X205777200Y-73333333D02*
X205824819Y-73428571D01*
X205824819Y-73428571D02*
X205824819Y-73666666D01*
X205824819Y-73666666D02*
X205777200Y-73761904D01*
X205777200Y-73761904D02*
X205729580Y-73809523D01*
X117454819Y-139238094D02*
X116454819Y-139238094D01*
X116454819Y-139238094D02*
X116454819Y-138857142D01*
X116454819Y-138857142D02*
X116502438Y-138761904D01*
X116502438Y-138761904D02*
X116550057Y-138714285D01*
X116550057Y-138714285D02*
X116645295Y-138666666D01*
X116645295Y-138666666D02*
X116788152Y-138666666D01*
X116788152Y-138666666D02*
X116883390Y-138714285D01*
X116883390Y-138714285D02*
X116931009Y-138761904D01*
X116931009Y-138761904D02*
X116978628Y-138857142D01*
X116978628Y-138857142D02*
X116978628Y-139238094D01*
X117454819Y-137714285D02*
X117454819Y-138285713D01*
X117454819Y-137999999D02*
X116454819Y-137999999D01*
X116454819Y-137999999D02*
X116597676Y-138095237D01*
X116597676Y-138095237D02*
X116692914Y-138190475D01*
X116692914Y-138190475D02*
X116740533Y-138285713D01*
X132333333Y-99454819D02*
X132000000Y-98978628D01*
X131761905Y-99454819D02*
X131761905Y-98454819D01*
X131761905Y-98454819D02*
X132142857Y-98454819D01*
X132142857Y-98454819D02*
X132238095Y-98502438D01*
X132238095Y-98502438D02*
X132285714Y-98550057D01*
X132285714Y-98550057D02*
X132333333Y-98645295D01*
X132333333Y-98645295D02*
X132333333Y-98788152D01*
X132333333Y-98788152D02*
X132285714Y-98883390D01*
X132285714Y-98883390D02*
X132238095Y-98931009D01*
X132238095Y-98931009D02*
X132142857Y-98978628D01*
X132142857Y-98978628D02*
X131761905Y-98978628D01*
X133238095Y-98454819D02*
X132761905Y-98454819D01*
X132761905Y-98454819D02*
X132714286Y-98931009D01*
X132714286Y-98931009D02*
X132761905Y-98883390D01*
X132761905Y-98883390D02*
X132857143Y-98835771D01*
X132857143Y-98835771D02*
X133095238Y-98835771D01*
X133095238Y-98835771D02*
X133190476Y-98883390D01*
X133190476Y-98883390D02*
X133238095Y-98931009D01*
X133238095Y-98931009D02*
X133285714Y-99026247D01*
X133285714Y-99026247D02*
X133285714Y-99264342D01*
X133285714Y-99264342D02*
X133238095Y-99359580D01*
X133238095Y-99359580D02*
X133190476Y-99407200D01*
X133190476Y-99407200D02*
X133095238Y-99454819D01*
X133095238Y-99454819D02*
X132857143Y-99454819D01*
X132857143Y-99454819D02*
X132761905Y-99407200D01*
X132761905Y-99407200D02*
X132714286Y-99359580D01*
X159761905Y-93954819D02*
X159761905Y-92954819D01*
X159761905Y-92954819D02*
X160000000Y-92954819D01*
X160000000Y-92954819D02*
X160142857Y-93002438D01*
X160142857Y-93002438D02*
X160238095Y-93097676D01*
X160238095Y-93097676D02*
X160285714Y-93192914D01*
X160285714Y-93192914D02*
X160333333Y-93383390D01*
X160333333Y-93383390D02*
X160333333Y-93526247D01*
X160333333Y-93526247D02*
X160285714Y-93716723D01*
X160285714Y-93716723D02*
X160238095Y-93811961D01*
X160238095Y-93811961D02*
X160142857Y-93907200D01*
X160142857Y-93907200D02*
X160000000Y-93954819D01*
X160000000Y-93954819D02*
X159761905Y-93954819D01*
X161238095Y-92954819D02*
X160761905Y-92954819D01*
X160761905Y-92954819D02*
X160714286Y-93431009D01*
X160714286Y-93431009D02*
X160761905Y-93383390D01*
X160761905Y-93383390D02*
X160857143Y-93335771D01*
X160857143Y-93335771D02*
X161095238Y-93335771D01*
X161095238Y-93335771D02*
X161190476Y-93383390D01*
X161190476Y-93383390D02*
X161238095Y-93431009D01*
X161238095Y-93431009D02*
X161285714Y-93526247D01*
X161285714Y-93526247D02*
X161285714Y-93764342D01*
X161285714Y-93764342D02*
X161238095Y-93859580D01*
X161238095Y-93859580D02*
X161190476Y-93907200D01*
X161190476Y-93907200D02*
X161095238Y-93954819D01*
X161095238Y-93954819D02*
X160857143Y-93954819D01*
X160857143Y-93954819D02*
X160761905Y-93907200D01*
X160761905Y-93907200D02*
X160714286Y-93859580D01*
X170738095Y-98954819D02*
X170738095Y-97954819D01*
X171309523Y-98954819D02*
X170880952Y-98383390D01*
X171309523Y-97954819D02*
X170738095Y-98526247D01*
X167534819Y-71102857D02*
X167058628Y-71436190D01*
X167534819Y-71674285D02*
X166534819Y-71674285D01*
X166534819Y-71674285D02*
X166534819Y-71293333D01*
X166534819Y-71293333D02*
X166582438Y-71198095D01*
X166582438Y-71198095D02*
X166630057Y-71150476D01*
X166630057Y-71150476D02*
X166725295Y-71102857D01*
X166725295Y-71102857D02*
X166868152Y-71102857D01*
X166868152Y-71102857D02*
X166963390Y-71150476D01*
X166963390Y-71150476D02*
X167011009Y-71198095D01*
X167011009Y-71198095D02*
X167058628Y-71293333D01*
X167058628Y-71293333D02*
X167058628Y-71674285D01*
X167534819Y-70150476D02*
X167534819Y-70721904D01*
X167534819Y-70436190D02*
X166534819Y-70436190D01*
X166534819Y-70436190D02*
X166677676Y-70531428D01*
X166677676Y-70531428D02*
X166772914Y-70626666D01*
X166772914Y-70626666D02*
X166820533Y-70721904D01*
X166534819Y-69531428D02*
X166534819Y-69436190D01*
X166534819Y-69436190D02*
X166582438Y-69340952D01*
X166582438Y-69340952D02*
X166630057Y-69293333D01*
X166630057Y-69293333D02*
X166725295Y-69245714D01*
X166725295Y-69245714D02*
X166915771Y-69198095D01*
X166915771Y-69198095D02*
X167153866Y-69198095D01*
X167153866Y-69198095D02*
X167344342Y-69245714D01*
X167344342Y-69245714D02*
X167439580Y-69293333D01*
X167439580Y-69293333D02*
X167487200Y-69340952D01*
X167487200Y-69340952D02*
X167534819Y-69436190D01*
X167534819Y-69436190D02*
X167534819Y-69531428D01*
X167534819Y-69531428D02*
X167487200Y-69626666D01*
X167487200Y-69626666D02*
X167439580Y-69674285D01*
X167439580Y-69674285D02*
X167344342Y-69721904D01*
X167344342Y-69721904D02*
X167153866Y-69769523D01*
X167153866Y-69769523D02*
X166915771Y-69769523D01*
X166915771Y-69769523D02*
X166725295Y-69721904D01*
X166725295Y-69721904D02*
X166630057Y-69674285D01*
X166630057Y-69674285D02*
X166582438Y-69626666D01*
X166582438Y-69626666D02*
X166534819Y-69531428D01*
X159761905Y-95454819D02*
X159761905Y-94454819D01*
X159761905Y-94454819D02*
X160000000Y-94454819D01*
X160000000Y-94454819D02*
X160142857Y-94502438D01*
X160142857Y-94502438D02*
X160238095Y-94597676D01*
X160238095Y-94597676D02*
X160285714Y-94692914D01*
X160285714Y-94692914D02*
X160333333Y-94883390D01*
X160333333Y-94883390D02*
X160333333Y-95026247D01*
X160333333Y-95026247D02*
X160285714Y-95216723D01*
X160285714Y-95216723D02*
X160238095Y-95311961D01*
X160238095Y-95311961D02*
X160142857Y-95407200D01*
X160142857Y-95407200D02*
X160000000Y-95454819D01*
X160000000Y-95454819D02*
X159761905Y-95454819D01*
X161190476Y-94788152D02*
X161190476Y-95454819D01*
X160952381Y-94407200D02*
X160714286Y-95121485D01*
X160714286Y-95121485D02*
X161333333Y-95121485D01*
X170738095Y-100454819D02*
X170738095Y-99454819D01*
X171309523Y-100454819D02*
X170880952Y-99883390D01*
X171309523Y-99454819D02*
X170738095Y-100026247D01*
X181738095Y-77954819D02*
X181738095Y-78764342D01*
X181738095Y-78764342D02*
X181785714Y-78859580D01*
X181785714Y-78859580D02*
X181833333Y-78907200D01*
X181833333Y-78907200D02*
X181928571Y-78954819D01*
X181928571Y-78954819D02*
X182119047Y-78954819D01*
X182119047Y-78954819D02*
X182214285Y-78907200D01*
X182214285Y-78907200D02*
X182261904Y-78859580D01*
X182261904Y-78859580D02*
X182309523Y-78764342D01*
X182309523Y-78764342D02*
X182309523Y-77954819D01*
X183261904Y-77954819D02*
X182785714Y-77954819D01*
X182785714Y-77954819D02*
X182738095Y-78431009D01*
X182738095Y-78431009D02*
X182785714Y-78383390D01*
X182785714Y-78383390D02*
X182880952Y-78335771D01*
X182880952Y-78335771D02*
X183119047Y-78335771D01*
X183119047Y-78335771D02*
X183214285Y-78383390D01*
X183214285Y-78383390D02*
X183261904Y-78431009D01*
X183261904Y-78431009D02*
X183309523Y-78526247D01*
X183309523Y-78526247D02*
X183309523Y-78764342D01*
X183309523Y-78764342D02*
X183261904Y-78859580D01*
X183261904Y-78859580D02*
X183214285Y-78907200D01*
X183214285Y-78907200D02*
X183119047Y-78954819D01*
X183119047Y-78954819D02*
X182880952Y-78954819D01*
X182880952Y-78954819D02*
X182785714Y-78907200D01*
X182785714Y-78907200D02*
X182738095Y-78859580D01*
X133333333Y-82459580D02*
X133285714Y-82507200D01*
X133285714Y-82507200D02*
X133142857Y-82554819D01*
X133142857Y-82554819D02*
X133047619Y-82554819D01*
X133047619Y-82554819D02*
X132904762Y-82507200D01*
X132904762Y-82507200D02*
X132809524Y-82411961D01*
X132809524Y-82411961D02*
X132761905Y-82316723D01*
X132761905Y-82316723D02*
X132714286Y-82126247D01*
X132714286Y-82126247D02*
X132714286Y-81983390D01*
X132714286Y-81983390D02*
X132761905Y-81792914D01*
X132761905Y-81792914D02*
X132809524Y-81697676D01*
X132809524Y-81697676D02*
X132904762Y-81602438D01*
X132904762Y-81602438D02*
X133047619Y-81554819D01*
X133047619Y-81554819D02*
X133142857Y-81554819D01*
X133142857Y-81554819D02*
X133285714Y-81602438D01*
X133285714Y-81602438D02*
X133333333Y-81650057D01*
X134190476Y-81554819D02*
X134000000Y-81554819D01*
X134000000Y-81554819D02*
X133904762Y-81602438D01*
X133904762Y-81602438D02*
X133857143Y-81650057D01*
X133857143Y-81650057D02*
X133761905Y-81792914D01*
X133761905Y-81792914D02*
X133714286Y-81983390D01*
X133714286Y-81983390D02*
X133714286Y-82364342D01*
X133714286Y-82364342D02*
X133761905Y-82459580D01*
X133761905Y-82459580D02*
X133809524Y-82507200D01*
X133809524Y-82507200D02*
X133904762Y-82554819D01*
X133904762Y-82554819D02*
X134095238Y-82554819D01*
X134095238Y-82554819D02*
X134190476Y-82507200D01*
X134190476Y-82507200D02*
X134238095Y-82459580D01*
X134238095Y-82459580D02*
X134285714Y-82364342D01*
X134285714Y-82364342D02*
X134285714Y-82126247D01*
X134285714Y-82126247D02*
X134238095Y-82031009D01*
X134238095Y-82031009D02*
X134190476Y-81983390D01*
X134190476Y-81983390D02*
X134095238Y-81935771D01*
X134095238Y-81935771D02*
X133904762Y-81935771D01*
X133904762Y-81935771D02*
X133809524Y-81983390D01*
X133809524Y-81983390D02*
X133761905Y-82031009D01*
X133761905Y-82031009D02*
X133714286Y-82126247D01*
X130166667Y-50407200D02*
X130309524Y-50454819D01*
X130309524Y-50454819D02*
X130547619Y-50454819D01*
X130547619Y-50454819D02*
X130642857Y-50407200D01*
X130642857Y-50407200D02*
X130690476Y-50359580D01*
X130690476Y-50359580D02*
X130738095Y-50264342D01*
X130738095Y-50264342D02*
X130738095Y-50169104D01*
X130738095Y-50169104D02*
X130690476Y-50073866D01*
X130690476Y-50073866D02*
X130642857Y-50026247D01*
X130642857Y-50026247D02*
X130547619Y-49978628D01*
X130547619Y-49978628D02*
X130357143Y-49931009D01*
X130357143Y-49931009D02*
X130261905Y-49883390D01*
X130261905Y-49883390D02*
X130214286Y-49835771D01*
X130214286Y-49835771D02*
X130166667Y-49740533D01*
X130166667Y-49740533D02*
X130166667Y-49645295D01*
X130166667Y-49645295D02*
X130214286Y-49550057D01*
X130214286Y-49550057D02*
X130261905Y-49502438D01*
X130261905Y-49502438D02*
X130357143Y-49454819D01*
X130357143Y-49454819D02*
X130595238Y-49454819D01*
X130595238Y-49454819D02*
X130738095Y-49502438D01*
X131071429Y-49454819D02*
X131309524Y-50454819D01*
X131309524Y-50454819D02*
X131500000Y-49740533D01*
X131500000Y-49740533D02*
X131690476Y-50454819D01*
X131690476Y-50454819D02*
X131928572Y-49454819D01*
X132833333Y-50454819D02*
X132261905Y-50454819D01*
X132547619Y-50454819D02*
X132547619Y-49454819D01*
X132547619Y-49454819D02*
X132452381Y-49597676D01*
X132452381Y-49597676D02*
X132357143Y-49692914D01*
X132357143Y-49692914D02*
X132261905Y-49740533D01*
X132333333Y-96954819D02*
X132000000Y-96478628D01*
X131761905Y-96954819D02*
X131761905Y-95954819D01*
X131761905Y-95954819D02*
X132142857Y-95954819D01*
X132142857Y-95954819D02*
X132238095Y-96002438D01*
X132238095Y-96002438D02*
X132285714Y-96050057D01*
X132285714Y-96050057D02*
X132333333Y-96145295D01*
X132333333Y-96145295D02*
X132333333Y-96288152D01*
X132333333Y-96288152D02*
X132285714Y-96383390D01*
X132285714Y-96383390D02*
X132238095Y-96431009D01*
X132238095Y-96431009D02*
X132142857Y-96478628D01*
X132142857Y-96478628D02*
X131761905Y-96478628D01*
X133190476Y-96288152D02*
X133190476Y-96954819D01*
X132952381Y-95907200D02*
X132714286Y-96621485D01*
X132714286Y-96621485D02*
X133333333Y-96621485D01*
X171714285Y-113931009D02*
X171857142Y-113978628D01*
X171857142Y-113978628D02*
X171904761Y-114026247D01*
X171904761Y-114026247D02*
X171952380Y-114121485D01*
X171952380Y-114121485D02*
X171952380Y-114264342D01*
X171952380Y-114264342D02*
X171904761Y-114359580D01*
X171904761Y-114359580D02*
X171857142Y-114407200D01*
X171857142Y-114407200D02*
X171761904Y-114454819D01*
X171761904Y-114454819D02*
X171380952Y-114454819D01*
X171380952Y-114454819D02*
X171380952Y-113454819D01*
X171380952Y-113454819D02*
X171714285Y-113454819D01*
X171714285Y-113454819D02*
X171809523Y-113502438D01*
X171809523Y-113502438D02*
X171857142Y-113550057D01*
X171857142Y-113550057D02*
X171904761Y-113645295D01*
X171904761Y-113645295D02*
X171904761Y-113740533D01*
X171904761Y-113740533D02*
X171857142Y-113835771D01*
X171857142Y-113835771D02*
X171809523Y-113883390D01*
X171809523Y-113883390D02*
X171714285Y-113931009D01*
X171714285Y-113931009D02*
X171380952Y-113931009D01*
X172238095Y-113454819D02*
X172809523Y-113454819D01*
X172523809Y-114454819D02*
X172523809Y-113454819D01*
X173666666Y-114454819D02*
X173095238Y-114454819D01*
X173380952Y-114454819D02*
X173380952Y-113454819D01*
X173380952Y-113454819D02*
X173285714Y-113597676D01*
X173285714Y-113597676D02*
X173190476Y-113692914D01*
X173190476Y-113692914D02*
X173095238Y-113740533D01*
X203359580Y-90142857D02*
X203407200Y-90190476D01*
X203407200Y-90190476D02*
X203454819Y-90333333D01*
X203454819Y-90333333D02*
X203454819Y-90428571D01*
X203454819Y-90428571D02*
X203407200Y-90571428D01*
X203407200Y-90571428D02*
X203311961Y-90666666D01*
X203311961Y-90666666D02*
X203216723Y-90714285D01*
X203216723Y-90714285D02*
X203026247Y-90761904D01*
X203026247Y-90761904D02*
X202883390Y-90761904D01*
X202883390Y-90761904D02*
X202692914Y-90714285D01*
X202692914Y-90714285D02*
X202597676Y-90666666D01*
X202597676Y-90666666D02*
X202502438Y-90571428D01*
X202502438Y-90571428D02*
X202454819Y-90428571D01*
X202454819Y-90428571D02*
X202454819Y-90333333D01*
X202454819Y-90333333D02*
X202502438Y-90190476D01*
X202502438Y-90190476D02*
X202550057Y-90142857D01*
X203454819Y-89190476D02*
X203454819Y-89761904D01*
X203454819Y-89476190D02*
X202454819Y-89476190D01*
X202454819Y-89476190D02*
X202597676Y-89571428D01*
X202597676Y-89571428D02*
X202692914Y-89666666D01*
X202692914Y-89666666D02*
X202740533Y-89761904D01*
X202454819Y-88857142D02*
X202454819Y-88238095D01*
X202454819Y-88238095D02*
X202835771Y-88571428D01*
X202835771Y-88571428D02*
X202835771Y-88428571D01*
X202835771Y-88428571D02*
X202883390Y-88333333D01*
X202883390Y-88333333D02*
X202931009Y-88285714D01*
X202931009Y-88285714D02*
X203026247Y-88238095D01*
X203026247Y-88238095D02*
X203264342Y-88238095D01*
X203264342Y-88238095D02*
X203359580Y-88285714D01*
X203359580Y-88285714D02*
X203407200Y-88333333D01*
X203407200Y-88333333D02*
X203454819Y-88428571D01*
X203454819Y-88428571D02*
X203454819Y-88714285D01*
X203454819Y-88714285D02*
X203407200Y-88809523D01*
X203407200Y-88809523D02*
X203359580Y-88857142D01*
X126404761Y-99050057D02*
X126309523Y-99002438D01*
X126309523Y-99002438D02*
X126214285Y-98907200D01*
X126214285Y-98907200D02*
X126071428Y-98764342D01*
X126071428Y-98764342D02*
X125976190Y-98716723D01*
X125976190Y-98716723D02*
X125880952Y-98716723D01*
X125928571Y-98954819D02*
X125833333Y-98907200D01*
X125833333Y-98907200D02*
X125738095Y-98811961D01*
X125738095Y-98811961D02*
X125690476Y-98621485D01*
X125690476Y-98621485D02*
X125690476Y-98288152D01*
X125690476Y-98288152D02*
X125738095Y-98097676D01*
X125738095Y-98097676D02*
X125833333Y-98002438D01*
X125833333Y-98002438D02*
X125928571Y-97954819D01*
X125928571Y-97954819D02*
X126119047Y-97954819D01*
X126119047Y-97954819D02*
X126214285Y-98002438D01*
X126214285Y-98002438D02*
X126309523Y-98097676D01*
X126309523Y-98097676D02*
X126357142Y-98288152D01*
X126357142Y-98288152D02*
X126357142Y-98621485D01*
X126357142Y-98621485D02*
X126309523Y-98811961D01*
X126309523Y-98811961D02*
X126214285Y-98907200D01*
X126214285Y-98907200D02*
X126119047Y-98954819D01*
X126119047Y-98954819D02*
X125928571Y-98954819D01*
X127309523Y-98954819D02*
X126738095Y-98954819D01*
X127023809Y-98954819D02*
X127023809Y-97954819D01*
X127023809Y-97954819D02*
X126928571Y-98097676D01*
X126928571Y-98097676D02*
X126833333Y-98192914D01*
X126833333Y-98192914D02*
X126738095Y-98240533D01*
X163859580Y-89142857D02*
X163907200Y-89190476D01*
X163907200Y-89190476D02*
X163954819Y-89333333D01*
X163954819Y-89333333D02*
X163954819Y-89428571D01*
X163954819Y-89428571D02*
X163907200Y-89571428D01*
X163907200Y-89571428D02*
X163811961Y-89666666D01*
X163811961Y-89666666D02*
X163716723Y-89714285D01*
X163716723Y-89714285D02*
X163526247Y-89761904D01*
X163526247Y-89761904D02*
X163383390Y-89761904D01*
X163383390Y-89761904D02*
X163192914Y-89714285D01*
X163192914Y-89714285D02*
X163097676Y-89666666D01*
X163097676Y-89666666D02*
X163002438Y-89571428D01*
X163002438Y-89571428D02*
X162954819Y-89428571D01*
X162954819Y-89428571D02*
X162954819Y-89333333D01*
X162954819Y-89333333D02*
X163002438Y-89190476D01*
X163002438Y-89190476D02*
X163050057Y-89142857D01*
X163954819Y-88190476D02*
X163954819Y-88761904D01*
X163954819Y-88476190D02*
X162954819Y-88476190D01*
X162954819Y-88476190D02*
X163097676Y-88571428D01*
X163097676Y-88571428D02*
X163192914Y-88666666D01*
X163192914Y-88666666D02*
X163240533Y-88761904D01*
X163288152Y-87333333D02*
X163954819Y-87333333D01*
X162907200Y-87571428D02*
X163621485Y-87809523D01*
X163621485Y-87809523D02*
X163621485Y-87190476D01*
X117859580Y-57142857D02*
X117907200Y-57190476D01*
X117907200Y-57190476D02*
X117954819Y-57333333D01*
X117954819Y-57333333D02*
X117954819Y-57428571D01*
X117954819Y-57428571D02*
X117907200Y-57571428D01*
X117907200Y-57571428D02*
X117811961Y-57666666D01*
X117811961Y-57666666D02*
X117716723Y-57714285D01*
X117716723Y-57714285D02*
X117526247Y-57761904D01*
X117526247Y-57761904D02*
X117383390Y-57761904D01*
X117383390Y-57761904D02*
X117192914Y-57714285D01*
X117192914Y-57714285D02*
X117097676Y-57666666D01*
X117097676Y-57666666D02*
X117002438Y-57571428D01*
X117002438Y-57571428D02*
X116954819Y-57428571D01*
X116954819Y-57428571D02*
X116954819Y-57333333D01*
X116954819Y-57333333D02*
X117002438Y-57190476D01*
X117002438Y-57190476D02*
X117050057Y-57142857D01*
X117954819Y-56190476D02*
X117954819Y-56761904D01*
X117954819Y-56476190D02*
X116954819Y-56476190D01*
X116954819Y-56476190D02*
X117097676Y-56571428D01*
X117097676Y-56571428D02*
X117192914Y-56666666D01*
X117192914Y-56666666D02*
X117240533Y-56761904D01*
X116954819Y-55571428D02*
X116954819Y-55476190D01*
X116954819Y-55476190D02*
X117002438Y-55380952D01*
X117002438Y-55380952D02*
X117050057Y-55333333D01*
X117050057Y-55333333D02*
X117145295Y-55285714D01*
X117145295Y-55285714D02*
X117335771Y-55238095D01*
X117335771Y-55238095D02*
X117573866Y-55238095D01*
X117573866Y-55238095D02*
X117764342Y-55285714D01*
X117764342Y-55285714D02*
X117859580Y-55333333D01*
X117859580Y-55333333D02*
X117907200Y-55380952D01*
X117907200Y-55380952D02*
X117954819Y-55476190D01*
X117954819Y-55476190D02*
X117954819Y-55571428D01*
X117954819Y-55571428D02*
X117907200Y-55666666D01*
X117907200Y-55666666D02*
X117859580Y-55714285D01*
X117859580Y-55714285D02*
X117764342Y-55761904D01*
X117764342Y-55761904D02*
X117573866Y-55809523D01*
X117573866Y-55809523D02*
X117335771Y-55809523D01*
X117335771Y-55809523D02*
X117145295Y-55761904D01*
X117145295Y-55761904D02*
X117050057Y-55714285D01*
X117050057Y-55714285D02*
X117002438Y-55666666D01*
X117002438Y-55666666D02*
X116954819Y-55571428D01*
X198084731Y-100142857D02*
X198132351Y-100190476D01*
X198132351Y-100190476D02*
X198179970Y-100333333D01*
X198179970Y-100333333D02*
X198179970Y-100428571D01*
X198179970Y-100428571D02*
X198132351Y-100571428D01*
X198132351Y-100571428D02*
X198037112Y-100666666D01*
X198037112Y-100666666D02*
X197941874Y-100714285D01*
X197941874Y-100714285D02*
X197751398Y-100761904D01*
X197751398Y-100761904D02*
X197608541Y-100761904D01*
X197608541Y-100761904D02*
X197418065Y-100714285D01*
X197418065Y-100714285D02*
X197322827Y-100666666D01*
X197322827Y-100666666D02*
X197227589Y-100571428D01*
X197227589Y-100571428D02*
X197179970Y-100428571D01*
X197179970Y-100428571D02*
X197179970Y-100333333D01*
X197179970Y-100333333D02*
X197227589Y-100190476D01*
X197227589Y-100190476D02*
X197275208Y-100142857D01*
X197275208Y-99761904D02*
X197227589Y-99714285D01*
X197227589Y-99714285D02*
X197179970Y-99619047D01*
X197179970Y-99619047D02*
X197179970Y-99380952D01*
X197179970Y-99380952D02*
X197227589Y-99285714D01*
X197227589Y-99285714D02*
X197275208Y-99238095D01*
X197275208Y-99238095D02*
X197370446Y-99190476D01*
X197370446Y-99190476D02*
X197465684Y-99190476D01*
X197465684Y-99190476D02*
X197608541Y-99238095D01*
X197608541Y-99238095D02*
X198179970Y-99809523D01*
X198179970Y-99809523D02*
X198179970Y-99190476D01*
X197179970Y-98571428D02*
X197179970Y-98476190D01*
X197179970Y-98476190D02*
X197227589Y-98380952D01*
X197227589Y-98380952D02*
X197275208Y-98333333D01*
X197275208Y-98333333D02*
X197370446Y-98285714D01*
X197370446Y-98285714D02*
X197560922Y-98238095D01*
X197560922Y-98238095D02*
X197799017Y-98238095D01*
X197799017Y-98238095D02*
X197989493Y-98285714D01*
X197989493Y-98285714D02*
X198084731Y-98333333D01*
X198084731Y-98333333D02*
X198132351Y-98380952D01*
X198132351Y-98380952D02*
X198179970Y-98476190D01*
X198179970Y-98476190D02*
X198179970Y-98571428D01*
X198179970Y-98571428D02*
X198132351Y-98666666D01*
X198132351Y-98666666D02*
X198084731Y-98714285D01*
X198084731Y-98714285D02*
X197989493Y-98761904D01*
X197989493Y-98761904D02*
X197799017Y-98809523D01*
X197799017Y-98809523D02*
X197560922Y-98809523D01*
X197560922Y-98809523D02*
X197370446Y-98761904D01*
X197370446Y-98761904D02*
X197275208Y-98714285D01*
X197275208Y-98714285D02*
X197227589Y-98666666D01*
X197227589Y-98666666D02*
X197179970Y-98571428D01*
X116359580Y-112666666D02*
X116407200Y-112714285D01*
X116407200Y-112714285D02*
X116454819Y-112857142D01*
X116454819Y-112857142D02*
X116454819Y-112952380D01*
X116454819Y-112952380D02*
X116407200Y-113095237D01*
X116407200Y-113095237D02*
X116311961Y-113190475D01*
X116311961Y-113190475D02*
X116216723Y-113238094D01*
X116216723Y-113238094D02*
X116026247Y-113285713D01*
X116026247Y-113285713D02*
X115883390Y-113285713D01*
X115883390Y-113285713D02*
X115692914Y-113238094D01*
X115692914Y-113238094D02*
X115597676Y-113190475D01*
X115597676Y-113190475D02*
X115502438Y-113095237D01*
X115502438Y-113095237D02*
X115454819Y-112952380D01*
X115454819Y-112952380D02*
X115454819Y-112857142D01*
X115454819Y-112857142D02*
X115502438Y-112714285D01*
X115502438Y-112714285D02*
X115550057Y-112666666D01*
X115788152Y-111809523D02*
X116454819Y-111809523D01*
X115407200Y-112047618D02*
X116121485Y-112285713D01*
X116121485Y-112285713D02*
X116121485Y-111666666D01*
X122454819Y-114261904D02*
X123264342Y-114261904D01*
X123264342Y-114261904D02*
X123359580Y-114214285D01*
X123359580Y-114214285D02*
X123407200Y-114166666D01*
X123407200Y-114166666D02*
X123454819Y-114071428D01*
X123454819Y-114071428D02*
X123454819Y-113880952D01*
X123454819Y-113880952D02*
X123407200Y-113785714D01*
X123407200Y-113785714D02*
X123359580Y-113738095D01*
X123359580Y-113738095D02*
X123264342Y-113690476D01*
X123264342Y-113690476D02*
X122454819Y-113690476D01*
X122550057Y-113261904D02*
X122502438Y-113214285D01*
X122502438Y-113214285D02*
X122454819Y-113119047D01*
X122454819Y-113119047D02*
X122454819Y-112880952D01*
X122454819Y-112880952D02*
X122502438Y-112785714D01*
X122502438Y-112785714D02*
X122550057Y-112738095D01*
X122550057Y-112738095D02*
X122645295Y-112690476D01*
X122645295Y-112690476D02*
X122740533Y-112690476D01*
X122740533Y-112690476D02*
X122883390Y-112738095D01*
X122883390Y-112738095D02*
X123454819Y-113309523D01*
X123454819Y-113309523D02*
X123454819Y-112690476D01*
X166191666Y-76244819D02*
X166191666Y-76959104D01*
X166191666Y-76959104D02*
X166144047Y-77101961D01*
X166144047Y-77101961D02*
X166048809Y-77197200D01*
X166048809Y-77197200D02*
X165905952Y-77244819D01*
X165905952Y-77244819D02*
X165810714Y-77244819D01*
X166620238Y-76340057D02*
X166667857Y-76292438D01*
X166667857Y-76292438D02*
X166763095Y-76244819D01*
X166763095Y-76244819D02*
X167001190Y-76244819D01*
X167001190Y-76244819D02*
X167096428Y-76292438D01*
X167096428Y-76292438D02*
X167144047Y-76340057D01*
X167144047Y-76340057D02*
X167191666Y-76435295D01*
X167191666Y-76435295D02*
X167191666Y-76530533D01*
X167191666Y-76530533D02*
X167144047Y-76673390D01*
X167144047Y-76673390D02*
X166572619Y-77244819D01*
X166572619Y-77244819D02*
X167191666Y-77244819D01*
X198454819Y-89166666D02*
X197978628Y-89499999D01*
X198454819Y-89738094D02*
X197454819Y-89738094D01*
X197454819Y-89738094D02*
X197454819Y-89357142D01*
X197454819Y-89357142D02*
X197502438Y-89261904D01*
X197502438Y-89261904D02*
X197550057Y-89214285D01*
X197550057Y-89214285D02*
X197645295Y-89166666D01*
X197645295Y-89166666D02*
X197788152Y-89166666D01*
X197788152Y-89166666D02*
X197883390Y-89214285D01*
X197883390Y-89214285D02*
X197931009Y-89261904D01*
X197931009Y-89261904D02*
X197978628Y-89357142D01*
X197978628Y-89357142D02*
X197978628Y-89738094D01*
X197883390Y-88595237D02*
X197835771Y-88690475D01*
X197835771Y-88690475D02*
X197788152Y-88738094D01*
X197788152Y-88738094D02*
X197692914Y-88785713D01*
X197692914Y-88785713D02*
X197645295Y-88785713D01*
X197645295Y-88785713D02*
X197550057Y-88738094D01*
X197550057Y-88738094D02*
X197502438Y-88690475D01*
X197502438Y-88690475D02*
X197454819Y-88595237D01*
X197454819Y-88595237D02*
X197454819Y-88404761D01*
X197454819Y-88404761D02*
X197502438Y-88309523D01*
X197502438Y-88309523D02*
X197550057Y-88261904D01*
X197550057Y-88261904D02*
X197645295Y-88214285D01*
X197645295Y-88214285D02*
X197692914Y-88214285D01*
X197692914Y-88214285D02*
X197788152Y-88261904D01*
X197788152Y-88261904D02*
X197835771Y-88309523D01*
X197835771Y-88309523D02*
X197883390Y-88404761D01*
X197883390Y-88404761D02*
X197883390Y-88595237D01*
X197883390Y-88595237D02*
X197931009Y-88690475D01*
X197931009Y-88690475D02*
X197978628Y-88738094D01*
X197978628Y-88738094D02*
X198073866Y-88785713D01*
X198073866Y-88785713D02*
X198264342Y-88785713D01*
X198264342Y-88785713D02*
X198359580Y-88738094D01*
X198359580Y-88738094D02*
X198407200Y-88690475D01*
X198407200Y-88690475D02*
X198454819Y-88595237D01*
X198454819Y-88595237D02*
X198454819Y-88404761D01*
X198454819Y-88404761D02*
X198407200Y-88309523D01*
X198407200Y-88309523D02*
X198359580Y-88261904D01*
X198359580Y-88261904D02*
X198264342Y-88214285D01*
X198264342Y-88214285D02*
X198073866Y-88214285D01*
X198073866Y-88214285D02*
X197978628Y-88261904D01*
X197978628Y-88261904D02*
X197931009Y-88309523D01*
X197931009Y-88309523D02*
X197883390Y-88404761D01*
X173023809Y-91978628D02*
X173023809Y-92454819D01*
X172690476Y-91454819D02*
X173023809Y-91978628D01*
X173023809Y-91978628D02*
X173357142Y-91454819D01*
X174214285Y-92454819D02*
X173642857Y-92454819D01*
X173928571Y-92454819D02*
X173928571Y-91454819D01*
X173928571Y-91454819D02*
X173833333Y-91597676D01*
X173833333Y-91597676D02*
X173738095Y-91692914D01*
X173738095Y-91692914D02*
X173642857Y-91740533D01*
X199359580Y-72142857D02*
X199407200Y-72190476D01*
X199407200Y-72190476D02*
X199454819Y-72333333D01*
X199454819Y-72333333D02*
X199454819Y-72428571D01*
X199454819Y-72428571D02*
X199407200Y-72571428D01*
X199407200Y-72571428D02*
X199311961Y-72666666D01*
X199311961Y-72666666D02*
X199216723Y-72714285D01*
X199216723Y-72714285D02*
X199026247Y-72761904D01*
X199026247Y-72761904D02*
X198883390Y-72761904D01*
X198883390Y-72761904D02*
X198692914Y-72714285D01*
X198692914Y-72714285D02*
X198597676Y-72666666D01*
X198597676Y-72666666D02*
X198502438Y-72571428D01*
X198502438Y-72571428D02*
X198454819Y-72428571D01*
X198454819Y-72428571D02*
X198454819Y-72333333D01*
X198454819Y-72333333D02*
X198502438Y-72190476D01*
X198502438Y-72190476D02*
X198550057Y-72142857D01*
X199454819Y-71190476D02*
X199454819Y-71761904D01*
X199454819Y-71476190D02*
X198454819Y-71476190D01*
X198454819Y-71476190D02*
X198597676Y-71571428D01*
X198597676Y-71571428D02*
X198692914Y-71666666D01*
X198692914Y-71666666D02*
X198740533Y-71761904D01*
X199454819Y-70238095D02*
X199454819Y-70809523D01*
X199454819Y-70523809D02*
X198454819Y-70523809D01*
X198454819Y-70523809D02*
X198597676Y-70619047D01*
X198597676Y-70619047D02*
X198692914Y-70714285D01*
X198692914Y-70714285D02*
X198740533Y-70809523D01*
X131833333Y-112629819D02*
X131500000Y-112153628D01*
X131261905Y-112629819D02*
X131261905Y-111629819D01*
X131261905Y-111629819D02*
X131642857Y-111629819D01*
X131642857Y-111629819D02*
X131738095Y-111677438D01*
X131738095Y-111677438D02*
X131785714Y-111725057D01*
X131785714Y-111725057D02*
X131833333Y-111820295D01*
X131833333Y-111820295D02*
X131833333Y-111963152D01*
X131833333Y-111963152D02*
X131785714Y-112058390D01*
X131785714Y-112058390D02*
X131738095Y-112106009D01*
X131738095Y-112106009D02*
X131642857Y-112153628D01*
X131642857Y-112153628D02*
X131261905Y-112153628D01*
X132166667Y-111629819D02*
X132785714Y-111629819D01*
X132785714Y-111629819D02*
X132452381Y-112010771D01*
X132452381Y-112010771D02*
X132595238Y-112010771D01*
X132595238Y-112010771D02*
X132690476Y-112058390D01*
X132690476Y-112058390D02*
X132738095Y-112106009D01*
X132738095Y-112106009D02*
X132785714Y-112201247D01*
X132785714Y-112201247D02*
X132785714Y-112439342D01*
X132785714Y-112439342D02*
X132738095Y-112534580D01*
X132738095Y-112534580D02*
X132690476Y-112582200D01*
X132690476Y-112582200D02*
X132595238Y-112629819D01*
X132595238Y-112629819D02*
X132309524Y-112629819D01*
X132309524Y-112629819D02*
X132214286Y-112582200D01*
X132214286Y-112582200D02*
X132166667Y-112534580D01*
X117859580Y-61131066D02*
X117907200Y-61178685D01*
X117907200Y-61178685D02*
X117954819Y-61321542D01*
X117954819Y-61321542D02*
X117954819Y-61416780D01*
X117954819Y-61416780D02*
X117907200Y-61559637D01*
X117907200Y-61559637D02*
X117811961Y-61654875D01*
X117811961Y-61654875D02*
X117716723Y-61702494D01*
X117716723Y-61702494D02*
X117526247Y-61750113D01*
X117526247Y-61750113D02*
X117383390Y-61750113D01*
X117383390Y-61750113D02*
X117192914Y-61702494D01*
X117192914Y-61702494D02*
X117097676Y-61654875D01*
X117097676Y-61654875D02*
X117002438Y-61559637D01*
X117002438Y-61559637D02*
X116954819Y-61416780D01*
X116954819Y-61416780D02*
X116954819Y-61321542D01*
X116954819Y-61321542D02*
X117002438Y-61178685D01*
X117002438Y-61178685D02*
X117050057Y-61131066D01*
X117954819Y-60654875D02*
X117954819Y-60464399D01*
X117954819Y-60464399D02*
X117907200Y-60369161D01*
X117907200Y-60369161D02*
X117859580Y-60321542D01*
X117859580Y-60321542D02*
X117716723Y-60226304D01*
X117716723Y-60226304D02*
X117526247Y-60178685D01*
X117526247Y-60178685D02*
X117145295Y-60178685D01*
X117145295Y-60178685D02*
X117050057Y-60226304D01*
X117050057Y-60226304D02*
X117002438Y-60273923D01*
X117002438Y-60273923D02*
X116954819Y-60369161D01*
X116954819Y-60369161D02*
X116954819Y-60559637D01*
X116954819Y-60559637D02*
X117002438Y-60654875D01*
X117002438Y-60654875D02*
X117050057Y-60702494D01*
X117050057Y-60702494D02*
X117145295Y-60750113D01*
X117145295Y-60750113D02*
X117383390Y-60750113D01*
X117383390Y-60750113D02*
X117478628Y-60702494D01*
X117478628Y-60702494D02*
X117526247Y-60654875D01*
X117526247Y-60654875D02*
X117573866Y-60559637D01*
X117573866Y-60559637D02*
X117573866Y-60369161D01*
X117573866Y-60369161D02*
X117526247Y-60273923D01*
X117526247Y-60273923D02*
X117478628Y-60226304D01*
X117478628Y-60226304D02*
X117383390Y-60178685D01*
X127833333Y-126859580D02*
X127785714Y-126907200D01*
X127785714Y-126907200D02*
X127642857Y-126954819D01*
X127642857Y-126954819D02*
X127547619Y-126954819D01*
X127547619Y-126954819D02*
X127404762Y-126907200D01*
X127404762Y-126907200D02*
X127309524Y-126811961D01*
X127309524Y-126811961D02*
X127261905Y-126716723D01*
X127261905Y-126716723D02*
X127214286Y-126526247D01*
X127214286Y-126526247D02*
X127214286Y-126383390D01*
X127214286Y-126383390D02*
X127261905Y-126192914D01*
X127261905Y-126192914D02*
X127309524Y-126097676D01*
X127309524Y-126097676D02*
X127404762Y-126002438D01*
X127404762Y-126002438D02*
X127547619Y-125954819D01*
X127547619Y-125954819D02*
X127642857Y-125954819D01*
X127642857Y-125954819D02*
X127785714Y-126002438D01*
X127785714Y-126002438D02*
X127833333Y-126050057D01*
X128785714Y-126954819D02*
X128214286Y-126954819D01*
X128500000Y-126954819D02*
X128500000Y-125954819D01*
X128500000Y-125954819D02*
X128404762Y-126097676D01*
X128404762Y-126097676D02*
X128309524Y-126192914D01*
X128309524Y-126192914D02*
X128214286Y-126240533D01*
X122954819Y-132142857D02*
X122478628Y-132476190D01*
X122954819Y-132714285D02*
X121954819Y-132714285D01*
X121954819Y-132714285D02*
X121954819Y-132333333D01*
X121954819Y-132333333D02*
X122002438Y-132238095D01*
X122002438Y-132238095D02*
X122050057Y-132190476D01*
X122050057Y-132190476D02*
X122145295Y-132142857D01*
X122145295Y-132142857D02*
X122288152Y-132142857D01*
X122288152Y-132142857D02*
X122383390Y-132190476D01*
X122383390Y-132190476D02*
X122431009Y-132238095D01*
X122431009Y-132238095D02*
X122478628Y-132333333D01*
X122478628Y-132333333D02*
X122478628Y-132714285D01*
X122954819Y-131190476D02*
X122954819Y-131761904D01*
X122954819Y-131476190D02*
X121954819Y-131476190D01*
X121954819Y-131476190D02*
X122097676Y-131571428D01*
X122097676Y-131571428D02*
X122192914Y-131666666D01*
X122192914Y-131666666D02*
X122240533Y-131761904D01*
X122954819Y-130238095D02*
X122954819Y-130809523D01*
X122954819Y-130523809D02*
X121954819Y-130523809D01*
X121954819Y-130523809D02*
X122097676Y-130619047D01*
X122097676Y-130619047D02*
X122192914Y-130714285D01*
X122192914Y-130714285D02*
X122240533Y-130809523D01*
X183857142Y-80359580D02*
X183809523Y-80407200D01*
X183809523Y-80407200D02*
X183666666Y-80454819D01*
X183666666Y-80454819D02*
X183571428Y-80454819D01*
X183571428Y-80454819D02*
X183428571Y-80407200D01*
X183428571Y-80407200D02*
X183333333Y-80311961D01*
X183333333Y-80311961D02*
X183285714Y-80216723D01*
X183285714Y-80216723D02*
X183238095Y-80026247D01*
X183238095Y-80026247D02*
X183238095Y-79883390D01*
X183238095Y-79883390D02*
X183285714Y-79692914D01*
X183285714Y-79692914D02*
X183333333Y-79597676D01*
X183333333Y-79597676D02*
X183428571Y-79502438D01*
X183428571Y-79502438D02*
X183571428Y-79454819D01*
X183571428Y-79454819D02*
X183666666Y-79454819D01*
X183666666Y-79454819D02*
X183809523Y-79502438D01*
X183809523Y-79502438D02*
X183857142Y-79550057D01*
X184809523Y-80454819D02*
X184238095Y-80454819D01*
X184523809Y-80454819D02*
X184523809Y-79454819D01*
X184523809Y-79454819D02*
X184428571Y-79597676D01*
X184428571Y-79597676D02*
X184333333Y-79692914D01*
X184333333Y-79692914D02*
X184238095Y-79740533D01*
X185666666Y-79454819D02*
X185476190Y-79454819D01*
X185476190Y-79454819D02*
X185380952Y-79502438D01*
X185380952Y-79502438D02*
X185333333Y-79550057D01*
X185333333Y-79550057D02*
X185238095Y-79692914D01*
X185238095Y-79692914D02*
X185190476Y-79883390D01*
X185190476Y-79883390D02*
X185190476Y-80264342D01*
X185190476Y-80264342D02*
X185238095Y-80359580D01*
X185238095Y-80359580D02*
X185285714Y-80407200D01*
X185285714Y-80407200D02*
X185380952Y-80454819D01*
X185380952Y-80454819D02*
X185571428Y-80454819D01*
X185571428Y-80454819D02*
X185666666Y-80407200D01*
X185666666Y-80407200D02*
X185714285Y-80359580D01*
X185714285Y-80359580D02*
X185761904Y-80264342D01*
X185761904Y-80264342D02*
X185761904Y-80026247D01*
X185761904Y-80026247D02*
X185714285Y-79931009D01*
X185714285Y-79931009D02*
X185666666Y-79883390D01*
X185666666Y-79883390D02*
X185571428Y-79835771D01*
X185571428Y-79835771D02*
X185380952Y-79835771D01*
X185380952Y-79835771D02*
X185285714Y-79883390D01*
X185285714Y-79883390D02*
X185238095Y-79931009D01*
X185238095Y-79931009D02*
X185190476Y-80026247D01*
X182859580Y-93642857D02*
X182907200Y-93690476D01*
X182907200Y-93690476D02*
X182954819Y-93833333D01*
X182954819Y-93833333D02*
X182954819Y-93928571D01*
X182954819Y-93928571D02*
X182907200Y-94071428D01*
X182907200Y-94071428D02*
X182811961Y-94166666D01*
X182811961Y-94166666D02*
X182716723Y-94214285D01*
X182716723Y-94214285D02*
X182526247Y-94261904D01*
X182526247Y-94261904D02*
X182383390Y-94261904D01*
X182383390Y-94261904D02*
X182192914Y-94214285D01*
X182192914Y-94214285D02*
X182097676Y-94166666D01*
X182097676Y-94166666D02*
X182002438Y-94071428D01*
X182002438Y-94071428D02*
X181954819Y-93928571D01*
X181954819Y-93928571D02*
X181954819Y-93833333D01*
X181954819Y-93833333D02*
X182002438Y-93690476D01*
X182002438Y-93690476D02*
X182050057Y-93642857D01*
X182954819Y-92690476D02*
X182954819Y-93261904D01*
X182954819Y-92976190D02*
X181954819Y-92976190D01*
X181954819Y-92976190D02*
X182097676Y-93071428D01*
X182097676Y-93071428D02*
X182192914Y-93166666D01*
X182192914Y-93166666D02*
X182240533Y-93261904D01*
X182954819Y-92214285D02*
X182954819Y-92023809D01*
X182954819Y-92023809D02*
X182907200Y-91928571D01*
X182907200Y-91928571D02*
X182859580Y-91880952D01*
X182859580Y-91880952D02*
X182716723Y-91785714D01*
X182716723Y-91785714D02*
X182526247Y-91738095D01*
X182526247Y-91738095D02*
X182145295Y-91738095D01*
X182145295Y-91738095D02*
X182050057Y-91785714D01*
X182050057Y-91785714D02*
X182002438Y-91833333D01*
X182002438Y-91833333D02*
X181954819Y-91928571D01*
X181954819Y-91928571D02*
X181954819Y-92119047D01*
X181954819Y-92119047D02*
X182002438Y-92214285D01*
X182002438Y-92214285D02*
X182050057Y-92261904D01*
X182050057Y-92261904D02*
X182145295Y-92309523D01*
X182145295Y-92309523D02*
X182383390Y-92309523D01*
X182383390Y-92309523D02*
X182478628Y-92261904D01*
X182478628Y-92261904D02*
X182526247Y-92214285D01*
X182526247Y-92214285D02*
X182573866Y-92119047D01*
X182573866Y-92119047D02*
X182573866Y-91928571D01*
X182573866Y-91928571D02*
X182526247Y-91833333D01*
X182526247Y-91833333D02*
X182478628Y-91785714D01*
X182478628Y-91785714D02*
X182383390Y-91738095D01*
X187857142Y-89359580D02*
X187809523Y-89407200D01*
X187809523Y-89407200D02*
X187666666Y-89454819D01*
X187666666Y-89454819D02*
X187571428Y-89454819D01*
X187571428Y-89454819D02*
X187428571Y-89407200D01*
X187428571Y-89407200D02*
X187333333Y-89311961D01*
X187333333Y-89311961D02*
X187285714Y-89216723D01*
X187285714Y-89216723D02*
X187238095Y-89026247D01*
X187238095Y-89026247D02*
X187238095Y-88883390D01*
X187238095Y-88883390D02*
X187285714Y-88692914D01*
X187285714Y-88692914D02*
X187333333Y-88597676D01*
X187333333Y-88597676D02*
X187428571Y-88502438D01*
X187428571Y-88502438D02*
X187571428Y-88454819D01*
X187571428Y-88454819D02*
X187666666Y-88454819D01*
X187666666Y-88454819D02*
X187809523Y-88502438D01*
X187809523Y-88502438D02*
X187857142Y-88550057D01*
X188809523Y-89454819D02*
X188238095Y-89454819D01*
X188523809Y-89454819D02*
X188523809Y-88454819D01*
X188523809Y-88454819D02*
X188428571Y-88597676D01*
X188428571Y-88597676D02*
X188333333Y-88692914D01*
X188333333Y-88692914D02*
X188238095Y-88740533D01*
X189142857Y-88454819D02*
X189809523Y-88454819D01*
X189809523Y-88454819D02*
X189380952Y-89454819D01*
X184454819Y-70261904D02*
X185264342Y-70261904D01*
X185264342Y-70261904D02*
X185359580Y-70214285D01*
X185359580Y-70214285D02*
X185407200Y-70166666D01*
X185407200Y-70166666D02*
X185454819Y-70071428D01*
X185454819Y-70071428D02*
X185454819Y-69880952D01*
X185454819Y-69880952D02*
X185407200Y-69785714D01*
X185407200Y-69785714D02*
X185359580Y-69738095D01*
X185359580Y-69738095D02*
X185264342Y-69690476D01*
X185264342Y-69690476D02*
X184454819Y-69690476D01*
X184454819Y-68785714D02*
X184454819Y-68976190D01*
X184454819Y-68976190D02*
X184502438Y-69071428D01*
X184502438Y-69071428D02*
X184550057Y-69119047D01*
X184550057Y-69119047D02*
X184692914Y-69214285D01*
X184692914Y-69214285D02*
X184883390Y-69261904D01*
X184883390Y-69261904D02*
X185264342Y-69261904D01*
X185264342Y-69261904D02*
X185359580Y-69214285D01*
X185359580Y-69214285D02*
X185407200Y-69166666D01*
X185407200Y-69166666D02*
X185454819Y-69071428D01*
X185454819Y-69071428D02*
X185454819Y-68880952D01*
X185454819Y-68880952D02*
X185407200Y-68785714D01*
X185407200Y-68785714D02*
X185359580Y-68738095D01*
X185359580Y-68738095D02*
X185264342Y-68690476D01*
X185264342Y-68690476D02*
X185026247Y-68690476D01*
X185026247Y-68690476D02*
X184931009Y-68738095D01*
X184931009Y-68738095D02*
X184883390Y-68785714D01*
X184883390Y-68785714D02*
X184835771Y-68880952D01*
X184835771Y-68880952D02*
X184835771Y-69071428D01*
X184835771Y-69071428D02*
X184883390Y-69166666D01*
X184883390Y-69166666D02*
X184931009Y-69214285D01*
X184931009Y-69214285D02*
X185026247Y-69261904D01*
X171569285Y-134931009D02*
X171712142Y-134978628D01*
X171712142Y-134978628D02*
X171759761Y-135026247D01*
X171759761Y-135026247D02*
X171807380Y-135121485D01*
X171807380Y-135121485D02*
X171807380Y-135264342D01*
X171807380Y-135264342D02*
X171759761Y-135359580D01*
X171759761Y-135359580D02*
X171712142Y-135407200D01*
X171712142Y-135407200D02*
X171616904Y-135454819D01*
X171616904Y-135454819D02*
X171235952Y-135454819D01*
X171235952Y-135454819D02*
X171235952Y-134454819D01*
X171235952Y-134454819D02*
X171569285Y-134454819D01*
X171569285Y-134454819D02*
X171664523Y-134502438D01*
X171664523Y-134502438D02*
X171712142Y-134550057D01*
X171712142Y-134550057D02*
X171759761Y-134645295D01*
X171759761Y-134645295D02*
X171759761Y-134740533D01*
X171759761Y-134740533D02*
X171712142Y-134835771D01*
X171712142Y-134835771D02*
X171664523Y-134883390D01*
X171664523Y-134883390D02*
X171569285Y-134931009D01*
X171569285Y-134931009D02*
X171235952Y-134931009D01*
X172093095Y-134454819D02*
X172664523Y-134454819D01*
X172378809Y-135454819D02*
X172378809Y-134454819D01*
X172950238Y-134550057D02*
X172997857Y-134502438D01*
X172997857Y-134502438D02*
X173093095Y-134454819D01*
X173093095Y-134454819D02*
X173331190Y-134454819D01*
X173331190Y-134454819D02*
X173426428Y-134502438D01*
X173426428Y-134502438D02*
X173474047Y-134550057D01*
X173474047Y-134550057D02*
X173521666Y-134645295D01*
X173521666Y-134645295D02*
X173521666Y-134740533D01*
X173521666Y-134740533D02*
X173474047Y-134883390D01*
X173474047Y-134883390D02*
X172902619Y-135454819D01*
X172902619Y-135454819D02*
X173521666Y-135454819D01*
X119359580Y-104166666D02*
X119407200Y-104214285D01*
X119407200Y-104214285D02*
X119454819Y-104357142D01*
X119454819Y-104357142D02*
X119454819Y-104452380D01*
X119454819Y-104452380D02*
X119407200Y-104595237D01*
X119407200Y-104595237D02*
X119311961Y-104690475D01*
X119311961Y-104690475D02*
X119216723Y-104738094D01*
X119216723Y-104738094D02*
X119026247Y-104785713D01*
X119026247Y-104785713D02*
X118883390Y-104785713D01*
X118883390Y-104785713D02*
X118692914Y-104738094D01*
X118692914Y-104738094D02*
X118597676Y-104690475D01*
X118597676Y-104690475D02*
X118502438Y-104595237D01*
X118502438Y-104595237D02*
X118454819Y-104452380D01*
X118454819Y-104452380D02*
X118454819Y-104357142D01*
X118454819Y-104357142D02*
X118502438Y-104214285D01*
X118502438Y-104214285D02*
X118550057Y-104166666D01*
X118454819Y-103261904D02*
X118454819Y-103738094D01*
X118454819Y-103738094D02*
X118931009Y-103785713D01*
X118931009Y-103785713D02*
X118883390Y-103738094D01*
X118883390Y-103738094D02*
X118835771Y-103642856D01*
X118835771Y-103642856D02*
X118835771Y-103404761D01*
X118835771Y-103404761D02*
X118883390Y-103309523D01*
X118883390Y-103309523D02*
X118931009Y-103261904D01*
X118931009Y-103261904D02*
X119026247Y-103214285D01*
X119026247Y-103214285D02*
X119264342Y-103214285D01*
X119264342Y-103214285D02*
X119359580Y-103261904D01*
X119359580Y-103261904D02*
X119407200Y-103309523D01*
X119407200Y-103309523D02*
X119454819Y-103404761D01*
X119454819Y-103404761D02*
X119454819Y-103642856D01*
X119454819Y-103642856D02*
X119407200Y-103738094D01*
X119407200Y-103738094D02*
X119359580Y-103785713D01*
X132454819Y-136166666D02*
X131978628Y-136499999D01*
X132454819Y-136738094D02*
X131454819Y-136738094D01*
X131454819Y-136738094D02*
X131454819Y-136357142D01*
X131454819Y-136357142D02*
X131502438Y-136261904D01*
X131502438Y-136261904D02*
X131550057Y-136214285D01*
X131550057Y-136214285D02*
X131645295Y-136166666D01*
X131645295Y-136166666D02*
X131788152Y-136166666D01*
X131788152Y-136166666D02*
X131883390Y-136214285D01*
X131883390Y-136214285D02*
X131931009Y-136261904D01*
X131931009Y-136261904D02*
X131978628Y-136357142D01*
X131978628Y-136357142D02*
X131978628Y-136738094D01*
X132454819Y-135214285D02*
X132454819Y-135785713D01*
X132454819Y-135499999D02*
X131454819Y-135499999D01*
X131454819Y-135499999D02*
X131597676Y-135595237D01*
X131597676Y-135595237D02*
X131692914Y-135690475D01*
X131692914Y-135690475D02*
X131740533Y-135785713D01*
X126238095Y-80954819D02*
X126238095Y-81764342D01*
X126238095Y-81764342D02*
X126285714Y-81859580D01*
X126285714Y-81859580D02*
X126333333Y-81907200D01*
X126333333Y-81907200D02*
X126428571Y-81954819D01*
X126428571Y-81954819D02*
X126619047Y-81954819D01*
X126619047Y-81954819D02*
X126714285Y-81907200D01*
X126714285Y-81907200D02*
X126761904Y-81859580D01*
X126761904Y-81859580D02*
X126809523Y-81764342D01*
X126809523Y-81764342D02*
X126809523Y-80954819D01*
X127190476Y-80954819D02*
X127809523Y-80954819D01*
X127809523Y-80954819D02*
X127476190Y-81335771D01*
X127476190Y-81335771D02*
X127619047Y-81335771D01*
X127619047Y-81335771D02*
X127714285Y-81383390D01*
X127714285Y-81383390D02*
X127761904Y-81431009D01*
X127761904Y-81431009D02*
X127809523Y-81526247D01*
X127809523Y-81526247D02*
X127809523Y-81764342D01*
X127809523Y-81764342D02*
X127761904Y-81859580D01*
X127761904Y-81859580D02*
X127714285Y-81907200D01*
X127714285Y-81907200D02*
X127619047Y-81954819D01*
X127619047Y-81954819D02*
X127333333Y-81954819D01*
X127333333Y-81954819D02*
X127238095Y-81907200D01*
X127238095Y-81907200D02*
X127190476Y-81859580D01*
X202666666Y-65454819D02*
X202666666Y-66169104D01*
X202666666Y-66169104D02*
X202619047Y-66311961D01*
X202619047Y-66311961D02*
X202523809Y-66407200D01*
X202523809Y-66407200D02*
X202380952Y-66454819D01*
X202380952Y-66454819D02*
X202285714Y-66454819D01*
X203142857Y-66454819D02*
X203142857Y-65454819D01*
X203142857Y-65454819D02*
X203523809Y-65454819D01*
X203523809Y-65454819D02*
X203619047Y-65502438D01*
X203619047Y-65502438D02*
X203666666Y-65550057D01*
X203666666Y-65550057D02*
X203714285Y-65645295D01*
X203714285Y-65645295D02*
X203714285Y-65788152D01*
X203714285Y-65788152D02*
X203666666Y-65883390D01*
X203666666Y-65883390D02*
X203619047Y-65931009D01*
X203619047Y-65931009D02*
X203523809Y-65978628D01*
X203523809Y-65978628D02*
X203142857Y-65978628D01*
X204666666Y-66454819D02*
X204095238Y-66454819D01*
X204380952Y-66454819D02*
X204380952Y-65454819D01*
X204380952Y-65454819D02*
X204285714Y-65597676D01*
X204285714Y-65597676D02*
X204190476Y-65692914D01*
X204190476Y-65692914D02*
X204095238Y-65740533D01*
X205666667Y-65954819D02*
X206285714Y-65954819D01*
X206285714Y-65954819D02*
X205952381Y-66335771D01*
X205952381Y-66335771D02*
X206095238Y-66335771D01*
X206095238Y-66335771D02*
X206190476Y-66383390D01*
X206190476Y-66383390D02*
X206238095Y-66431009D01*
X206238095Y-66431009D02*
X206285714Y-66526247D01*
X206285714Y-66526247D02*
X206285714Y-66764342D01*
X206285714Y-66764342D02*
X206238095Y-66859580D01*
X206238095Y-66859580D02*
X206190476Y-66907200D01*
X206190476Y-66907200D02*
X206095238Y-66954819D01*
X206095238Y-66954819D02*
X205809524Y-66954819D01*
X205809524Y-66954819D02*
X205714286Y-66907200D01*
X205714286Y-66907200D02*
X205666667Y-66859580D01*
X200285714Y-68954819D02*
X199714286Y-68954819D01*
X200000000Y-68954819D02*
X200000000Y-67954819D01*
X200000000Y-67954819D02*
X199904762Y-68097676D01*
X199904762Y-68097676D02*
X199809524Y-68192914D01*
X199809524Y-68192914D02*
X199714286Y-68240533D01*
X125833333Y-125454819D02*
X125500000Y-124978628D01*
X125261905Y-125454819D02*
X125261905Y-124454819D01*
X125261905Y-124454819D02*
X125642857Y-124454819D01*
X125642857Y-124454819D02*
X125738095Y-124502438D01*
X125738095Y-124502438D02*
X125785714Y-124550057D01*
X125785714Y-124550057D02*
X125833333Y-124645295D01*
X125833333Y-124645295D02*
X125833333Y-124788152D01*
X125833333Y-124788152D02*
X125785714Y-124883390D01*
X125785714Y-124883390D02*
X125738095Y-124931009D01*
X125738095Y-124931009D02*
X125642857Y-124978628D01*
X125642857Y-124978628D02*
X125261905Y-124978628D01*
X126214286Y-124550057D02*
X126261905Y-124502438D01*
X126261905Y-124502438D02*
X126357143Y-124454819D01*
X126357143Y-124454819D02*
X126595238Y-124454819D01*
X126595238Y-124454819D02*
X126690476Y-124502438D01*
X126690476Y-124502438D02*
X126738095Y-124550057D01*
X126738095Y-124550057D02*
X126785714Y-124645295D01*
X126785714Y-124645295D02*
X126785714Y-124740533D01*
X126785714Y-124740533D02*
X126738095Y-124883390D01*
X126738095Y-124883390D02*
X126166667Y-125454819D01*
X126166667Y-125454819D02*
X126785714Y-125454819D01*
X133809580Y-63412857D02*
X133857200Y-63460476D01*
X133857200Y-63460476D02*
X133904819Y-63603333D01*
X133904819Y-63603333D02*
X133904819Y-63698571D01*
X133904819Y-63698571D02*
X133857200Y-63841428D01*
X133857200Y-63841428D02*
X133761961Y-63936666D01*
X133761961Y-63936666D02*
X133666723Y-63984285D01*
X133666723Y-63984285D02*
X133476247Y-64031904D01*
X133476247Y-64031904D02*
X133333390Y-64031904D01*
X133333390Y-64031904D02*
X133142914Y-63984285D01*
X133142914Y-63984285D02*
X133047676Y-63936666D01*
X133047676Y-63936666D02*
X132952438Y-63841428D01*
X132952438Y-63841428D02*
X132904819Y-63698571D01*
X132904819Y-63698571D02*
X132904819Y-63603333D01*
X132904819Y-63603333D02*
X132952438Y-63460476D01*
X132952438Y-63460476D02*
X133000057Y-63412857D01*
X133904819Y-62460476D02*
X133904819Y-63031904D01*
X133904819Y-62746190D02*
X132904819Y-62746190D01*
X132904819Y-62746190D02*
X133047676Y-62841428D01*
X133047676Y-62841428D02*
X133142914Y-62936666D01*
X133142914Y-62936666D02*
X133190533Y-63031904D01*
X133000057Y-62079523D02*
X132952438Y-62031904D01*
X132952438Y-62031904D02*
X132904819Y-61936666D01*
X132904819Y-61936666D02*
X132904819Y-61698571D01*
X132904819Y-61698571D02*
X132952438Y-61603333D01*
X132952438Y-61603333D02*
X133000057Y-61555714D01*
X133000057Y-61555714D02*
X133095295Y-61508095D01*
X133095295Y-61508095D02*
X133190533Y-61508095D01*
X133190533Y-61508095D02*
X133333390Y-61555714D01*
X133333390Y-61555714D02*
X133904819Y-62127142D01*
X133904819Y-62127142D02*
X133904819Y-61508095D01*
X156238095Y-67454819D02*
X156238095Y-68264342D01*
X156238095Y-68264342D02*
X156285714Y-68359580D01*
X156285714Y-68359580D02*
X156333333Y-68407200D01*
X156333333Y-68407200D02*
X156428571Y-68454819D01*
X156428571Y-68454819D02*
X156619047Y-68454819D01*
X156619047Y-68454819D02*
X156714285Y-68407200D01*
X156714285Y-68407200D02*
X156761904Y-68359580D01*
X156761904Y-68359580D02*
X156809523Y-68264342D01*
X156809523Y-68264342D02*
X156809523Y-67454819D01*
X157190476Y-67454819D02*
X157857142Y-67454819D01*
X157857142Y-67454819D02*
X157428571Y-68454819D01*
X147261905Y-94454819D02*
X147261905Y-93454819D01*
X147261905Y-93454819D02*
X147500000Y-93454819D01*
X147500000Y-93454819D02*
X147642857Y-93502438D01*
X147642857Y-93502438D02*
X147738095Y-93597676D01*
X147738095Y-93597676D02*
X147785714Y-93692914D01*
X147785714Y-93692914D02*
X147833333Y-93883390D01*
X147833333Y-93883390D02*
X147833333Y-94026247D01*
X147833333Y-94026247D02*
X147785714Y-94216723D01*
X147785714Y-94216723D02*
X147738095Y-94311961D01*
X147738095Y-94311961D02*
X147642857Y-94407200D01*
X147642857Y-94407200D02*
X147500000Y-94454819D01*
X147500000Y-94454819D02*
X147261905Y-94454819D01*
X148214286Y-93550057D02*
X148261905Y-93502438D01*
X148261905Y-93502438D02*
X148357143Y-93454819D01*
X148357143Y-93454819D02*
X148595238Y-93454819D01*
X148595238Y-93454819D02*
X148690476Y-93502438D01*
X148690476Y-93502438D02*
X148738095Y-93550057D01*
X148738095Y-93550057D02*
X148785714Y-93645295D01*
X148785714Y-93645295D02*
X148785714Y-93740533D01*
X148785714Y-93740533D02*
X148738095Y-93883390D01*
X148738095Y-93883390D02*
X148166667Y-94454819D01*
X148166667Y-94454819D02*
X148785714Y-94454819D01*
X132283333Y-54354819D02*
X131950000Y-53878628D01*
X131711905Y-54354819D02*
X131711905Y-53354819D01*
X131711905Y-53354819D02*
X132092857Y-53354819D01*
X132092857Y-53354819D02*
X132188095Y-53402438D01*
X132188095Y-53402438D02*
X132235714Y-53450057D01*
X132235714Y-53450057D02*
X132283333Y-53545295D01*
X132283333Y-53545295D02*
X132283333Y-53688152D01*
X132283333Y-53688152D02*
X132235714Y-53783390D01*
X132235714Y-53783390D02*
X132188095Y-53831009D01*
X132188095Y-53831009D02*
X132092857Y-53878628D01*
X132092857Y-53878628D02*
X131711905Y-53878628D01*
X132759524Y-54354819D02*
X132950000Y-54354819D01*
X132950000Y-54354819D02*
X133045238Y-54307200D01*
X133045238Y-54307200D02*
X133092857Y-54259580D01*
X133092857Y-54259580D02*
X133188095Y-54116723D01*
X133188095Y-54116723D02*
X133235714Y-53926247D01*
X133235714Y-53926247D02*
X133235714Y-53545295D01*
X133235714Y-53545295D02*
X133188095Y-53450057D01*
X133188095Y-53450057D02*
X133140476Y-53402438D01*
X133140476Y-53402438D02*
X133045238Y-53354819D01*
X133045238Y-53354819D02*
X132854762Y-53354819D01*
X132854762Y-53354819D02*
X132759524Y-53402438D01*
X132759524Y-53402438D02*
X132711905Y-53450057D01*
X132711905Y-53450057D02*
X132664286Y-53545295D01*
X132664286Y-53545295D02*
X132664286Y-53783390D01*
X132664286Y-53783390D02*
X132711905Y-53878628D01*
X132711905Y-53878628D02*
X132759524Y-53926247D01*
X132759524Y-53926247D02*
X132854762Y-53973866D01*
X132854762Y-53973866D02*
X133045238Y-53973866D01*
X133045238Y-53973866D02*
X133140476Y-53926247D01*
X133140476Y-53926247D02*
X133188095Y-53878628D01*
X133188095Y-53878628D02*
X133235714Y-53783390D01*
X117454819Y-88666666D02*
X117454819Y-89142856D01*
X117454819Y-89142856D02*
X116454819Y-89142856D01*
X117454819Y-87809523D02*
X117454819Y-88380951D01*
X117454819Y-88095237D02*
X116454819Y-88095237D01*
X116454819Y-88095237D02*
X116597676Y-88190475D01*
X116597676Y-88190475D02*
X116692914Y-88285713D01*
X116692914Y-88285713D02*
X116740533Y-88380951D01*
X181533333Y-80739866D02*
X181533333Y-81739866D01*
X181533333Y-81739866D02*
X181466666Y-81939866D01*
X181466666Y-81939866D02*
X181333333Y-82073200D01*
X181333333Y-82073200D02*
X181133333Y-82139866D01*
X181133333Y-82139866D02*
X181000000Y-82139866D01*
X182933333Y-82139866D02*
X182133333Y-82139866D01*
X182533333Y-82139866D02*
X182533333Y-80739866D01*
X182533333Y-80739866D02*
X182400000Y-80939866D01*
X182400000Y-80939866D02*
X182266667Y-81073200D01*
X182266667Y-81073200D02*
X182133333Y-81139866D01*
X183357142Y-100954819D02*
X183023809Y-100478628D01*
X182785714Y-100954819D02*
X182785714Y-99954819D01*
X182785714Y-99954819D02*
X183166666Y-99954819D01*
X183166666Y-99954819D02*
X183261904Y-100002438D01*
X183261904Y-100002438D02*
X183309523Y-100050057D01*
X183309523Y-100050057D02*
X183357142Y-100145295D01*
X183357142Y-100145295D02*
X183357142Y-100288152D01*
X183357142Y-100288152D02*
X183309523Y-100383390D01*
X183309523Y-100383390D02*
X183261904Y-100431009D01*
X183261904Y-100431009D02*
X183166666Y-100478628D01*
X183166666Y-100478628D02*
X182785714Y-100478628D01*
X184309523Y-100954819D02*
X183738095Y-100954819D01*
X184023809Y-100954819D02*
X184023809Y-99954819D01*
X184023809Y-99954819D02*
X183928571Y-100097676D01*
X183928571Y-100097676D02*
X183833333Y-100192914D01*
X183833333Y-100192914D02*
X183738095Y-100240533D01*
X185166666Y-100288152D02*
X185166666Y-100954819D01*
X184928571Y-99907200D02*
X184690476Y-100621485D01*
X184690476Y-100621485D02*
X185309523Y-100621485D01*
X208866666Y-65454819D02*
X208866666Y-66169104D01*
X208866666Y-66169104D02*
X208819047Y-66311961D01*
X208819047Y-66311961D02*
X208723809Y-66407200D01*
X208723809Y-66407200D02*
X208580952Y-66454819D01*
X208580952Y-66454819D02*
X208485714Y-66454819D01*
X209342857Y-66454819D02*
X209342857Y-65454819D01*
X209342857Y-65454819D02*
X209723809Y-65454819D01*
X209723809Y-65454819D02*
X209819047Y-65502438D01*
X209819047Y-65502438D02*
X209866666Y-65550057D01*
X209866666Y-65550057D02*
X209914285Y-65645295D01*
X209914285Y-65645295D02*
X209914285Y-65788152D01*
X209914285Y-65788152D02*
X209866666Y-65883390D01*
X209866666Y-65883390D02*
X209819047Y-65931009D01*
X209819047Y-65931009D02*
X209723809Y-65978628D01*
X209723809Y-65978628D02*
X209342857Y-65978628D01*
X210295238Y-65550057D02*
X210342857Y-65502438D01*
X210342857Y-65502438D02*
X210438095Y-65454819D01*
X210438095Y-65454819D02*
X210676190Y-65454819D01*
X210676190Y-65454819D02*
X210771428Y-65502438D01*
X210771428Y-65502438D02*
X210819047Y-65550057D01*
X210819047Y-65550057D02*
X210866666Y-65645295D01*
X210866666Y-65645295D02*
X210866666Y-65740533D01*
X210866666Y-65740533D02*
X210819047Y-65883390D01*
X210819047Y-65883390D02*
X210247619Y-66454819D01*
X210247619Y-66454819D02*
X210866666Y-66454819D01*
X206785714Y-69954819D02*
X206214286Y-69954819D01*
X206500000Y-69954819D02*
X206500000Y-68954819D01*
X206500000Y-68954819D02*
X206404762Y-69097676D01*
X206404762Y-69097676D02*
X206309524Y-69192914D01*
X206309524Y-69192914D02*
X206214286Y-69240533D01*
X212666667Y-65954819D02*
X213285714Y-65954819D01*
X213285714Y-65954819D02*
X212952381Y-66335771D01*
X212952381Y-66335771D02*
X213095238Y-66335771D01*
X213095238Y-66335771D02*
X213190476Y-66383390D01*
X213190476Y-66383390D02*
X213238095Y-66431009D01*
X213238095Y-66431009D02*
X213285714Y-66526247D01*
X213285714Y-66526247D02*
X213285714Y-66764342D01*
X213285714Y-66764342D02*
X213238095Y-66859580D01*
X213238095Y-66859580D02*
X213190476Y-66907200D01*
X213190476Y-66907200D02*
X213095238Y-66954819D01*
X213095238Y-66954819D02*
X212809524Y-66954819D01*
X212809524Y-66954819D02*
X212714286Y-66907200D01*
X212714286Y-66907200D02*
X212666667Y-66859580D01*
X124954819Y-65761904D02*
X125764342Y-65761904D01*
X125764342Y-65761904D02*
X125859580Y-65714285D01*
X125859580Y-65714285D02*
X125907200Y-65666666D01*
X125907200Y-65666666D02*
X125954819Y-65571428D01*
X125954819Y-65571428D02*
X125954819Y-65380952D01*
X125954819Y-65380952D02*
X125907200Y-65285714D01*
X125907200Y-65285714D02*
X125859580Y-65238095D01*
X125859580Y-65238095D02*
X125764342Y-65190476D01*
X125764342Y-65190476D02*
X124954819Y-65190476D01*
X125288152Y-64285714D02*
X125954819Y-64285714D01*
X124907200Y-64523809D02*
X125621485Y-64761904D01*
X125621485Y-64761904D02*
X125621485Y-64142857D01*
X157857142Y-79359580D02*
X157809523Y-79407200D01*
X157809523Y-79407200D02*
X157666666Y-79454819D01*
X157666666Y-79454819D02*
X157571428Y-79454819D01*
X157571428Y-79454819D02*
X157428571Y-79407200D01*
X157428571Y-79407200D02*
X157333333Y-79311961D01*
X157333333Y-79311961D02*
X157285714Y-79216723D01*
X157285714Y-79216723D02*
X157238095Y-79026247D01*
X157238095Y-79026247D02*
X157238095Y-78883390D01*
X157238095Y-78883390D02*
X157285714Y-78692914D01*
X157285714Y-78692914D02*
X157333333Y-78597676D01*
X157333333Y-78597676D02*
X157428571Y-78502438D01*
X157428571Y-78502438D02*
X157571428Y-78454819D01*
X157571428Y-78454819D02*
X157666666Y-78454819D01*
X157666666Y-78454819D02*
X157809523Y-78502438D01*
X157809523Y-78502438D02*
X157857142Y-78550057D01*
X158809523Y-79454819D02*
X158238095Y-79454819D01*
X158523809Y-79454819D02*
X158523809Y-78454819D01*
X158523809Y-78454819D02*
X158428571Y-78597676D01*
X158428571Y-78597676D02*
X158333333Y-78692914D01*
X158333333Y-78692914D02*
X158238095Y-78740533D01*
X159714285Y-78454819D02*
X159238095Y-78454819D01*
X159238095Y-78454819D02*
X159190476Y-78931009D01*
X159190476Y-78931009D02*
X159238095Y-78883390D01*
X159238095Y-78883390D02*
X159333333Y-78835771D01*
X159333333Y-78835771D02*
X159571428Y-78835771D01*
X159571428Y-78835771D02*
X159666666Y-78883390D01*
X159666666Y-78883390D02*
X159714285Y-78931009D01*
X159714285Y-78931009D02*
X159761904Y-79026247D01*
X159761904Y-79026247D02*
X159761904Y-79264342D01*
X159761904Y-79264342D02*
X159714285Y-79359580D01*
X159714285Y-79359580D02*
X159666666Y-79407200D01*
X159666666Y-79407200D02*
X159571428Y-79454819D01*
X159571428Y-79454819D02*
X159333333Y-79454819D01*
X159333333Y-79454819D02*
X159238095Y-79407200D01*
X159238095Y-79407200D02*
X159190476Y-79359580D01*
X207666667Y-100907200D02*
X207809524Y-100954819D01*
X207809524Y-100954819D02*
X208047619Y-100954819D01*
X208047619Y-100954819D02*
X208142857Y-100907200D01*
X208142857Y-100907200D02*
X208190476Y-100859580D01*
X208190476Y-100859580D02*
X208238095Y-100764342D01*
X208238095Y-100764342D02*
X208238095Y-100669104D01*
X208238095Y-100669104D02*
X208190476Y-100573866D01*
X208190476Y-100573866D02*
X208142857Y-100526247D01*
X208142857Y-100526247D02*
X208047619Y-100478628D01*
X208047619Y-100478628D02*
X207857143Y-100431009D01*
X207857143Y-100431009D02*
X207761905Y-100383390D01*
X207761905Y-100383390D02*
X207714286Y-100335771D01*
X207714286Y-100335771D02*
X207666667Y-100240533D01*
X207666667Y-100240533D02*
X207666667Y-100145295D01*
X207666667Y-100145295D02*
X207714286Y-100050057D01*
X207714286Y-100050057D02*
X207761905Y-100002438D01*
X207761905Y-100002438D02*
X207857143Y-99954819D01*
X207857143Y-99954819D02*
X208095238Y-99954819D01*
X208095238Y-99954819D02*
X208238095Y-100002438D01*
X208571429Y-99954819D02*
X208809524Y-100954819D01*
X208809524Y-100954819D02*
X209000000Y-100240533D01*
X209000000Y-100240533D02*
X209190476Y-100954819D01*
X209190476Y-100954819D02*
X209428572Y-99954819D01*
X209714286Y-99954819D02*
X210333333Y-99954819D01*
X210333333Y-99954819D02*
X210000000Y-100335771D01*
X210000000Y-100335771D02*
X210142857Y-100335771D01*
X210142857Y-100335771D02*
X210238095Y-100383390D01*
X210238095Y-100383390D02*
X210285714Y-100431009D01*
X210285714Y-100431009D02*
X210333333Y-100526247D01*
X210333333Y-100526247D02*
X210333333Y-100764342D01*
X210333333Y-100764342D02*
X210285714Y-100859580D01*
X210285714Y-100859580D02*
X210238095Y-100907200D01*
X210238095Y-100907200D02*
X210142857Y-100954819D01*
X210142857Y-100954819D02*
X209857143Y-100954819D01*
X209857143Y-100954819D02*
X209761905Y-100907200D01*
X209761905Y-100907200D02*
X209714286Y-100859580D01*
X116859580Y-125166666D02*
X116907200Y-125214285D01*
X116907200Y-125214285D02*
X116954819Y-125357142D01*
X116954819Y-125357142D02*
X116954819Y-125452380D01*
X116954819Y-125452380D02*
X116907200Y-125595237D01*
X116907200Y-125595237D02*
X116811961Y-125690475D01*
X116811961Y-125690475D02*
X116716723Y-125738094D01*
X116716723Y-125738094D02*
X116526247Y-125785713D01*
X116526247Y-125785713D02*
X116383390Y-125785713D01*
X116383390Y-125785713D02*
X116192914Y-125738094D01*
X116192914Y-125738094D02*
X116097676Y-125690475D01*
X116097676Y-125690475D02*
X116002438Y-125595237D01*
X116002438Y-125595237D02*
X115954819Y-125452380D01*
X115954819Y-125452380D02*
X115954819Y-125357142D01*
X115954819Y-125357142D02*
X116002438Y-125214285D01*
X116002438Y-125214285D02*
X116050057Y-125166666D01*
X116050057Y-124785713D02*
X116002438Y-124738094D01*
X116002438Y-124738094D02*
X115954819Y-124642856D01*
X115954819Y-124642856D02*
X115954819Y-124404761D01*
X115954819Y-124404761D02*
X116002438Y-124309523D01*
X116002438Y-124309523D02*
X116050057Y-124261904D01*
X116050057Y-124261904D02*
X116145295Y-124214285D01*
X116145295Y-124214285D02*
X116240533Y-124214285D01*
X116240533Y-124214285D02*
X116383390Y-124261904D01*
X116383390Y-124261904D02*
X116954819Y-124833332D01*
X116954819Y-124833332D02*
X116954819Y-124214285D01*
X207166667Y-91407200D02*
X207309524Y-91454819D01*
X207309524Y-91454819D02*
X207547619Y-91454819D01*
X207547619Y-91454819D02*
X207642857Y-91407200D01*
X207642857Y-91407200D02*
X207690476Y-91359580D01*
X207690476Y-91359580D02*
X207738095Y-91264342D01*
X207738095Y-91264342D02*
X207738095Y-91169104D01*
X207738095Y-91169104D02*
X207690476Y-91073866D01*
X207690476Y-91073866D02*
X207642857Y-91026247D01*
X207642857Y-91026247D02*
X207547619Y-90978628D01*
X207547619Y-90978628D02*
X207357143Y-90931009D01*
X207357143Y-90931009D02*
X207261905Y-90883390D01*
X207261905Y-90883390D02*
X207214286Y-90835771D01*
X207214286Y-90835771D02*
X207166667Y-90740533D01*
X207166667Y-90740533D02*
X207166667Y-90645295D01*
X207166667Y-90645295D02*
X207214286Y-90550057D01*
X207214286Y-90550057D02*
X207261905Y-90502438D01*
X207261905Y-90502438D02*
X207357143Y-90454819D01*
X207357143Y-90454819D02*
X207595238Y-90454819D01*
X207595238Y-90454819D02*
X207738095Y-90502438D01*
X208071429Y-90454819D02*
X208309524Y-91454819D01*
X208309524Y-91454819D02*
X208500000Y-90740533D01*
X208500000Y-90740533D02*
X208690476Y-91454819D01*
X208690476Y-91454819D02*
X208928572Y-90454819D01*
X209261905Y-90550057D02*
X209309524Y-90502438D01*
X209309524Y-90502438D02*
X209404762Y-90454819D01*
X209404762Y-90454819D02*
X209642857Y-90454819D01*
X209642857Y-90454819D02*
X209738095Y-90502438D01*
X209738095Y-90502438D02*
X209785714Y-90550057D01*
X209785714Y-90550057D02*
X209833333Y-90645295D01*
X209833333Y-90645295D02*
X209833333Y-90740533D01*
X209833333Y-90740533D02*
X209785714Y-90883390D01*
X209785714Y-90883390D02*
X209214286Y-91454819D01*
X209214286Y-91454819D02*
X209833333Y-91454819D01*
X165859580Y-89142857D02*
X165907200Y-89190476D01*
X165907200Y-89190476D02*
X165954819Y-89333333D01*
X165954819Y-89333333D02*
X165954819Y-89428571D01*
X165954819Y-89428571D02*
X165907200Y-89571428D01*
X165907200Y-89571428D02*
X165811961Y-89666666D01*
X165811961Y-89666666D02*
X165716723Y-89714285D01*
X165716723Y-89714285D02*
X165526247Y-89761904D01*
X165526247Y-89761904D02*
X165383390Y-89761904D01*
X165383390Y-89761904D02*
X165192914Y-89714285D01*
X165192914Y-89714285D02*
X165097676Y-89666666D01*
X165097676Y-89666666D02*
X165002438Y-89571428D01*
X165002438Y-89571428D02*
X164954819Y-89428571D01*
X164954819Y-89428571D02*
X164954819Y-89333333D01*
X164954819Y-89333333D02*
X165002438Y-89190476D01*
X165002438Y-89190476D02*
X165050057Y-89142857D01*
X165954819Y-88190476D02*
X165954819Y-88761904D01*
X165954819Y-88476190D02*
X164954819Y-88476190D01*
X164954819Y-88476190D02*
X165097676Y-88571428D01*
X165097676Y-88571428D02*
X165192914Y-88666666D01*
X165192914Y-88666666D02*
X165240533Y-88761904D01*
X165383390Y-87619047D02*
X165335771Y-87714285D01*
X165335771Y-87714285D02*
X165288152Y-87761904D01*
X165288152Y-87761904D02*
X165192914Y-87809523D01*
X165192914Y-87809523D02*
X165145295Y-87809523D01*
X165145295Y-87809523D02*
X165050057Y-87761904D01*
X165050057Y-87761904D02*
X165002438Y-87714285D01*
X165002438Y-87714285D02*
X164954819Y-87619047D01*
X164954819Y-87619047D02*
X164954819Y-87428571D01*
X164954819Y-87428571D02*
X165002438Y-87333333D01*
X165002438Y-87333333D02*
X165050057Y-87285714D01*
X165050057Y-87285714D02*
X165145295Y-87238095D01*
X165145295Y-87238095D02*
X165192914Y-87238095D01*
X165192914Y-87238095D02*
X165288152Y-87285714D01*
X165288152Y-87285714D02*
X165335771Y-87333333D01*
X165335771Y-87333333D02*
X165383390Y-87428571D01*
X165383390Y-87428571D02*
X165383390Y-87619047D01*
X165383390Y-87619047D02*
X165431009Y-87714285D01*
X165431009Y-87714285D02*
X165478628Y-87761904D01*
X165478628Y-87761904D02*
X165573866Y-87809523D01*
X165573866Y-87809523D02*
X165764342Y-87809523D01*
X165764342Y-87809523D02*
X165859580Y-87761904D01*
X165859580Y-87761904D02*
X165907200Y-87714285D01*
X165907200Y-87714285D02*
X165954819Y-87619047D01*
X165954819Y-87619047D02*
X165954819Y-87428571D01*
X165954819Y-87428571D02*
X165907200Y-87333333D01*
X165907200Y-87333333D02*
X165859580Y-87285714D01*
X165859580Y-87285714D02*
X165764342Y-87238095D01*
X165764342Y-87238095D02*
X165573866Y-87238095D01*
X165573866Y-87238095D02*
X165478628Y-87285714D01*
X165478628Y-87285714D02*
X165431009Y-87333333D01*
X165431009Y-87333333D02*
X165383390Y-87428571D01*
X125833333Y-71859580D02*
X125785714Y-71907200D01*
X125785714Y-71907200D02*
X125642857Y-71954819D01*
X125642857Y-71954819D02*
X125547619Y-71954819D01*
X125547619Y-71954819D02*
X125404762Y-71907200D01*
X125404762Y-71907200D02*
X125309524Y-71811961D01*
X125309524Y-71811961D02*
X125261905Y-71716723D01*
X125261905Y-71716723D02*
X125214286Y-71526247D01*
X125214286Y-71526247D02*
X125214286Y-71383390D01*
X125214286Y-71383390D02*
X125261905Y-71192914D01*
X125261905Y-71192914D02*
X125309524Y-71097676D01*
X125309524Y-71097676D02*
X125404762Y-71002438D01*
X125404762Y-71002438D02*
X125547619Y-70954819D01*
X125547619Y-70954819D02*
X125642857Y-70954819D01*
X125642857Y-70954819D02*
X125785714Y-71002438D01*
X125785714Y-71002438D02*
X125833333Y-71050057D01*
X126404762Y-71383390D02*
X126309524Y-71335771D01*
X126309524Y-71335771D02*
X126261905Y-71288152D01*
X126261905Y-71288152D02*
X126214286Y-71192914D01*
X126214286Y-71192914D02*
X126214286Y-71145295D01*
X126214286Y-71145295D02*
X126261905Y-71050057D01*
X126261905Y-71050057D02*
X126309524Y-71002438D01*
X126309524Y-71002438D02*
X126404762Y-70954819D01*
X126404762Y-70954819D02*
X126595238Y-70954819D01*
X126595238Y-70954819D02*
X126690476Y-71002438D01*
X126690476Y-71002438D02*
X126738095Y-71050057D01*
X126738095Y-71050057D02*
X126785714Y-71145295D01*
X126785714Y-71145295D02*
X126785714Y-71192914D01*
X126785714Y-71192914D02*
X126738095Y-71288152D01*
X126738095Y-71288152D02*
X126690476Y-71335771D01*
X126690476Y-71335771D02*
X126595238Y-71383390D01*
X126595238Y-71383390D02*
X126404762Y-71383390D01*
X126404762Y-71383390D02*
X126309524Y-71431009D01*
X126309524Y-71431009D02*
X126261905Y-71478628D01*
X126261905Y-71478628D02*
X126214286Y-71573866D01*
X126214286Y-71573866D02*
X126214286Y-71764342D01*
X126214286Y-71764342D02*
X126261905Y-71859580D01*
X126261905Y-71859580D02*
X126309524Y-71907200D01*
X126309524Y-71907200D02*
X126404762Y-71954819D01*
X126404762Y-71954819D02*
X126595238Y-71954819D01*
X126595238Y-71954819D02*
X126690476Y-71907200D01*
X126690476Y-71907200D02*
X126738095Y-71859580D01*
X126738095Y-71859580D02*
X126785714Y-71764342D01*
X126785714Y-71764342D02*
X126785714Y-71573866D01*
X126785714Y-71573866D02*
X126738095Y-71478628D01*
X126738095Y-71478628D02*
X126690476Y-71431009D01*
X126690476Y-71431009D02*
X126595238Y-71383390D01*
X147261905Y-92954819D02*
X147261905Y-91954819D01*
X147261905Y-91954819D02*
X147500000Y-91954819D01*
X147500000Y-91954819D02*
X147642857Y-92002438D01*
X147642857Y-92002438D02*
X147738095Y-92097676D01*
X147738095Y-92097676D02*
X147785714Y-92192914D01*
X147785714Y-92192914D02*
X147833333Y-92383390D01*
X147833333Y-92383390D02*
X147833333Y-92526247D01*
X147833333Y-92526247D02*
X147785714Y-92716723D01*
X147785714Y-92716723D02*
X147738095Y-92811961D01*
X147738095Y-92811961D02*
X147642857Y-92907200D01*
X147642857Y-92907200D02*
X147500000Y-92954819D01*
X147500000Y-92954819D02*
X147261905Y-92954819D01*
X148785714Y-92954819D02*
X148214286Y-92954819D01*
X148500000Y-92954819D02*
X148500000Y-91954819D01*
X148500000Y-91954819D02*
X148404762Y-92097676D01*
X148404762Y-92097676D02*
X148309524Y-92192914D01*
X148309524Y-92192914D02*
X148214286Y-92240533D01*
X212824819Y-74952857D02*
X212348628Y-75286190D01*
X212824819Y-75524285D02*
X211824819Y-75524285D01*
X211824819Y-75524285D02*
X211824819Y-75143333D01*
X211824819Y-75143333D02*
X211872438Y-75048095D01*
X211872438Y-75048095D02*
X211920057Y-75000476D01*
X211920057Y-75000476D02*
X212015295Y-74952857D01*
X212015295Y-74952857D02*
X212158152Y-74952857D01*
X212158152Y-74952857D02*
X212253390Y-75000476D01*
X212253390Y-75000476D02*
X212301009Y-75048095D01*
X212301009Y-75048095D02*
X212348628Y-75143333D01*
X212348628Y-75143333D02*
X212348628Y-75524285D01*
X212824819Y-74000476D02*
X212824819Y-74571904D01*
X212824819Y-74286190D02*
X211824819Y-74286190D01*
X211824819Y-74286190D02*
X211967676Y-74381428D01*
X211967676Y-74381428D02*
X212062914Y-74476666D01*
X212062914Y-74476666D02*
X212110533Y-74571904D01*
X211920057Y-73619523D02*
X211872438Y-73571904D01*
X211872438Y-73571904D02*
X211824819Y-73476666D01*
X211824819Y-73476666D02*
X211824819Y-73238571D01*
X211824819Y-73238571D02*
X211872438Y-73143333D01*
X211872438Y-73143333D02*
X211920057Y-73095714D01*
X211920057Y-73095714D02*
X212015295Y-73048095D01*
X212015295Y-73048095D02*
X212110533Y-73048095D01*
X212110533Y-73048095D02*
X212253390Y-73095714D01*
X212253390Y-73095714D02*
X212824819Y-73667142D01*
X212824819Y-73667142D02*
X212824819Y-73048095D01*
X193179970Y-100642857D02*
X192703779Y-100976190D01*
X193179970Y-101214285D02*
X192179970Y-101214285D01*
X192179970Y-101214285D02*
X192179970Y-100833333D01*
X192179970Y-100833333D02*
X192227589Y-100738095D01*
X192227589Y-100738095D02*
X192275208Y-100690476D01*
X192275208Y-100690476D02*
X192370446Y-100642857D01*
X192370446Y-100642857D02*
X192513303Y-100642857D01*
X192513303Y-100642857D02*
X192608541Y-100690476D01*
X192608541Y-100690476D02*
X192656160Y-100738095D01*
X192656160Y-100738095D02*
X192703779Y-100833333D01*
X192703779Y-100833333D02*
X192703779Y-101214285D01*
X193179970Y-99690476D02*
X193179970Y-100261904D01*
X193179970Y-99976190D02*
X192179970Y-99976190D01*
X192179970Y-99976190D02*
X192322827Y-100071428D01*
X192322827Y-100071428D02*
X192418065Y-100166666D01*
X192418065Y-100166666D02*
X192465684Y-100261904D01*
X192179970Y-98833333D02*
X192179970Y-99023809D01*
X192179970Y-99023809D02*
X192227589Y-99119047D01*
X192227589Y-99119047D02*
X192275208Y-99166666D01*
X192275208Y-99166666D02*
X192418065Y-99261904D01*
X192418065Y-99261904D02*
X192608541Y-99309523D01*
X192608541Y-99309523D02*
X192989493Y-99309523D01*
X192989493Y-99309523D02*
X193084731Y-99261904D01*
X193084731Y-99261904D02*
X193132351Y-99214285D01*
X193132351Y-99214285D02*
X193179970Y-99119047D01*
X193179970Y-99119047D02*
X193179970Y-98928571D01*
X193179970Y-98928571D02*
X193132351Y-98833333D01*
X193132351Y-98833333D02*
X193084731Y-98785714D01*
X193084731Y-98785714D02*
X192989493Y-98738095D01*
X192989493Y-98738095D02*
X192751398Y-98738095D01*
X192751398Y-98738095D02*
X192656160Y-98785714D01*
X192656160Y-98785714D02*
X192608541Y-98833333D01*
X192608541Y-98833333D02*
X192560922Y-98928571D01*
X192560922Y-98928571D02*
X192560922Y-99119047D01*
X192560922Y-99119047D02*
X192608541Y-99214285D01*
X192608541Y-99214285D02*
X192656160Y-99261904D01*
X192656160Y-99261904D02*
X192751398Y-99309523D01*
X183357142Y-96954819D02*
X183023809Y-96478628D01*
X182785714Y-96954819D02*
X182785714Y-95954819D01*
X182785714Y-95954819D02*
X183166666Y-95954819D01*
X183166666Y-95954819D02*
X183261904Y-96002438D01*
X183261904Y-96002438D02*
X183309523Y-96050057D01*
X183309523Y-96050057D02*
X183357142Y-96145295D01*
X183357142Y-96145295D02*
X183357142Y-96288152D01*
X183357142Y-96288152D02*
X183309523Y-96383390D01*
X183309523Y-96383390D02*
X183261904Y-96431009D01*
X183261904Y-96431009D02*
X183166666Y-96478628D01*
X183166666Y-96478628D02*
X182785714Y-96478628D01*
X184309523Y-96954819D02*
X183738095Y-96954819D01*
X184023809Y-96954819D02*
X184023809Y-95954819D01*
X184023809Y-95954819D02*
X183928571Y-96097676D01*
X183928571Y-96097676D02*
X183833333Y-96192914D01*
X183833333Y-96192914D02*
X183738095Y-96240533D01*
X184642857Y-95954819D02*
X185261904Y-95954819D01*
X185261904Y-95954819D02*
X184928571Y-96335771D01*
X184928571Y-96335771D02*
X185071428Y-96335771D01*
X185071428Y-96335771D02*
X185166666Y-96383390D01*
X185166666Y-96383390D02*
X185214285Y-96431009D01*
X185214285Y-96431009D02*
X185261904Y-96526247D01*
X185261904Y-96526247D02*
X185261904Y-96764342D01*
X185261904Y-96764342D02*
X185214285Y-96859580D01*
X185214285Y-96859580D02*
X185166666Y-96907200D01*
X185166666Y-96907200D02*
X185071428Y-96954819D01*
X185071428Y-96954819D02*
X184785714Y-96954819D01*
X184785714Y-96954819D02*
X184690476Y-96907200D01*
X184690476Y-96907200D02*
X184642857Y-96859580D01*
X126833333Y-77859580D02*
X126785714Y-77907200D01*
X126785714Y-77907200D02*
X126642857Y-77954819D01*
X126642857Y-77954819D02*
X126547619Y-77954819D01*
X126547619Y-77954819D02*
X126404762Y-77907200D01*
X126404762Y-77907200D02*
X126309524Y-77811961D01*
X126309524Y-77811961D02*
X126261905Y-77716723D01*
X126261905Y-77716723D02*
X126214286Y-77526247D01*
X126214286Y-77526247D02*
X126214286Y-77383390D01*
X126214286Y-77383390D02*
X126261905Y-77192914D01*
X126261905Y-77192914D02*
X126309524Y-77097676D01*
X126309524Y-77097676D02*
X126404762Y-77002438D01*
X126404762Y-77002438D02*
X126547619Y-76954819D01*
X126547619Y-76954819D02*
X126642857Y-76954819D01*
X126642857Y-76954819D02*
X126785714Y-77002438D01*
X126785714Y-77002438D02*
X126833333Y-77050057D01*
X127166667Y-76954819D02*
X127833333Y-76954819D01*
X127833333Y-76954819D02*
X127404762Y-77954819D01*
D11*
%TO.C,RV1*%
X140590000Y-91360000D02*
X140590000Y-87640000D01*
X140970000Y-91360000D02*
X140590000Y-91360000D01*
X141770000Y-87640000D02*
X140590000Y-87640000D01*
X143270000Y-91360000D02*
X142730000Y-91360000D01*
X145610000Y-87640000D02*
X144230000Y-87640000D01*
X145610000Y-91360000D02*
X145030000Y-91360000D01*
X145610000Y-91360000D02*
X145610000Y-87640000D01*
%TO.C,Y2*%
X185750000Y-85300000D02*
X191650000Y-85300000D01*
X191650000Y-81700000D02*
X185750000Y-81700000D01*
X191650000Y-85300000D02*
X191650000Y-81700000D01*
%TO.C,R7*%
X132040000Y-90630000D02*
X138580000Y-90630000D01*
X132040000Y-90960000D02*
X132040000Y-90630000D01*
X132040000Y-93040000D02*
X132040000Y-93370000D01*
X132040000Y-93370000D02*
X138580000Y-93370000D01*
X138580000Y-90630000D02*
X138580000Y-90960000D01*
X138580000Y-93370000D02*
X138580000Y-93040000D01*
%TO.C,R15*%
X201630000Y-71230000D02*
X201630000Y-77770000D01*
X201630000Y-77770000D02*
X201960000Y-77770000D01*
X201960000Y-71230000D02*
X201630000Y-71230000D01*
X204040000Y-71230000D02*
X204370000Y-71230000D01*
X204370000Y-71230000D02*
X204370000Y-77770000D01*
X204370000Y-77770000D02*
X204040000Y-77770000D01*
D12*
%TO.C,P1*%
X121330750Y-139200000D02*
X121330750Y-137705000D01*
X122410750Y-136160000D02*
X129650750Y-136160000D01*
X130730750Y-139200000D02*
X130730750Y-137705000D01*
D13*
X123380750Y-135210000D02*
G75*
G02*
X123180750Y-135210000I-100000J0D01*
G01*
X123180750Y-135210000D02*
G75*
G02*
X123380750Y-135210000I100000J0D01*
G01*
D11*
%TO.C,R5*%
X135230000Y-99630000D02*
X141770000Y-99630000D01*
X135230000Y-99960000D02*
X135230000Y-99630000D01*
X135230000Y-102040000D02*
X135230000Y-102370000D01*
X135230000Y-102370000D02*
X141770000Y-102370000D01*
X141770000Y-99630000D02*
X141770000Y-99960000D01*
X141770000Y-102370000D02*
X141770000Y-102040000D01*
%TO.C,D5*%
X160380000Y-97500000D02*
X161400000Y-97500000D01*
X161400000Y-96030000D02*
X161400000Y-98970000D01*
X161400000Y-98970000D02*
X166840000Y-98970000D01*
X165820000Y-98970000D02*
X165820000Y-96030000D01*
X165940000Y-98970000D02*
X165940000Y-96030000D01*
X166060000Y-98970000D02*
X166060000Y-96030000D01*
X166840000Y-96030000D02*
X161400000Y-96030000D01*
X166840000Y-98970000D02*
X166840000Y-96030000D01*
X167860000Y-97500000D02*
X166840000Y-97500000D01*
%TO.C,R10*%
X168080000Y-67190000D02*
X168410000Y-67190000D01*
X168080000Y-73730000D02*
X168080000Y-67190000D01*
X168410000Y-73730000D02*
X168080000Y-73730000D01*
X170490000Y-73730000D02*
X170820000Y-73730000D01*
X170820000Y-67190000D02*
X170490000Y-67190000D01*
X170820000Y-73730000D02*
X170820000Y-67190000D01*
%TO.C,U1*%
X124140000Y-115700000D02*
X124140000Y-113750000D01*
X124140000Y-115700000D02*
X124140000Y-117650000D01*
X129260000Y-115700000D02*
X129260000Y-113750000D01*
X129260000Y-115700000D02*
X129260000Y-117650000D01*
X124235000Y-118400000D02*
X123905000Y-118640000D01*
X123905000Y-118160000D01*
X124235000Y-118400000D01*
G36*
X124235000Y-118400000D02*
G01*
X123905000Y-118640000D01*
X123905000Y-118160000D01*
X124235000Y-118400000D01*
G37*
%TO.C,D4*%
X160260000Y-101000000D02*
X161280000Y-101000000D01*
X161280000Y-99530000D02*
X161280000Y-102470000D01*
X161280000Y-102470000D02*
X166720000Y-102470000D01*
X165700000Y-102470000D02*
X165700000Y-99530000D01*
X165820000Y-102470000D02*
X165820000Y-99530000D01*
X165940000Y-102470000D02*
X165940000Y-99530000D01*
X166720000Y-99530000D02*
X161280000Y-99530000D01*
X166720000Y-102470000D02*
X166720000Y-99530000D01*
X167740000Y-101000000D02*
X166720000Y-101000000D01*
%TO.C,U5*%
X174727500Y-70079400D02*
X174727500Y-70529400D01*
X174727500Y-77299400D02*
X174727500Y-76849400D01*
X175177500Y-70079400D02*
X174727500Y-70079400D01*
X175177500Y-77299400D02*
X174727500Y-77299400D01*
X181497500Y-70079400D02*
X181947500Y-70079400D01*
X181497500Y-77299400D02*
X181947500Y-77299400D01*
X181947500Y-70079400D02*
X181947500Y-70529400D01*
X181947500Y-77299400D02*
X181947500Y-76849400D01*
X182877500Y-77319400D02*
X182197500Y-77319400D01*
X182537500Y-76849400D01*
X182877500Y-77319400D01*
G36*
X182877500Y-77319400D02*
G01*
X182197500Y-77319400D01*
X182537500Y-76849400D01*
X182877500Y-77319400D01*
G37*
%TO.C,C6*%
X132067380Y-84661000D02*
X132697380Y-84661000D01*
X132382380Y-84346000D02*
X132382380Y-84976000D01*
X135567621Y-83270000D02*
X135567621Y-89730000D01*
X135607621Y-83270000D02*
X135607621Y-89730000D01*
X135647621Y-83271000D02*
X135647621Y-89729000D01*
X135687621Y-83272000D02*
X135687621Y-89728000D01*
X135727621Y-83274000D02*
X135727621Y-89726000D01*
X135767621Y-83276000D02*
X135767621Y-89724000D01*
X135807621Y-83279000D02*
X135807621Y-85460000D01*
X135807621Y-87540000D02*
X135807621Y-89721000D01*
X135847621Y-83282000D02*
X135847621Y-85460000D01*
X135847621Y-87540000D02*
X135847621Y-89718000D01*
X135887621Y-83286000D02*
X135887621Y-85460000D01*
X135887621Y-87540000D02*
X135887621Y-89714000D01*
X135927621Y-83290000D02*
X135927621Y-85460000D01*
X135927621Y-87540000D02*
X135927621Y-89710000D01*
X135967621Y-83295000D02*
X135967621Y-85460000D01*
X135967621Y-87540000D02*
X135967621Y-89705000D01*
X136007621Y-83300000D02*
X136007621Y-85460000D01*
X136007621Y-87540000D02*
X136007621Y-89700000D01*
X136047621Y-83305000D02*
X136047621Y-85460000D01*
X136047621Y-87540000D02*
X136047621Y-89695000D01*
X136087621Y-83312000D02*
X136087621Y-85460000D01*
X136087621Y-87540000D02*
X136087621Y-89688000D01*
X136127621Y-83318000D02*
X136127621Y-85460000D01*
X136127621Y-87540000D02*
X136127621Y-89682000D01*
X136167621Y-83326000D02*
X136167621Y-85460000D01*
X136167621Y-87540000D02*
X136167621Y-89674000D01*
X136207621Y-83333000D02*
X136207621Y-85460000D01*
X136207621Y-87540000D02*
X136207621Y-89667000D01*
X136247621Y-83341000D02*
X136247621Y-85460000D01*
X136247621Y-87540000D02*
X136247621Y-89659000D01*
X136287621Y-83350000D02*
X136287621Y-85460000D01*
X136287621Y-87540000D02*
X136287621Y-89650000D01*
X136327621Y-83360000D02*
X136327621Y-85460000D01*
X136327621Y-87540000D02*
X136327621Y-89640000D01*
X136367621Y-83369000D02*
X136367621Y-85460000D01*
X136367621Y-87540000D02*
X136367621Y-89631000D01*
X136407621Y-83380000D02*
X136407621Y-85460000D01*
X136407621Y-87540000D02*
X136407621Y-89620000D01*
X136447621Y-83391000D02*
X136447621Y-85460000D01*
X136447621Y-87540000D02*
X136447621Y-89609000D01*
X136487621Y-83402000D02*
X136487621Y-85460000D01*
X136487621Y-87540000D02*
X136487621Y-89598000D01*
X136527621Y-83414000D02*
X136527621Y-85460000D01*
X136527621Y-87540000D02*
X136527621Y-89586000D01*
X136567621Y-83427000D02*
X136567621Y-85460000D01*
X136567621Y-87540000D02*
X136567621Y-89573000D01*
X136607621Y-83440000D02*
X136607621Y-85460000D01*
X136607621Y-87540000D02*
X136607621Y-89560000D01*
X136647621Y-83453000D02*
X136647621Y-85460000D01*
X136647621Y-87540000D02*
X136647621Y-89547000D01*
X136687621Y-83468000D02*
X136687621Y-85460000D01*
X136687621Y-87540000D02*
X136687621Y-89532000D01*
X136727621Y-83483000D02*
X136727621Y-85460000D01*
X136727621Y-87540000D02*
X136727621Y-89517000D01*
X136767621Y-83498000D02*
X136767621Y-85460000D01*
X136767621Y-87540000D02*
X136767621Y-89502000D01*
X136807621Y-83514000D02*
X136807621Y-85460000D01*
X136807621Y-87540000D02*
X136807621Y-89486000D01*
X136847621Y-83531000D02*
X136847621Y-85460000D01*
X136847621Y-87540000D02*
X136847621Y-89469000D01*
X136887621Y-83548000D02*
X136887621Y-85460000D01*
X136887621Y-87540000D02*
X136887621Y-89452000D01*
X136927621Y-83566000D02*
X136927621Y-85460000D01*
X136927621Y-87540000D02*
X136927621Y-89434000D01*
X136967621Y-83585000D02*
X136967621Y-85460000D01*
X136967621Y-87540000D02*
X136967621Y-89415000D01*
X137007621Y-83604000D02*
X137007621Y-85460000D01*
X137007621Y-87540000D02*
X137007621Y-89396000D01*
X137047621Y-83624000D02*
X137047621Y-85460000D01*
X137047621Y-87540000D02*
X137047621Y-89376000D01*
X137087621Y-83645000D02*
X137087621Y-85460000D01*
X137087621Y-87540000D02*
X137087621Y-89355000D01*
X137127621Y-83666000D02*
X137127621Y-85460000D01*
X137127621Y-87540000D02*
X137127621Y-89334000D01*
X137167621Y-83688000D02*
X137167621Y-85460000D01*
X137167621Y-87540000D02*
X137167621Y-89312000D01*
X137207621Y-83711000D02*
X137207621Y-85460000D01*
X137207621Y-87540000D02*
X137207621Y-89289000D01*
X137247621Y-83735000D02*
X137247621Y-85460000D01*
X137247621Y-87540000D02*
X137247621Y-89265000D01*
X137287621Y-83759000D02*
X137287621Y-85460000D01*
X137287621Y-87540000D02*
X137287621Y-89241000D01*
X137327621Y-83784000D02*
X137327621Y-85460000D01*
X137327621Y-87540000D02*
X137327621Y-89216000D01*
X137367621Y-83810000D02*
X137367621Y-85460000D01*
X137367621Y-87540000D02*
X137367621Y-89190000D01*
X137407621Y-83837000D02*
X137407621Y-85460000D01*
X137407621Y-87540000D02*
X137407621Y-89163000D01*
X137447621Y-83864000D02*
X137447621Y-85460000D01*
X137447621Y-87540000D02*
X137447621Y-89136000D01*
X137487621Y-83893000D02*
X137487621Y-85460000D01*
X137487621Y-87540000D02*
X137487621Y-89107000D01*
X137527621Y-83923000D02*
X137527621Y-85460000D01*
X137527621Y-87540000D02*
X137527621Y-89077000D01*
X137567621Y-83953000D02*
X137567621Y-85460000D01*
X137567621Y-87540000D02*
X137567621Y-89047000D01*
X137607621Y-83984000D02*
X137607621Y-85460000D01*
X137607621Y-87540000D02*
X137607621Y-89016000D01*
X137647621Y-84017000D02*
X137647621Y-85460000D01*
X137647621Y-87540000D02*
X137647621Y-88983000D01*
X137687621Y-84050000D02*
X137687621Y-85460000D01*
X137687621Y-87540000D02*
X137687621Y-88950000D01*
X137727621Y-84085000D02*
X137727621Y-85460000D01*
X137727621Y-87540000D02*
X137727621Y-88915000D01*
X137767621Y-84121000D02*
X137767621Y-85460000D01*
X137767621Y-87540000D02*
X137767621Y-88879000D01*
X137807621Y-84158000D02*
X137807621Y-85460000D01*
X137807621Y-87540000D02*
X137807621Y-88842000D01*
X137847621Y-84196000D02*
X137847621Y-85460000D01*
X137847621Y-87540000D02*
X137847621Y-88804000D01*
X137887621Y-84236000D02*
X137887621Y-88764000D01*
X137927621Y-84277000D02*
X137927621Y-88723000D01*
X137967621Y-84319000D02*
X137967621Y-88681000D01*
X138007621Y-84363000D02*
X138007621Y-88637000D01*
X138047621Y-84409000D02*
X138047621Y-88591000D01*
X138087621Y-84456000D02*
X138087621Y-88544000D01*
X138127621Y-84505000D02*
X138127621Y-88495000D01*
X138167621Y-84557000D02*
X138167621Y-88443000D01*
X138207621Y-84610000D02*
X138207621Y-88390000D01*
X138247621Y-84666000D02*
X138247621Y-88334000D01*
X138287621Y-84725000D02*
X138287621Y-88275000D01*
X138327621Y-84786000D02*
X138327621Y-88214000D01*
X138367621Y-84851000D02*
X138367621Y-88149000D01*
X138407621Y-84919000D02*
X138407621Y-88081000D01*
X138447621Y-84991000D02*
X138447621Y-88009000D01*
X138487621Y-85068000D02*
X138487621Y-87932000D01*
X138527621Y-85150000D02*
X138527621Y-87850000D01*
X138567621Y-85239000D02*
X138567621Y-87761000D01*
X138607621Y-85335000D02*
X138607621Y-87665000D01*
X138647621Y-85442000D02*
X138647621Y-87558000D01*
X138687621Y-85561000D02*
X138687621Y-87439000D01*
X138727621Y-85699000D02*
X138727621Y-87301000D01*
X138767621Y-85867000D02*
X138767621Y-87133000D01*
X138807621Y-86098000D02*
X138807621Y-86902000D01*
X138837621Y-86500000D02*
G75*
G02*
X132297621Y-86500000I-3270000J0D01*
G01*
X132297621Y-86500000D02*
G75*
G02*
X138837621Y-86500000I3270000J0D01*
G01*
%TO.C,SW1*%
X121250000Y-49500000D02*
X121250000Y-51000000D01*
X122500000Y-53500000D02*
X127000000Y-53500000D01*
X127000000Y-47000000D02*
X122500000Y-47000000D01*
X128250000Y-51000000D02*
X128250000Y-49500000D01*
%TO.C,R4*%
X135230000Y-96130000D02*
X135230000Y-96460000D01*
X135230000Y-98870000D02*
X135230000Y-98540000D01*
X141770000Y-96130000D02*
X135230000Y-96130000D01*
X141770000Y-96460000D02*
X141770000Y-96130000D01*
X141770000Y-98540000D02*
X141770000Y-98870000D01*
X141770000Y-98870000D02*
X135230000Y-98870000D01*
%TO.C,BT1*%
X133500000Y-102950000D02*
X211500000Y-102950000D01*
X133500000Y-123050000D02*
X133500000Y-102950000D01*
X211500000Y-102950000D02*
X211500000Y-123050000D01*
X211500000Y-123050000D02*
X133500000Y-123050000D01*
%TO.C,C13*%
X199100151Y-83720000D02*
X199430151Y-83720000D01*
X199100151Y-88660000D02*
X199100151Y-83720000D01*
X199100151Y-88660000D02*
X199430151Y-88660000D01*
X201510151Y-83720000D02*
X201840151Y-83720000D01*
X201510151Y-88660000D02*
X201840151Y-88660000D01*
X201840151Y-88660000D02*
X201840151Y-83720000D01*
%TO.C,Q1*%
X125940000Y-103500000D02*
X125940000Y-101550000D01*
X125940000Y-103500000D02*
X125940000Y-105450000D01*
X131060000Y-103500000D02*
X131060000Y-101550000D01*
X131060000Y-103500000D02*
X131060000Y-105450000D01*
X126035000Y-106200000D02*
X125705000Y-106440000D01*
X125705000Y-105960000D01*
X126035000Y-106200000D01*
G36*
X126035000Y-106200000D02*
G01*
X125705000Y-106440000D01*
X125705000Y-105960000D01*
X126035000Y-106200000D01*
G37*
%TO.C,C14*%
X162460000Y-84284888D02*
X160931000Y-84284888D01*
X162460000Y-84324888D02*
X160935000Y-84324888D01*
X162460000Y-84364888D02*
X160940000Y-84364888D01*
X162460000Y-84404888D02*
X160945000Y-84404888D01*
X162460000Y-84444888D02*
X160951000Y-84444888D01*
X162460000Y-84484888D02*
X160957000Y-84484888D01*
X162460000Y-84524888D02*
X160964000Y-84524888D01*
X162460000Y-84564888D02*
X160972000Y-84564888D01*
X162460000Y-84604888D02*
X160981000Y-84604888D01*
X162460000Y-84644888D02*
X160990000Y-84644888D01*
X162460000Y-84684888D02*
X160999000Y-84684888D01*
X162460000Y-84724888D02*
X161010000Y-84724888D01*
X162460000Y-84764888D02*
X161021000Y-84764888D01*
X162460000Y-84804888D02*
X161033000Y-84804888D01*
X162460000Y-84844888D02*
X161045000Y-84844888D01*
X162460000Y-84884888D02*
X161058000Y-84884888D01*
X162460000Y-84924888D02*
X161072000Y-84924888D01*
X162460000Y-84964888D02*
X161087000Y-84964888D01*
X162460000Y-85004888D02*
X161102000Y-85004888D01*
X162460000Y-85044888D02*
X161118000Y-85044888D01*
X162460000Y-85084888D02*
X161135000Y-85084888D01*
X162460000Y-85124888D02*
X161153000Y-85124888D01*
X162460000Y-85164888D02*
X161171000Y-85164888D01*
X162460000Y-85204888D02*
X161191000Y-85204888D01*
X162460000Y-85244888D02*
X161211000Y-85244888D01*
X162460000Y-85284888D02*
X161232000Y-85284888D01*
X162460000Y-85324888D02*
X161254000Y-85324888D01*
X162460000Y-85364888D02*
X161277000Y-85364888D01*
X162460000Y-85404888D02*
X161301000Y-85404888D01*
X162460000Y-85444888D02*
X161325000Y-85444888D01*
X162460000Y-85484888D02*
X161351000Y-85484888D01*
X162460000Y-85524888D02*
X161378000Y-85524888D01*
X162460000Y-85564888D02*
X161406000Y-85564888D01*
X162460000Y-85604888D02*
X161435000Y-85604888D01*
X162460000Y-85644888D02*
X161465000Y-85644888D01*
X162460000Y-85684888D02*
X161497000Y-85684888D01*
X162460000Y-85724888D02*
X161530000Y-85724888D01*
X162460000Y-85764888D02*
X161564000Y-85764888D01*
X162460000Y-85804888D02*
X161599000Y-85804888D01*
X162460000Y-85844888D02*
X161636000Y-85844888D01*
X162460000Y-85884888D02*
X161675000Y-85884888D01*
X162460000Y-85924888D02*
X161715000Y-85924888D01*
X162460000Y-85964888D02*
X161757000Y-85964888D01*
X162460000Y-86004888D02*
X161801000Y-86004888D01*
X162460000Y-86044888D02*
X161848000Y-86044888D01*
X162460000Y-86084888D02*
X161896000Y-86084888D01*
X162460000Y-86124888D02*
X161947000Y-86124888D01*
X162460000Y-86164888D02*
X162001000Y-86164888D01*
X162460000Y-86204888D02*
X162057000Y-86204888D01*
X162460000Y-86244888D02*
X162117000Y-86244888D01*
X162460000Y-86284888D02*
X162181000Y-86284888D01*
X162460000Y-86324888D02*
X162249000Y-86324888D01*
X163783000Y-86644888D02*
X163217000Y-86644888D01*
X164017000Y-86604888D02*
X162983000Y-86604888D01*
X164177000Y-86564888D02*
X162823000Y-86564888D01*
X164305000Y-86524888D02*
X162695000Y-86524888D01*
X164414000Y-86484888D02*
X162586000Y-86484888D01*
X164511000Y-86444888D02*
X162489000Y-86444888D01*
X164598000Y-86404888D02*
X162402000Y-86404888D01*
X164677000Y-86364888D02*
X162323000Y-86364888D01*
X164751000Y-86324888D02*
X164540000Y-86324888D01*
X164819000Y-86284888D02*
X164540000Y-86284888D01*
X164883000Y-86244888D02*
X164540000Y-86244888D01*
X164943000Y-86204888D02*
X164540000Y-86204888D01*
X164975000Y-81240113D02*
X164975000Y-81740113D01*
X164999000Y-86164888D02*
X164540000Y-86164888D01*
X165053000Y-86124888D02*
X164540000Y-86124888D01*
X165104000Y-86084888D02*
X164540000Y-86084888D01*
X165152000Y-86044888D02*
X164540000Y-86044888D01*
X165199000Y-86004888D02*
X164540000Y-86004888D01*
X165225000Y-81490113D02*
X164725000Y-81490113D01*
X165243000Y-85964888D02*
X164540000Y-85964888D01*
X165285000Y-85924888D02*
X164540000Y-85924888D01*
X165325000Y-85884888D02*
X164540000Y-85884888D01*
X165364000Y-85844888D02*
X164540000Y-85844888D01*
X165401000Y-85804888D02*
X164540000Y-85804888D01*
X165436000Y-85764888D02*
X164540000Y-85764888D01*
X165470000Y-85724888D02*
X164540000Y-85724888D01*
X165503000Y-85684888D02*
X164540000Y-85684888D01*
X165535000Y-85644888D02*
X164540000Y-85644888D01*
X165565000Y-85604888D02*
X164540000Y-85604888D01*
X165594000Y-85564888D02*
X164540000Y-85564888D01*
X165622000Y-85524888D02*
X164540000Y-85524888D01*
X165649000Y-85484888D02*
X164540000Y-85484888D01*
X165675000Y-85444888D02*
X164540000Y-85444888D01*
X165699000Y-85404888D02*
X164540000Y-85404888D01*
X165723000Y-85364888D02*
X164540000Y-85364888D01*
X165746000Y-85324888D02*
X164540000Y-85324888D01*
X165768000Y-85284888D02*
X164540000Y-85284888D01*
X165789000Y-85244888D02*
X164540000Y-85244888D01*
X165809000Y-85204888D02*
X164540000Y-85204888D01*
X165829000Y-85164888D02*
X164540000Y-85164888D01*
X165847000Y-85124888D02*
X164540000Y-85124888D01*
X165865000Y-85084888D02*
X164540000Y-85084888D01*
X165882000Y-85044888D02*
X164540000Y-85044888D01*
X165898000Y-85004888D02*
X164540000Y-85004888D01*
X165913000Y-84964888D02*
X164540000Y-84964888D01*
X165928000Y-84924888D02*
X164540000Y-84924888D01*
X165942000Y-84884888D02*
X164540000Y-84884888D01*
X165955000Y-84844888D02*
X164540000Y-84844888D01*
X165967000Y-84804888D02*
X164540000Y-84804888D01*
X165979000Y-84764888D02*
X164540000Y-84764888D01*
X165990000Y-84724888D02*
X164540000Y-84724888D01*
X166001000Y-84684888D02*
X164540000Y-84684888D01*
X166010000Y-84644888D02*
X164540000Y-84644888D01*
X166019000Y-84604888D02*
X164540000Y-84604888D01*
X166028000Y-84564888D02*
X164540000Y-84564888D01*
X166036000Y-84524888D02*
X164540000Y-84524888D01*
X166043000Y-84484888D02*
X164540000Y-84484888D01*
X166049000Y-84444888D02*
X164540000Y-84444888D01*
X166055000Y-84404888D02*
X164540000Y-84404888D01*
X166060000Y-84364888D02*
X164540000Y-84364888D01*
X166065000Y-84324888D02*
X164540000Y-84324888D01*
X166069000Y-84284888D02*
X164540000Y-84284888D01*
X166072000Y-84244888D02*
X160928000Y-84244888D01*
X166075000Y-84204888D02*
X160925000Y-84204888D01*
X166077000Y-84164888D02*
X160923000Y-84164888D01*
X166079000Y-84124888D02*
X160921000Y-84124888D01*
X166080000Y-84044888D02*
X160920000Y-84044888D01*
X166080000Y-84084888D02*
X160920000Y-84084888D01*
X166120000Y-84044888D02*
G75*
G02*
X160880000Y-84044888I-2620000J0D01*
G01*
X160880000Y-84044888D02*
G75*
G02*
X166120000Y-84044888I2620000J0D01*
G01*
%TO.C,C10*%
X120930000Y-55094400D02*
X120930000Y-55424400D01*
X120930000Y-55094400D02*
X125870000Y-55094400D01*
X120930000Y-57504400D02*
X120930000Y-57834400D01*
X120930000Y-57834400D02*
X125870000Y-57834400D01*
X125870000Y-55094400D02*
X125870000Y-55424400D01*
X125870000Y-57504400D02*
X125870000Y-57834400D01*
%TO.C,C20*%
X198855151Y-93530000D02*
X199185151Y-93530000D01*
X198855151Y-98470000D02*
X198855151Y-93530000D01*
X198855151Y-98470000D02*
X199185151Y-98470000D01*
X201265151Y-93530000D02*
X201595151Y-93530000D01*
X201265151Y-98470000D02*
X201595151Y-98470000D01*
X201595151Y-98470000D02*
X201595151Y-93530000D01*
%TO.C,C4*%
X116920000Y-110415113D02*
X122080000Y-110415113D01*
X116920000Y-110455113D02*
X122080000Y-110455113D01*
X116921000Y-110375113D02*
X122079000Y-110375113D01*
X116923000Y-110335113D02*
X122077000Y-110335113D01*
X116925000Y-110295113D02*
X122075000Y-110295113D01*
X116928000Y-110255113D02*
X122072000Y-110255113D01*
X116931000Y-110215113D02*
X118460000Y-110215113D01*
X116935000Y-110175113D02*
X118460000Y-110175113D01*
X116940000Y-110135113D02*
X118460000Y-110135113D01*
X116945000Y-110095113D02*
X118460000Y-110095113D01*
X116951000Y-110055113D02*
X118460000Y-110055113D01*
X116957000Y-110015113D02*
X118460000Y-110015113D01*
X116964000Y-109975113D02*
X118460000Y-109975113D01*
X116972000Y-109935113D02*
X118460000Y-109935113D01*
X116981000Y-109895113D02*
X118460000Y-109895113D01*
X116990000Y-109855113D02*
X118460000Y-109855113D01*
X116999000Y-109815113D02*
X118460000Y-109815113D01*
X117010000Y-109775113D02*
X118460000Y-109775113D01*
X117021000Y-109735113D02*
X118460000Y-109735113D01*
X117033000Y-109695113D02*
X118460000Y-109695113D01*
X117045000Y-109655113D02*
X118460000Y-109655113D01*
X117058000Y-109615113D02*
X118460000Y-109615113D01*
X117072000Y-109575113D02*
X118460000Y-109575113D01*
X117087000Y-109535113D02*
X118460000Y-109535113D01*
X117102000Y-109495113D02*
X118460000Y-109495113D01*
X117118000Y-109455113D02*
X118460000Y-109455113D01*
X117135000Y-109415113D02*
X118460000Y-109415113D01*
X117153000Y-109375113D02*
X118460000Y-109375113D01*
X117171000Y-109335113D02*
X118460000Y-109335113D01*
X117191000Y-109295113D02*
X118460000Y-109295113D01*
X117211000Y-109255113D02*
X118460000Y-109255113D01*
X117232000Y-109215113D02*
X118460000Y-109215113D01*
X117254000Y-109175113D02*
X118460000Y-109175113D01*
X117277000Y-109135113D02*
X118460000Y-109135113D01*
X117301000Y-109095113D02*
X118460000Y-109095113D01*
X117325000Y-109055113D02*
X118460000Y-109055113D01*
X117351000Y-109015113D02*
X118460000Y-109015113D01*
X117378000Y-108975113D02*
X118460000Y-108975113D01*
X117406000Y-108935113D02*
X118460000Y-108935113D01*
X117435000Y-108895113D02*
X118460000Y-108895113D01*
X117465000Y-108855113D02*
X118460000Y-108855113D01*
X117497000Y-108815113D02*
X118460000Y-108815113D01*
X117530000Y-108775113D02*
X118460000Y-108775113D01*
X117564000Y-108735113D02*
X118460000Y-108735113D01*
X117599000Y-108695113D02*
X118460000Y-108695113D01*
X117636000Y-108655113D02*
X118460000Y-108655113D01*
X117675000Y-108615113D02*
X118460000Y-108615113D01*
X117715000Y-108575113D02*
X118460000Y-108575113D01*
X117757000Y-108535113D02*
X118460000Y-108535113D01*
X117775000Y-113009888D02*
X118275000Y-113009888D01*
X117801000Y-108495113D02*
X118460000Y-108495113D01*
X117848000Y-108455113D02*
X118460000Y-108455113D01*
X117896000Y-108415113D02*
X118460000Y-108415113D01*
X117947000Y-108375113D02*
X118460000Y-108375113D01*
X118001000Y-108335113D02*
X118460000Y-108335113D01*
X118025000Y-113259888D02*
X118025000Y-112759888D01*
X118057000Y-108295113D02*
X118460000Y-108295113D01*
X118117000Y-108255113D02*
X118460000Y-108255113D01*
X118181000Y-108215113D02*
X118460000Y-108215113D01*
X118249000Y-108175113D02*
X118460000Y-108175113D01*
X118323000Y-108135113D02*
X120677000Y-108135113D01*
X118402000Y-108095113D02*
X120598000Y-108095113D01*
X118489000Y-108055113D02*
X120511000Y-108055113D01*
X118586000Y-108015113D02*
X120414000Y-108015113D01*
X118695000Y-107975113D02*
X120305000Y-107975113D01*
X118823000Y-107935113D02*
X120177000Y-107935113D01*
X118983000Y-107895113D02*
X120017000Y-107895113D01*
X119217000Y-107855113D02*
X119783000Y-107855113D01*
X120540000Y-108175113D02*
X120751000Y-108175113D01*
X120540000Y-108215113D02*
X120819000Y-108215113D01*
X120540000Y-108255113D02*
X120883000Y-108255113D01*
X120540000Y-108295113D02*
X120943000Y-108295113D01*
X120540000Y-108335113D02*
X120999000Y-108335113D01*
X120540000Y-108375113D02*
X121053000Y-108375113D01*
X120540000Y-108415113D02*
X121104000Y-108415113D01*
X120540000Y-108455113D02*
X121152000Y-108455113D01*
X120540000Y-108495113D02*
X121199000Y-108495113D01*
X120540000Y-108535113D02*
X121243000Y-108535113D01*
X120540000Y-108575113D02*
X121285000Y-108575113D01*
X120540000Y-108615113D02*
X121325000Y-108615113D01*
X120540000Y-108655113D02*
X121364000Y-108655113D01*
X120540000Y-108695113D02*
X121401000Y-108695113D01*
X120540000Y-108735113D02*
X121436000Y-108735113D01*
X120540000Y-108775113D02*
X121470000Y-108775113D01*
X120540000Y-108815113D02*
X121503000Y-108815113D01*
X120540000Y-108855113D02*
X121535000Y-108855113D01*
X120540000Y-108895113D02*
X121565000Y-108895113D01*
X120540000Y-108935113D02*
X121594000Y-108935113D01*
X120540000Y-108975113D02*
X121622000Y-108975113D01*
X120540000Y-109015113D02*
X121649000Y-109015113D01*
X120540000Y-109055113D02*
X121675000Y-109055113D01*
X120540000Y-109095113D02*
X121699000Y-109095113D01*
X120540000Y-109135113D02*
X121723000Y-109135113D01*
X120540000Y-109175113D02*
X121746000Y-109175113D01*
X120540000Y-109215113D02*
X121768000Y-109215113D01*
X120540000Y-109255113D02*
X121789000Y-109255113D01*
X120540000Y-109295113D02*
X121809000Y-109295113D01*
X120540000Y-109335113D02*
X121829000Y-109335113D01*
X120540000Y-109375113D02*
X121847000Y-109375113D01*
X120540000Y-109415113D02*
X121865000Y-109415113D01*
X120540000Y-109455113D02*
X121882000Y-109455113D01*
X120540000Y-109495113D02*
X121898000Y-109495113D01*
X120540000Y-109535113D02*
X121913000Y-109535113D01*
X120540000Y-109575113D02*
X121928000Y-109575113D01*
X120540000Y-109615113D02*
X121942000Y-109615113D01*
X120540000Y-109655113D02*
X121955000Y-109655113D01*
X120540000Y-109695113D02*
X121967000Y-109695113D01*
X120540000Y-109735113D02*
X121979000Y-109735113D01*
X120540000Y-109775113D02*
X121990000Y-109775113D01*
X120540000Y-109815113D02*
X122001000Y-109815113D01*
X120540000Y-109855113D02*
X122010000Y-109855113D01*
X120540000Y-109895113D02*
X122019000Y-109895113D01*
X120540000Y-109935113D02*
X122028000Y-109935113D01*
X120540000Y-109975113D02*
X122036000Y-109975113D01*
X120540000Y-110015113D02*
X122043000Y-110015113D01*
X120540000Y-110055113D02*
X122049000Y-110055113D01*
X120540000Y-110095113D02*
X122055000Y-110095113D01*
X120540000Y-110135113D02*
X122060000Y-110135113D01*
X120540000Y-110175113D02*
X122065000Y-110175113D01*
X120540000Y-110215113D02*
X122069000Y-110215113D01*
X122120000Y-110455113D02*
G75*
G02*
X116880000Y-110455113I-2620000J0D01*
G01*
X116880000Y-110455113D02*
G75*
G02*
X122120000Y-110455113I2620000J0D01*
G01*
%TO.C,U2*%
X118940000Y-116637500D02*
X118940000Y-115837500D01*
X118940000Y-116637500D02*
X118940000Y-117437500D01*
X122060000Y-116637500D02*
X122060000Y-115837500D01*
X122060000Y-116637500D02*
X122060000Y-117437500D01*
X122340000Y-115577500D02*
X122010000Y-115337500D01*
X122340000Y-115097500D01*
X122340000Y-115577500D01*
G36*
X122340000Y-115577500D02*
G01*
X122010000Y-115337500D01*
X122340000Y-115097500D01*
X122340000Y-115577500D01*
G37*
%TO.C,J2*%
X168195000Y-79020000D02*
X168195000Y-81620000D01*
X168195000Y-79020000D02*
X170855000Y-79020000D01*
X168195000Y-81620000D02*
X170855000Y-81620000D01*
X169525000Y-76420000D02*
X170855000Y-76420000D01*
X170855000Y-76420000D02*
X170855000Y-77750000D01*
X170855000Y-79020000D02*
X170855000Y-81620000D01*
%TO.C,R8*%
X194100151Y-82920000D02*
X194430151Y-82920000D01*
X194100151Y-89460000D02*
X194100151Y-82920000D01*
X194430151Y-89460000D02*
X194100151Y-89460000D01*
X196510151Y-89460000D02*
X196840151Y-89460000D01*
X196840151Y-82920000D02*
X196510151Y-82920000D01*
X196840151Y-89460000D02*
X196840151Y-82920000D01*
%TO.C,Y1*%
X173365000Y-85475000D02*
X179615000Y-85475000D01*
X173365000Y-90525000D02*
X179615000Y-90525000D01*
X173365000Y-90525000D02*
G75*
G02*
X173365000Y-85475000I0J2525000D01*
G01*
X179615000Y-85475000D02*
G75*
G02*
X179615000Y-90525000I0J-2525000D01*
G01*
%TO.C,C11*%
X195130000Y-69030000D02*
X195130000Y-73970000D01*
X195460000Y-69030000D02*
X195130000Y-69030000D01*
X195460000Y-73970000D02*
X195130000Y-73970000D01*
X197870000Y-69030000D02*
X197540000Y-69030000D01*
X197870000Y-69030000D02*
X197870000Y-73970000D01*
X197870000Y-73970000D02*
X197540000Y-73970000D01*
%TO.C,R3*%
X124230000Y-108630000D02*
X124230000Y-108960000D01*
X124230000Y-111370000D02*
X124230000Y-111040000D01*
X130770000Y-108630000D02*
X124230000Y-108630000D01*
X130770000Y-108960000D02*
X130770000Y-108630000D01*
X130770000Y-111040000D02*
X130770000Y-111370000D01*
X130770000Y-111370000D02*
X124230000Y-111370000D01*
%TO.C,C9*%
X120345225Y-59489400D02*
X120845225Y-59489400D01*
X120595225Y-59239400D02*
X120595225Y-59739400D01*
X123150000Y-58384400D02*
X123150000Y-63544400D01*
X123190000Y-58384400D02*
X123190000Y-63544400D01*
X123230000Y-58385400D02*
X123230000Y-63543400D01*
X123270000Y-58387400D02*
X123270000Y-63541400D01*
X123310000Y-58389400D02*
X123310000Y-63539400D01*
X123350000Y-58392400D02*
X123350000Y-63536400D01*
X123390000Y-58395400D02*
X123390000Y-59924400D01*
X123390000Y-62004400D02*
X123390000Y-63533400D01*
X123430000Y-58399400D02*
X123430000Y-59924400D01*
X123430000Y-62004400D02*
X123430000Y-63529400D01*
X123470000Y-58404400D02*
X123470000Y-59924400D01*
X123470000Y-62004400D02*
X123470000Y-63524400D01*
X123510000Y-58409400D02*
X123510000Y-59924400D01*
X123510000Y-62004400D02*
X123510000Y-63519400D01*
X123550000Y-58415400D02*
X123550000Y-59924400D01*
X123550000Y-62004400D02*
X123550000Y-63513400D01*
X123590000Y-58421400D02*
X123590000Y-59924400D01*
X123590000Y-62004400D02*
X123590000Y-63507400D01*
X123630000Y-58428400D02*
X123630000Y-59924400D01*
X123630000Y-62004400D02*
X123630000Y-63500400D01*
X123670000Y-58436400D02*
X123670000Y-59924400D01*
X123670000Y-62004400D02*
X123670000Y-63492400D01*
X123710000Y-58445400D02*
X123710000Y-59924400D01*
X123710000Y-62004400D02*
X123710000Y-63483400D01*
X123750000Y-58454400D02*
X123750000Y-59924400D01*
X123750000Y-62004400D02*
X123750000Y-63474400D01*
X123790000Y-58463400D02*
X123790000Y-59924400D01*
X123790000Y-62004400D02*
X123790000Y-63465400D01*
X123830000Y-58474400D02*
X123830000Y-59924400D01*
X123830000Y-62004400D02*
X123830000Y-63454400D01*
X123870000Y-58485400D02*
X123870000Y-59924400D01*
X123870000Y-62004400D02*
X123870000Y-63443400D01*
X123910000Y-58497400D02*
X123910000Y-59924400D01*
X123910000Y-62004400D02*
X123910000Y-63431400D01*
X123950000Y-58509400D02*
X123950000Y-59924400D01*
X123950000Y-62004400D02*
X123950000Y-63419400D01*
X123990000Y-58522400D02*
X123990000Y-59924400D01*
X123990000Y-62004400D02*
X123990000Y-63406400D01*
X124030000Y-58536400D02*
X124030000Y-59924400D01*
X124030000Y-62004400D02*
X124030000Y-63392400D01*
X124070000Y-58551400D02*
X124070000Y-59924400D01*
X124070000Y-62004400D02*
X124070000Y-63377400D01*
X124110000Y-58566400D02*
X124110000Y-59924400D01*
X124110000Y-62004400D02*
X124110000Y-63362400D01*
X124150000Y-58582400D02*
X124150000Y-59924400D01*
X124150000Y-62004400D02*
X124150000Y-63346400D01*
X124190000Y-58599400D02*
X124190000Y-59924400D01*
X124190000Y-62004400D02*
X124190000Y-63329400D01*
X124230000Y-58617400D02*
X124230000Y-59924400D01*
X124230000Y-62004400D02*
X124230000Y-63311400D01*
X124270000Y-58635400D02*
X124270000Y-59924400D01*
X124270000Y-62004400D02*
X124270000Y-63293400D01*
X124310000Y-58655400D02*
X124310000Y-59924400D01*
X124310000Y-62004400D02*
X124310000Y-63273400D01*
X124350000Y-58675400D02*
X124350000Y-59924400D01*
X124350000Y-62004400D02*
X124350000Y-63253400D01*
X124390000Y-58696400D02*
X124390000Y-59924400D01*
X124390000Y-62004400D02*
X124390000Y-63232400D01*
X124430000Y-58718400D02*
X124430000Y-59924400D01*
X124430000Y-62004400D02*
X124430000Y-63210400D01*
X124470000Y-58741400D02*
X124470000Y-59924400D01*
X124470000Y-62004400D02*
X124470000Y-63187400D01*
X124510000Y-58765400D02*
X124510000Y-59924400D01*
X124510000Y-62004400D02*
X124510000Y-63163400D01*
X124550000Y-58789400D02*
X124550000Y-59924400D01*
X124550000Y-62004400D02*
X124550000Y-63139400D01*
X124590000Y-58815400D02*
X124590000Y-59924400D01*
X124590000Y-62004400D02*
X124590000Y-63113400D01*
X124630000Y-58842400D02*
X124630000Y-59924400D01*
X124630000Y-62004400D02*
X124630000Y-63086400D01*
X124670000Y-58870400D02*
X124670000Y-59924400D01*
X124670000Y-62004400D02*
X124670000Y-63058400D01*
X124710000Y-58899400D02*
X124710000Y-59924400D01*
X124710000Y-62004400D02*
X124710000Y-63029400D01*
X124750000Y-58929400D02*
X124750000Y-59924400D01*
X124750000Y-62004400D02*
X124750000Y-62999400D01*
X124790000Y-58961400D02*
X124790000Y-59924400D01*
X124790000Y-62004400D02*
X124790000Y-62967400D01*
X124830000Y-58994400D02*
X124830000Y-59924400D01*
X124830000Y-62004400D02*
X124830000Y-62934400D01*
X124870000Y-59028400D02*
X124870000Y-59924400D01*
X124870000Y-62004400D02*
X124870000Y-62900400D01*
X124910000Y-59063400D02*
X124910000Y-59924400D01*
X124910000Y-62004400D02*
X124910000Y-62865400D01*
X124950000Y-59100400D02*
X124950000Y-59924400D01*
X124950000Y-62004400D02*
X124950000Y-62828400D01*
X124990000Y-59139400D02*
X124990000Y-59924400D01*
X124990000Y-62004400D02*
X124990000Y-62789400D01*
X125030000Y-59179400D02*
X125030000Y-59924400D01*
X125030000Y-62004400D02*
X125030000Y-62749400D01*
X125070000Y-59221400D02*
X125070000Y-59924400D01*
X125070000Y-62004400D02*
X125070000Y-62707400D01*
X125110000Y-59265400D02*
X125110000Y-59924400D01*
X125110000Y-62004400D02*
X125110000Y-62663400D01*
X125150000Y-59312400D02*
X125150000Y-59924400D01*
X125150000Y-62004400D02*
X125150000Y-62616400D01*
X125190000Y-59360400D02*
X125190000Y-59924400D01*
X125190000Y-62004400D02*
X125190000Y-62568400D01*
X125230000Y-59411400D02*
X125230000Y-59924400D01*
X125230000Y-62004400D02*
X125230000Y-62517400D01*
X125270000Y-59465400D02*
X125270000Y-59924400D01*
X125270000Y-62004400D02*
X125270000Y-62463400D01*
X125310000Y-59521400D02*
X125310000Y-59924400D01*
X125310000Y-62004400D02*
X125310000Y-62407400D01*
X125350000Y-59581400D02*
X125350000Y-59924400D01*
X125350000Y-62004400D02*
X125350000Y-62347400D01*
X125390000Y-59645400D02*
X125390000Y-59924400D01*
X125390000Y-62004400D02*
X125390000Y-62283400D01*
X125430000Y-59713400D02*
X125430000Y-59924400D01*
X125430000Y-62004400D02*
X125430000Y-62215400D01*
X125470000Y-59787400D02*
X125470000Y-62141400D01*
X125510000Y-59866400D02*
X125510000Y-62062400D01*
X125550000Y-59953400D02*
X125550000Y-61975400D01*
X125590000Y-60050400D02*
X125590000Y-61878400D01*
X125630000Y-60159400D02*
X125630000Y-61769400D01*
X125670000Y-60287400D02*
X125670000Y-61641400D01*
X125710000Y-60447400D02*
X125710000Y-61481400D01*
X125750000Y-60681400D02*
X125750000Y-61247400D01*
X125770000Y-60964400D02*
G75*
G02*
X120530000Y-60964400I-2620000J0D01*
G01*
X120530000Y-60964400D02*
G75*
G02*
X125770000Y-60964400I2620000J0D01*
G01*
%TO.C,C1*%
X126930000Y-133270000D02*
X126930000Y-128730000D01*
X129014000Y-128730000D02*
X129070000Y-128730000D01*
X129014000Y-133270000D02*
X129070000Y-133270000D01*
X129070000Y-133270000D02*
X129070000Y-128730000D01*
%TO.C,R11*%
X123630000Y-127040000D02*
X123960000Y-127040000D01*
X123630000Y-133580000D02*
X123630000Y-127040000D01*
X123960000Y-133580000D02*
X123630000Y-133580000D01*
X126040000Y-133580000D02*
X126370000Y-133580000D01*
X126370000Y-127040000D02*
X126040000Y-127040000D01*
X126370000Y-133580000D02*
X126370000Y-127040000D01*
%TO.C,C16*%
X187685000Y-79080000D02*
X189215000Y-79080000D01*
X187685000Y-80920000D02*
X189215000Y-80920000D01*
%TO.C,C19*%
X183190600Y-88955000D02*
X183190600Y-87425000D01*
X185030600Y-88955000D02*
X185030600Y-87425000D01*
%TO.C,C17*%
X189215000Y-86080000D02*
X187685000Y-86080000D01*
X189215000Y-87920000D02*
X187685000Y-87920000D01*
%TO.C,U6*%
X186150000Y-78240000D02*
X186150000Y-76970000D01*
X186400000Y-62390000D02*
X194400000Y-62390000D01*
X186400000Y-77990000D02*
X186400000Y-62390000D01*
X187420000Y-78240000D02*
X186150000Y-78240000D01*
X194400000Y-62390000D02*
X194400000Y-77990000D01*
X194400000Y-77990000D02*
X186400000Y-77990000D01*
%TO.C,BT2*%
X133355000Y-123950000D02*
X211355000Y-123950000D01*
X133355000Y-144050000D02*
X133355000Y-123950000D01*
X211355000Y-123950000D02*
X211355000Y-144050000D01*
X211355000Y-144050000D02*
X133355000Y-144050000D01*
%TO.C,D3*%
X125350000Y-95010000D02*
X125350000Y-89500000D01*
X125350000Y-95010000D02*
X128650000Y-95010000D01*
X128650000Y-95010000D02*
X128650000Y-89500000D01*
%TO.C,C5*%
X121130000Y-101530000D02*
X121460000Y-101530000D01*
X121130000Y-106470000D02*
X121130000Y-101530000D01*
X121130000Y-106470000D02*
X121460000Y-106470000D01*
X123540000Y-101530000D02*
X123870000Y-101530000D01*
X123540000Y-106470000D02*
X123870000Y-106470000D01*
X123870000Y-106470000D02*
X123870000Y-101530000D01*
%TO.C,R1*%
X129630000Y-126730000D02*
X129960000Y-126730000D01*
X129630000Y-133270000D02*
X129630000Y-126730000D01*
X129960000Y-133270000D02*
X129630000Y-133270000D01*
X132040000Y-133270000D02*
X132370000Y-133270000D01*
X132370000Y-126730000D02*
X132040000Y-126730000D01*
X132370000Y-133270000D02*
X132370000Y-126730000D01*
%TO.C,U3*%
X126440000Y-84500000D02*
X126440000Y-83700000D01*
X126440000Y-84500000D02*
X126440000Y-85300000D01*
X129560000Y-84500000D02*
X129560000Y-83700000D01*
X129560000Y-84500000D02*
X129560000Y-85300000D01*
X126490000Y-85800000D02*
X126160000Y-86040000D01*
X126160000Y-85560000D01*
X126490000Y-85800000D01*
G36*
X126490000Y-85800000D02*
G01*
X126160000Y-86040000D01*
X126160000Y-85560000D01*
X126490000Y-85800000D01*
G37*
%TO.C,JP1*%
X200950000Y-67000000D02*
X205050000Y-67000000D01*
X200950000Y-69000000D02*
X200950000Y-67000000D01*
X205050000Y-67000000D02*
X205050000Y-69000000D01*
X205050000Y-69000000D02*
X200950000Y-69000000D01*
%TO.C,D6*%
X115850000Y-133510000D02*
X115850000Y-128000000D01*
X115850000Y-133510000D02*
X119150000Y-133510000D01*
X119150000Y-133510000D02*
X119150000Y-128000000D01*
%TO.C,R2*%
X124730000Y-121130000D02*
X131270000Y-121130000D01*
X124730000Y-121460000D02*
X124730000Y-121130000D01*
X124730000Y-123540000D02*
X124730000Y-123870000D01*
X124730000Y-123870000D02*
X131270000Y-123870000D01*
X131270000Y-121130000D02*
X131270000Y-121460000D01*
X131270000Y-123870000D02*
X131270000Y-123540000D01*
%TO.C,C12*%
X134580000Y-60300000D02*
X134910000Y-60300000D01*
X134580000Y-65240000D02*
X134580000Y-60300000D01*
X134580000Y-65240000D02*
X134910000Y-65240000D01*
X136990000Y-60300000D02*
X137320000Y-60300000D01*
X136990000Y-65240000D02*
X137320000Y-65240000D01*
X137320000Y-65240000D02*
X137320000Y-60300000D01*
D12*
%TO.C,U7*%
X138180000Y-53690000D02*
X140720000Y-53690000D01*
X138180000Y-65120000D02*
X138180000Y-53690000D01*
X140720000Y-47340000D02*
X140720000Y-53690000D01*
X140720000Y-53690000D02*
X140720000Y-66390000D01*
X140720000Y-65120000D02*
X138180000Y-65120000D01*
X140720000Y-66390000D02*
X143260000Y-66390000D01*
X143260000Y-66390000D02*
X143260000Y-67660000D01*
X143260000Y-66390000D02*
X152150000Y-66390000D01*
X143260000Y-67660000D02*
X152150000Y-67660000D01*
X152150000Y-66390000D02*
X167390000Y-66390000D01*
X152150000Y-67660000D02*
X152150000Y-66390000D01*
X157230000Y-48610000D02*
X166120000Y-48610000D01*
X157230000Y-56230000D02*
X157230000Y-48610000D01*
X166120000Y-48610000D02*
X166120000Y-56230000D01*
X166120000Y-56230000D02*
X157230000Y-56230000D01*
X167390000Y-47340000D02*
X140720000Y-47340000D01*
X167390000Y-52420000D02*
X167390000Y-47340000D01*
X167390000Y-65120000D02*
X167390000Y-52420000D01*
X167390000Y-65120000D02*
X176280000Y-65120000D01*
X167390000Y-66390000D02*
X167390000Y-65120000D01*
X176280000Y-52420000D02*
X167390000Y-52420000D01*
X176280000Y-52420000D02*
X176280000Y-65120000D01*
X176280000Y-65120000D02*
X177550000Y-65120000D01*
X177550000Y-52420000D02*
X176280000Y-52420000D01*
X177550000Y-65120000D02*
X177550000Y-52420000D01*
X177550000Y-65120000D02*
X178820000Y-65120000D01*
X178820000Y-52420000D02*
X177550000Y-52420000D01*
X178820000Y-65120000D02*
X178820000Y-52420000D01*
D11*
%TO.C,D2*%
X146760000Y-101000000D02*
X147780000Y-101000000D01*
X147780000Y-99530000D02*
X147780000Y-102470000D01*
X147780000Y-102470000D02*
X153220000Y-102470000D01*
X148560000Y-99530000D02*
X148560000Y-102470000D01*
X148680000Y-99530000D02*
X148680000Y-102470000D01*
X148800000Y-99530000D02*
X148800000Y-102470000D01*
X153220000Y-99530000D02*
X147780000Y-99530000D01*
X153220000Y-102470000D02*
X153220000Y-99530000D01*
X154240000Y-101000000D02*
X153220000Y-101000000D01*
%TO.C,R9*%
X129180000Y-54900000D02*
X135720000Y-54900000D01*
X129180000Y-55230000D02*
X129180000Y-54900000D01*
X129180000Y-57310000D02*
X129180000Y-57640000D01*
X129180000Y-57640000D02*
X135720000Y-57640000D01*
X135720000Y-54900000D02*
X135720000Y-55230000D01*
X135720000Y-57640000D02*
X135720000Y-57310000D01*
%TO.C,L1*%
X125370000Y-85750000D02*
G75*
G02*
X117630000Y-85750000I-3870000J0D01*
G01*
X117630000Y-85750000D02*
G75*
G02*
X125370000Y-85750000I3870000J0D01*
G01*
D12*
%TO.C,J1*%
X173755000Y-80430000D02*
X180489000Y-80430000D01*
X173755000Y-83630000D02*
X173755000Y-80430000D01*
X180489000Y-80430000D02*
X180489000Y-83630000D01*
X180489000Y-83630000D02*
X173755000Y-83630000D01*
D13*
X179089000Y-84630000D02*
G75*
G02*
X178889000Y-84630000I-100000J0D01*
G01*
X178889000Y-84630000D02*
G75*
G02*
X179089000Y-84630000I100000J0D01*
G01*
D11*
%TO.C,R14*%
X174230000Y-99630000D02*
X174230000Y-99960000D01*
X174230000Y-102370000D02*
X174230000Y-102040000D01*
X180770000Y-99630000D02*
X174230000Y-99630000D01*
X180770000Y-99960000D02*
X180770000Y-99630000D01*
X180770000Y-102040000D02*
X180770000Y-102370000D01*
X180770000Y-102370000D02*
X174230000Y-102370000D01*
%TO.C,JP2*%
X207650000Y-67000000D02*
X211750000Y-67000000D01*
X207650000Y-69000000D02*
X207650000Y-67000000D01*
X211750000Y-67000000D02*
X211750000Y-69000000D01*
X211750000Y-69000000D02*
X207650000Y-69000000D01*
%TO.C,U4*%
X120890000Y-66637500D02*
X120890000Y-65837500D01*
X120890000Y-66637500D02*
X120890000Y-67437500D01*
X124010000Y-66637500D02*
X124010000Y-65837500D01*
X124010000Y-66637500D02*
X124010000Y-67437500D01*
X120940000Y-67937500D02*
X120610000Y-68177500D01*
X120610000Y-67697500D01*
X120940000Y-67937500D01*
G36*
X120940000Y-67937500D02*
G01*
X120610000Y-68177500D01*
X120610000Y-67697500D01*
X120940000Y-67937500D01*
G37*
%TO.C,C15*%
X157130000Y-81280000D02*
X157130000Y-86220000D01*
X157460000Y-81280000D02*
X157130000Y-81280000D01*
X157460000Y-86220000D02*
X157130000Y-86220000D01*
X159870000Y-81280000D02*
X159540000Y-81280000D01*
X159870000Y-81280000D02*
X159870000Y-86220000D01*
X159870000Y-86220000D02*
X159540000Y-86220000D01*
%TO.C,SW3*%
X205225151Y-95250000D02*
X205225151Y-96750000D01*
X206475151Y-99250000D02*
X210975151Y-99250000D01*
X210975151Y-92750000D02*
X206475151Y-92750000D01*
X212225151Y-96750000D02*
X212225151Y-95250000D01*
%TO.C,C2*%
X117420000Y-123710000D02*
X122580000Y-123710000D01*
X117420000Y-123750000D02*
X122580000Y-123750000D01*
X117421000Y-123670000D02*
X122579000Y-123670000D01*
X117423000Y-123630000D02*
X122577000Y-123630000D01*
X117425000Y-123590000D02*
X122575000Y-123590000D01*
X117428000Y-123550000D02*
X122572000Y-123550000D01*
X117431000Y-123510000D02*
X118960000Y-123510000D01*
X117435000Y-123470000D02*
X118960000Y-123470000D01*
X117440000Y-123430000D02*
X118960000Y-123430000D01*
X117445000Y-123390000D02*
X118960000Y-123390000D01*
X117451000Y-123350000D02*
X118960000Y-123350000D01*
X117457000Y-123310000D02*
X118960000Y-123310000D01*
X117464000Y-123270000D02*
X118960000Y-123270000D01*
X117472000Y-123230000D02*
X118960000Y-123230000D01*
X117481000Y-123190000D02*
X118960000Y-123190000D01*
X117490000Y-123150000D02*
X118960000Y-123150000D01*
X117499000Y-123110000D02*
X118960000Y-123110000D01*
X117510000Y-123070000D02*
X118960000Y-123070000D01*
X117521000Y-123030000D02*
X118960000Y-123030000D01*
X117533000Y-122990000D02*
X118960000Y-122990000D01*
X117545000Y-122950000D02*
X118960000Y-122950000D01*
X117558000Y-122910000D02*
X118960000Y-122910000D01*
X117572000Y-122870000D02*
X118960000Y-122870000D01*
X117587000Y-122830000D02*
X118960000Y-122830000D01*
X117602000Y-122790000D02*
X118960000Y-122790000D01*
X117618000Y-122750000D02*
X118960000Y-122750000D01*
X117635000Y-122710000D02*
X118960000Y-122710000D01*
X117653000Y-122670000D02*
X118960000Y-122670000D01*
X117671000Y-122630000D02*
X118960000Y-122630000D01*
X117691000Y-122590000D02*
X118960000Y-122590000D01*
X117711000Y-122550000D02*
X118960000Y-122550000D01*
X117732000Y-122510000D02*
X118960000Y-122510000D01*
X117754000Y-122470000D02*
X118960000Y-122470000D01*
X117777000Y-122430000D02*
X118960000Y-122430000D01*
X117801000Y-122390000D02*
X118960000Y-122390000D01*
X117825000Y-122350000D02*
X118960000Y-122350000D01*
X117851000Y-122310000D02*
X118960000Y-122310000D01*
X117878000Y-122270000D02*
X118960000Y-122270000D01*
X117906000Y-122230000D02*
X118960000Y-122230000D01*
X117935000Y-122190000D02*
X118960000Y-122190000D01*
X117965000Y-122150000D02*
X118960000Y-122150000D01*
X117997000Y-122110000D02*
X118960000Y-122110000D01*
X118030000Y-122070000D02*
X118960000Y-122070000D01*
X118064000Y-122030000D02*
X118960000Y-122030000D01*
X118099000Y-121990000D02*
X118960000Y-121990000D01*
X118136000Y-121950000D02*
X118960000Y-121950000D01*
X118175000Y-121910000D02*
X118960000Y-121910000D01*
X118215000Y-121870000D02*
X118960000Y-121870000D01*
X118257000Y-121830000D02*
X118960000Y-121830000D01*
X118275000Y-126304775D02*
X118775000Y-126304775D01*
X118301000Y-121790000D02*
X118960000Y-121790000D01*
X118348000Y-121750000D02*
X118960000Y-121750000D01*
X118396000Y-121710000D02*
X118960000Y-121710000D01*
X118447000Y-121670000D02*
X118960000Y-121670000D01*
X118501000Y-121630000D02*
X118960000Y-121630000D01*
X118525000Y-126554775D02*
X118525000Y-126054775D01*
X118557000Y-121590000D02*
X118960000Y-121590000D01*
X118617000Y-121550000D02*
X118960000Y-121550000D01*
X118681000Y-121510000D02*
X118960000Y-121510000D01*
X118749000Y-121470000D02*
X118960000Y-121470000D01*
X118823000Y-121430000D02*
X121177000Y-121430000D01*
X118902000Y-121390000D02*
X121098000Y-121390000D01*
X118989000Y-121350000D02*
X121011000Y-121350000D01*
X119086000Y-121310000D02*
X120914000Y-121310000D01*
X119195000Y-121270000D02*
X120805000Y-121270000D01*
X119323000Y-121230000D02*
X120677000Y-121230000D01*
X119483000Y-121190000D02*
X120517000Y-121190000D01*
X119717000Y-121150000D02*
X120283000Y-121150000D01*
X121040000Y-121470000D02*
X121251000Y-121470000D01*
X121040000Y-121510000D02*
X121319000Y-121510000D01*
X121040000Y-121550000D02*
X121383000Y-121550000D01*
X121040000Y-121590000D02*
X121443000Y-121590000D01*
X121040000Y-121630000D02*
X121499000Y-121630000D01*
X121040000Y-121670000D02*
X121553000Y-121670000D01*
X121040000Y-121710000D02*
X121604000Y-121710000D01*
X121040000Y-121750000D02*
X121652000Y-121750000D01*
X121040000Y-121790000D02*
X121699000Y-121790000D01*
X121040000Y-121830000D02*
X121743000Y-121830000D01*
X121040000Y-121870000D02*
X121785000Y-121870000D01*
X121040000Y-121910000D02*
X121825000Y-121910000D01*
X121040000Y-121950000D02*
X121864000Y-121950000D01*
X121040000Y-121990000D02*
X121901000Y-121990000D01*
X121040000Y-122030000D02*
X121936000Y-122030000D01*
X121040000Y-122070000D02*
X121970000Y-122070000D01*
X121040000Y-122110000D02*
X122003000Y-122110000D01*
X121040000Y-122150000D02*
X122035000Y-122150000D01*
X121040000Y-122190000D02*
X122065000Y-122190000D01*
X121040000Y-122230000D02*
X122094000Y-122230000D01*
X121040000Y-122270000D02*
X122122000Y-122270000D01*
X121040000Y-122310000D02*
X122149000Y-122310000D01*
X121040000Y-122350000D02*
X122175000Y-122350000D01*
X121040000Y-122390000D02*
X122199000Y-122390000D01*
X121040000Y-122430000D02*
X122223000Y-122430000D01*
X121040000Y-122470000D02*
X122246000Y-122470000D01*
X121040000Y-122510000D02*
X122268000Y-122510000D01*
X121040000Y-122550000D02*
X122289000Y-122550000D01*
X121040000Y-122590000D02*
X122309000Y-122590000D01*
X121040000Y-122630000D02*
X122329000Y-122630000D01*
X121040000Y-122670000D02*
X122347000Y-122670000D01*
X121040000Y-122710000D02*
X122365000Y-122710000D01*
X121040000Y-122750000D02*
X122382000Y-122750000D01*
X121040000Y-122790000D02*
X122398000Y-122790000D01*
X121040000Y-122830000D02*
X122413000Y-122830000D01*
X121040000Y-122870000D02*
X122428000Y-122870000D01*
X121040000Y-122910000D02*
X122442000Y-122910000D01*
X121040000Y-122950000D02*
X122455000Y-122950000D01*
X121040000Y-122990000D02*
X122467000Y-122990000D01*
X121040000Y-123030000D02*
X122479000Y-123030000D01*
X121040000Y-123070000D02*
X122490000Y-123070000D01*
X121040000Y-123110000D02*
X122501000Y-123110000D01*
X121040000Y-123150000D02*
X122510000Y-123150000D01*
X121040000Y-123190000D02*
X122519000Y-123190000D01*
X121040000Y-123230000D02*
X122528000Y-123230000D01*
X121040000Y-123270000D02*
X122536000Y-123270000D01*
X121040000Y-123310000D02*
X122543000Y-123310000D01*
X121040000Y-123350000D02*
X122549000Y-123350000D01*
X121040000Y-123390000D02*
X122555000Y-123390000D01*
X121040000Y-123430000D02*
X122560000Y-123430000D01*
X121040000Y-123470000D02*
X122565000Y-123470000D01*
X121040000Y-123510000D02*
X122569000Y-123510000D01*
X122620000Y-123750000D02*
G75*
G02*
X117380000Y-123750000I-2620000J0D01*
G01*
X117380000Y-123750000D02*
G75*
G02*
X122620000Y-123750000I2620000J0D01*
G01*
%TO.C,SW2*%
X205250000Y-85676626D02*
X205250000Y-87176626D01*
X206500000Y-89676626D02*
X211000000Y-89676626D01*
X211000000Y-83176626D02*
X206500000Y-83176626D01*
X212250000Y-87176626D02*
X212250000Y-85676626D01*
%TO.C,C18*%
X168190600Y-87425000D02*
X168190600Y-88955000D01*
X170030600Y-87425000D02*
X170030600Y-88955000D01*
%TO.C,C8*%
X119550000Y-73247400D02*
X119550000Y-72681400D01*
X119590000Y-73481400D02*
X119590000Y-72447400D01*
X119630000Y-73641400D02*
X119630000Y-72287400D01*
X119670000Y-73769400D02*
X119670000Y-72159400D01*
X119710000Y-73878400D02*
X119710000Y-72050400D01*
X119750000Y-73975400D02*
X119750000Y-71953400D01*
X119790000Y-74062400D02*
X119790000Y-71866400D01*
X119830000Y-74141400D02*
X119830000Y-71787400D01*
X119870000Y-71924400D02*
X119870000Y-71713400D01*
X119870000Y-74215400D02*
X119870000Y-74004400D01*
X119910000Y-71924400D02*
X119910000Y-71645400D01*
X119910000Y-74283400D02*
X119910000Y-74004400D01*
X119950000Y-71924400D02*
X119950000Y-71581400D01*
X119950000Y-74347400D02*
X119950000Y-74004400D01*
X119990000Y-71924400D02*
X119990000Y-71521400D01*
X119990000Y-74407400D02*
X119990000Y-74004400D01*
X120030000Y-71924400D02*
X120030000Y-71465400D01*
X120030000Y-74463400D02*
X120030000Y-74004400D01*
X120070000Y-71924400D02*
X120070000Y-71411400D01*
X120070000Y-74517400D02*
X120070000Y-74004400D01*
X120110000Y-71924400D02*
X120110000Y-71360400D01*
X120110000Y-74568400D02*
X120110000Y-74004400D01*
X120150000Y-71924400D02*
X120150000Y-71312400D01*
X120150000Y-74616400D02*
X120150000Y-74004400D01*
X120190000Y-71924400D02*
X120190000Y-71265400D01*
X120190000Y-74663400D02*
X120190000Y-74004400D01*
X120230000Y-71924400D02*
X120230000Y-71221400D01*
X120230000Y-74707400D02*
X120230000Y-74004400D01*
X120270000Y-71924400D02*
X120270000Y-71179400D01*
X120270000Y-74749400D02*
X120270000Y-74004400D01*
X120310000Y-71924400D02*
X120310000Y-71139400D01*
X120310000Y-74789400D02*
X120310000Y-74004400D01*
X120350000Y-71924400D02*
X120350000Y-71100400D01*
X120350000Y-74828400D02*
X120350000Y-74004400D01*
X120390000Y-71924400D02*
X120390000Y-71063400D01*
X120390000Y-74865400D02*
X120390000Y-74004400D01*
X120430000Y-71924400D02*
X120430000Y-71028400D01*
X120430000Y-74900400D02*
X120430000Y-74004400D01*
X120470000Y-71924400D02*
X120470000Y-70994400D01*
X120470000Y-74934400D02*
X120470000Y-74004400D01*
X120510000Y-71924400D02*
X120510000Y-70961400D01*
X120510000Y-74967400D02*
X120510000Y-74004400D01*
X120550000Y-71924400D02*
X120550000Y-70929400D01*
X120550000Y-74999400D02*
X120550000Y-74004400D01*
X120590000Y-71924400D02*
X120590000Y-70899400D01*
X120590000Y-75029400D02*
X120590000Y-74004400D01*
X120630000Y-71924400D02*
X120630000Y-70870400D01*
X120630000Y-75058400D02*
X120630000Y-74004400D01*
X120670000Y-71924400D02*
X120670000Y-70842400D01*
X120670000Y-75086400D02*
X120670000Y-74004400D01*
X120710000Y-71924400D02*
X120710000Y-70815400D01*
X120710000Y-75113400D02*
X120710000Y-74004400D01*
X120750000Y-71924400D02*
X120750000Y-70789400D01*
X120750000Y-75139400D02*
X120750000Y-74004400D01*
X120790000Y-71924400D02*
X120790000Y-70765400D01*
X120790000Y-75163400D02*
X120790000Y-74004400D01*
X120830000Y-71924400D02*
X120830000Y-70741400D01*
X120830000Y-75187400D02*
X120830000Y-74004400D01*
X120870000Y-71924400D02*
X120870000Y-70718400D01*
X120870000Y-75210400D02*
X120870000Y-74004400D01*
X120910000Y-71924400D02*
X120910000Y-70696400D01*
X120910000Y-75232400D02*
X120910000Y-74004400D01*
X120950000Y-71924400D02*
X120950000Y-70675400D01*
X120950000Y-75253400D02*
X120950000Y-74004400D01*
X120990000Y-71924400D02*
X120990000Y-70655400D01*
X120990000Y-75273400D02*
X120990000Y-74004400D01*
X121030000Y-71924400D02*
X121030000Y-70635400D01*
X121030000Y-75293400D02*
X121030000Y-74004400D01*
X121070000Y-71924400D02*
X121070000Y-70617400D01*
X121070000Y-75311400D02*
X121070000Y-74004400D01*
X121110000Y-71924400D02*
X121110000Y-70599400D01*
X121110000Y-75329400D02*
X121110000Y-74004400D01*
X121150000Y-71924400D02*
X121150000Y-70582400D01*
X121150000Y-75346400D02*
X121150000Y-74004400D01*
X121190000Y-71924400D02*
X121190000Y-70566400D01*
X121190000Y-75362400D02*
X121190000Y-74004400D01*
X121230000Y-71924400D02*
X121230000Y-70551400D01*
X121230000Y-75377400D02*
X121230000Y-74004400D01*
X121270000Y-71924400D02*
X121270000Y-70536400D01*
X121270000Y-75392400D02*
X121270000Y-74004400D01*
X121310000Y-71924400D02*
X121310000Y-70522400D01*
X121310000Y-75406400D02*
X121310000Y-74004400D01*
X121350000Y-71924400D02*
X121350000Y-70509400D01*
X121350000Y-75419400D02*
X121350000Y-74004400D01*
X121390000Y-71924400D02*
X121390000Y-70497400D01*
X121390000Y-75431400D02*
X121390000Y-74004400D01*
X121430000Y-71924400D02*
X121430000Y-70485400D01*
X121430000Y-75443400D02*
X121430000Y-74004400D01*
X121470000Y-71924400D02*
X121470000Y-70474400D01*
X121470000Y-75454400D02*
X121470000Y-74004400D01*
X121510000Y-71924400D02*
X121510000Y-70463400D01*
X121510000Y-75465400D02*
X121510000Y-74004400D01*
X121550000Y-71924400D02*
X121550000Y-70454400D01*
X121550000Y-75474400D02*
X121550000Y-74004400D01*
X121590000Y-71924400D02*
X121590000Y-70445400D01*
X121590000Y-75483400D02*
X121590000Y-74004400D01*
X121630000Y-71924400D02*
X121630000Y-70436400D01*
X121630000Y-75492400D02*
X121630000Y-74004400D01*
X121670000Y-71924400D02*
X121670000Y-70428400D01*
X121670000Y-75500400D02*
X121670000Y-74004400D01*
X121710000Y-71924400D02*
X121710000Y-70421400D01*
X121710000Y-75507400D02*
X121710000Y-74004400D01*
X121750000Y-71924400D02*
X121750000Y-70415400D01*
X121750000Y-75513400D02*
X121750000Y-74004400D01*
X121790000Y-71924400D02*
X121790000Y-70409400D01*
X121790000Y-75519400D02*
X121790000Y-74004400D01*
X121830000Y-71924400D02*
X121830000Y-70404400D01*
X121830000Y-75524400D02*
X121830000Y-74004400D01*
X121870000Y-71924400D02*
X121870000Y-70399400D01*
X121870000Y-75529400D02*
X121870000Y-74004400D01*
X121910000Y-71924400D02*
X121910000Y-70395400D01*
X121910000Y-75533400D02*
X121910000Y-74004400D01*
X121950000Y-75536400D02*
X121950000Y-70392400D01*
X121990000Y-75539400D02*
X121990000Y-70389400D01*
X122030000Y-75541400D02*
X122030000Y-70387400D01*
X122070000Y-75543400D02*
X122070000Y-70385400D01*
X122110000Y-75544400D02*
X122110000Y-70384400D01*
X122150000Y-75544400D02*
X122150000Y-70384400D01*
X124704775Y-74689400D02*
X124704775Y-74189400D01*
X124954775Y-74439400D02*
X124454775Y-74439400D01*
X124770000Y-72964400D02*
G75*
G02*
X119530000Y-72964400I-2620000J0D01*
G01*
X119530000Y-72964400D02*
G75*
G02*
X124770000Y-72964400I2620000J0D01*
G01*
%TO.C,D1*%
X146760000Y-97500000D02*
X147780000Y-97500000D01*
X147780000Y-96030000D02*
X147780000Y-98970000D01*
X147780000Y-98970000D02*
X153220000Y-98970000D01*
X148560000Y-96030000D02*
X148560000Y-98970000D01*
X148680000Y-96030000D02*
X148680000Y-98970000D01*
X148800000Y-96030000D02*
X148800000Y-98970000D01*
X153220000Y-96030000D02*
X147780000Y-96030000D01*
X153220000Y-98970000D02*
X153220000Y-96030000D01*
X154240000Y-97500000D02*
X153220000Y-97500000D01*
%TO.C,R12*%
X208630000Y-71040000D02*
X208630000Y-77580000D01*
X208630000Y-77580000D02*
X208960000Y-77580000D01*
X208960000Y-71040000D02*
X208630000Y-71040000D01*
X211040000Y-71040000D02*
X211370000Y-71040000D01*
X211370000Y-71040000D02*
X211370000Y-77580000D01*
X211370000Y-77580000D02*
X211040000Y-77580000D01*
%TO.C,R16*%
X193855151Y-92920000D02*
X193855151Y-99460000D01*
X193855151Y-99460000D02*
X194185151Y-99460000D01*
X194185151Y-92920000D02*
X193855151Y-92920000D01*
X196265151Y-92920000D02*
X196595151Y-92920000D01*
X196595151Y-92920000D02*
X196595151Y-99460000D01*
X196595151Y-99460000D02*
X196265151Y-99460000D01*
%TO.C,R13*%
X174230000Y-96130000D02*
X174230000Y-96460000D01*
X174230000Y-98870000D02*
X174230000Y-98540000D01*
X180770000Y-96130000D02*
X174230000Y-96130000D01*
X180770000Y-96460000D02*
X180770000Y-96130000D01*
X180770000Y-98540000D02*
X180770000Y-98870000D01*
X180770000Y-98870000D02*
X174230000Y-98870000D01*
%TO.C,C7*%
X119430000Y-77924400D02*
X119430000Y-77594400D01*
X119430000Y-80334400D02*
X119430000Y-80004400D01*
X124370000Y-77594400D02*
X119430000Y-77594400D01*
X124370000Y-77924400D02*
X124370000Y-77594400D01*
X124370000Y-80334400D02*
X119430000Y-80334400D01*
X124370000Y-80334400D02*
X124370000Y-80004400D01*
%TD*%
M02*
